<svg xmlns="http://www.w3.org/2000/svg" xmlns:xlink="http://www.w3.org/1999/xlink" version="1.2" width="210.00mm" height="297.00mm" viewBox="0 0 119.5016 169.0094">
<style text="style/css">
<![CDATA[
tspan { white-space: pre; }
]]>
</style>
<!-- Page: 2/4 -->
<text transform="translate(110.3967, 2.8453)" font-family="serif" font-size="2.2001" text-anchor="start" fill="currentColor">
<tspan/>
</text>
<text transform="translate(43.1742, 6.9523)" font-family="serif" font-weight="bold" font-size="3.4927" text-anchor="start" fill="currentColor">
<tspan>Transcendante Études</tspan>
</text>
<text transform="translate(51.3515, 9.9523)" font-family="serif" font-size="2.4696" text-anchor="start" fill="currentColor">
<tspan>12. Chasse-neige</tspan>
</text>
<text transform="translate(9.1049, 15.9523)" font-family="serif" font-weight="bold" font-size="2.4696" text-anchor="start" fill="currentColor">
<tspan>2-part Combinations</tspan>
</text>
<text transform="translate(96.7394, 15.9523)" font-family="serif" font-weight="bold" font-size="2.7719" text-anchor="start" fill="currentColor">
<tspan>Franz Liszt</tspan>
</text>
<text transform="translate(101.0414, 18.9523)" font-family="serif" font-size="2.2001" text-anchor="start" fill="currentColor">
<tspan>S.139</tspan>
</text>
<line transform="translate(23.8907, 28.7656)" stroke-linejoin="round" stroke-linecap="round" stroke-width="0.1000" stroke="currentColor" x1="0.0500" y1="-0.0000" x2="71.7012" y2="-0.0000"/>
<line transform="translate(23.8907, 27.7656)" stroke-linejoin="round" stroke-linecap="round" stroke-width="0.1000" stroke="currentColor" x1="0.0500" y1="-0.0000" x2="71.7012" y2="-0.0000"/>
<line transform="translate(23.8907, 26.7656)" stroke-linejoin="round" stroke-linecap="round" stroke-width="0.1000" stroke="currentColor" x1="0.0500" y1="-0.0000" x2="71.7012" y2="-0.0000"/>
<line transform="translate(23.8907, 25.7656)" stroke-linejoin="round" stroke-linecap="round" stroke-width="0.1000" stroke="currentColor" x1="0.0500" y1="-0.0000" x2="71.7012" y2="-0.0000"/>
<line transform="translate(23.8907, 24.7656)" stroke-linejoin="round" stroke-linecap="round" stroke-width="0.1000" stroke="currentColor" x1="0.0500" y1="-0.0000" x2="71.7012" y2="-0.0000"/>
<line transform="translate(23.8907, 37.7656)" stroke-linejoin="round" stroke-linecap="round" stroke-width="0.1000" stroke="currentColor" x1="0.0500" y1="-0.0000" x2="71.7012" y2="-0.0000"/>
<line transform="translate(23.8907, 36.7656)" stroke-linejoin="round" stroke-linecap="round" stroke-width="0.1000" stroke="currentColor" x1="0.0500" y1="-0.0000" x2="71.7012" y2="-0.0000"/>
<line transform="translate(23.8907, 35.7656)" stroke-linejoin="round" stroke-linecap="round" stroke-width="0.1000" stroke="currentColor" x1="0.0500" y1="-0.0000" x2="71.7012" y2="-0.0000"/>
<line transform="translate(23.8907, 34.7656)" stroke-linejoin="round" stroke-linecap="round" stroke-width="0.1000" stroke="currentColor" x1="0.0500" y1="-0.0000" x2="71.7012" y2="-0.0000"/>
<line transform="translate(23.8907, 33.7656)" stroke-linejoin="round" stroke-linecap="round" stroke-width="0.1000" stroke="currentColor" x1="0.0500" y1="-0.0000" x2="71.7012" y2="-0.0000"/>
<rect transform="translate(71.5890, 26.7656)" x="-0.0650" y="-2.5000" width="0.1300" height="4.3139" ry="0.0400" fill="currentColor"/>
<g color="rgb(73.3333%, 44.3137%, 91.3725%)">
<a style="color:inherit;" xlink:href="textedit://C:/Users/RCJacH/OneDrive/Documents/Coding/music/piano_textures/data/classical/liszt/transcendental_etudes/12_chasse_neige/12_chasse_neige.ly:101:34:35">
<path transform="translate(68.0955, 27.7656) scale(0.0040, -0.0040)" d="M218 136c55 0 108 -28 108 -89c0 -71 -55 -121 -102 -149c-35 -21 -75 -34 -116 -34c-55 0 -108 28 -108 89c0 71 55 121 102 149c35 21 75 34 116 34z" fill="currentColor"/>
</a>
</g>
<rect transform="translate(69.3348, 26.7656)" x="-0.0650" y="-2.5000" width="0.1300" height="3.3139" ry="0.0400" fill="currentColor"/>
<g color="rgb(73.3333%, 44.3137%, 91.3725%)">
<a style="color:inherit;" xlink:href="textedit://C:/Users/RCJacH/OneDrive/Documents/Coding/music/piano_textures/data/classical/liszt/transcendental_etudes/12_chasse_neige/12_chasse_neige.ly:101:28:29">
<path transform="translate(70.3498, 28.7656) scale(0.0040, -0.0040)" d="M218 136c55 0 108 -28 108 -89c0 -71 -55 -121 -102 -149c-35 -21 -75 -34 -116 -34c-55 0 -108 28 -108 89c0 71 55 121 102 149c35 21 75 34 116 34z" fill="currentColor"/>
</a>
</g>
<g color="rgb(73.3333%, 44.3137%, 91.3725%)">
<a style="color:inherit;" xlink:href="textedit://C:/Users/RCJacH/OneDrive/Documents/Coding/music/piano_textures/data/classical/liszt/transcendental_etudes/12_chasse_neige/12_chasse_neige.ly:101:34:35">
<path transform="translate(73.1040, 27.7656) scale(0.0040, -0.0040)" d="M218 136c55 0 108 -28 108 -89c0 -71 -55 -121 -102 -149c-35 -21 -75 -34 -116 -34c-55 0 -108 28 -108 89c0 71 55 121 102 149c35 21 75 34 116 34z" fill="currentColor"/>
</a>
</g>
<rect transform="translate(74.3432, 26.7656)" x="-0.0650" y="-2.5000" width="0.1300" height="3.3139" ry="0.0400" fill="currentColor"/>
<g color="rgb(73.3333%, 44.3137%, 91.3725%)">
<a style="color:inherit;" xlink:href="textedit://C:/Users/RCJacH/OneDrive/Documents/Coding/music/piano_textures/data/classical/liszt/transcendental_etudes/12_chasse_neige/12_chasse_neige.ly:101:28:29">
<path transform="translate(75.3582, 28.7656) scale(0.0040, -0.0040)" d="M218 136c55 0 108 -28 108 -89c0 -71 -55 -121 -102 -149c-35 -21 -75 -34 -116 -34c-55 0 -108 28 -108 89c0 71 55 121 102 149c35 21 75 34 116 34z" fill="currentColor"/>
</a>
</g>
<g color="rgb(44.3137%, 61.1765%, 96.0784%)">
<a style="color:inherit;" xlink:href="textedit://C:/Users/RCJacH/OneDrive/Documents/Coding/music/piano_textures/data/classical/liszt/transcendental_etudes/12_chasse_neige/12_chasse_neige.ly:104:55:56">
<path transform="translate(75.3582, 36.7656) scale(0.0040, -0.0040)" d="M218 136c55 0 108 -28 108 -89c0 -71 -55 -121 -102 -149c-35 -21 -75 -34 -116 -34c-55 0 -108 28 -108 89c0 71 55 121 102 149c35 21 75 34 116 34z" fill="currentColor"/>
</a>
</g>
<g color="rgb(73.3333%, 44.3137%, 91.3725%)">
<a style="color:inherit;" xlink:href="textedit://C:/Users/RCJacH/OneDrive/Documents/Coding/music/piano_textures/data/classical/liszt/transcendental_etudes/12_chasse_neige/12_chasse_neige.ly:101:34:35">
<path transform="translate(58.0787, 27.7656) scale(0.0040, -0.0040)" d="M218 136c55 0 108 -28 108 -89c0 -71 -55 -121 -102 -149c-35 -21 -75 -34 -116 -34c-55 0 -108 28 -108 89c0 71 55 121 102 149c35 21 75 34 116 34z" fill="currentColor"/>
</a>
</g>
<rect transform="translate(59.3179, 26.7656)" x="-0.0650" y="-2.5000" width="0.1300" height="3.3139" ry="0.0400" fill="currentColor"/>
<g color="rgb(73.3333%, 44.3137%, 91.3725%)">
<a style="color:inherit;" xlink:href="textedit://C:/Users/RCJacH/OneDrive/Documents/Coding/music/piano_textures/data/classical/liszt/transcendental_etudes/12_chasse_neige/12_chasse_neige.ly:101:28:29">
<path transform="translate(60.3329, 28.7656) scale(0.0040, -0.0040)" d="M218 136c55 0 108 -28 108 -89c0 -71 -55 -121 -102 -149c-35 -21 -75 -34 -116 -34c-55 0 -108 28 -108 89c0 71 55 121 102 149c35 21 75 34 116 34z" fill="currentColor"/>
</a>
</g>
<rect transform="translate(61.5721, 26.7656)" x="-0.0650" y="-2.5000" width="0.1300" height="4.3139" ry="0.0400" fill="currentColor"/>
<g color="rgb(73.3333%, 44.3137%, 91.3725%)">
<a style="color:inherit;" xlink:href="textedit://C:/Users/RCJacH/OneDrive/Documents/Coding/music/piano_textures/data/classical/liszt/transcendental_etudes/12_chasse_neige/12_chasse_neige.ly:101:34:35">
<path transform="translate(63.0871, 27.7656) scale(0.0040, -0.0040)" d="M218 136c55 0 108 -28 108 -89c0 -71 -55 -121 -102 -149c-35 -21 -75 -34 -116 -34c-55 0 -108 28 -108 89c0 71 55 121 102 149c35 21 75 34 116 34z" fill="currentColor"/>
</a>
</g>
<rect transform="translate(64.3263, 26.7656)" x="-0.0650" y="-2.5000" width="0.1300" height="3.3139" ry="0.0400" fill="currentColor"/>
<g color="rgb(73.3333%, 44.3137%, 91.3725%)">
<a style="color:inherit;" xlink:href="textedit://C:/Users/RCJacH/OneDrive/Documents/Coding/music/piano_textures/data/classical/liszt/transcendental_etudes/12_chasse_neige/12_chasse_neige.ly:101:28:29">
<path transform="translate(65.3413, 28.7656) scale(0.0040, -0.0040)" d="M218 136c55 0 108 -28 108 -89c0 -71 -55 -121 -102 -149c-35 -21 -75 -34 -116 -34c-55 0 -108 28 -108 89c0 71 55 121 102 149c35 21 75 34 116 34z" fill="currentColor"/>
</a>
</g>
<rect transform="translate(66.5805, 26.7656)" x="-0.0650" y="-2.5000" width="0.1300" height="4.3139" ry="0.0400" fill="currentColor"/>
<polygon transform="translate(36.4650, 24.2656)" stroke-linejoin="round" stroke-linecap="round" stroke-width="0.0800" fill="currentColor" stroke="currentColor" points="57.9369 -0.1200 57.9369 0.1200 0.0400 0.1200 0.0400 -0.1200"/>
<polygon transform="translate(76.5324, 24.9340)" stroke-linejoin="round" stroke-linecap="round" stroke-width="0.0800" fill="currentColor" stroke="currentColor" points="17.8695 -0.1200 17.8695 0.1200 0.0400 0.1200 0.0400 -0.1200"/>
<polygon transform="translate(56.4987, 24.9340)" stroke-linejoin="round" stroke-linecap="round" stroke-width="0.0800" fill="currentColor" stroke="currentColor" points="17.8695 -0.1200 17.8695 0.1200 0.0400 0.1200 0.0400 -0.1200"/>
<polygon transform="translate(36.4650, 24.9340)" stroke-linejoin="round" stroke-linecap="round" stroke-width="0.0800" fill="currentColor" stroke="currentColor" points="17.8695 -0.1200 17.8695 0.1200 0.0400 0.1200 0.0400 -0.1200"/>
<polygon transform="translate(76.5324, 25.6023)" stroke-linejoin="round" stroke-linecap="round" stroke-width="0.0800" fill="currentColor" stroke="currentColor" points="17.8695 -0.1200 17.8695 0.1200 0.0400 0.1200 0.0400 -0.1200"/>
<polygon transform="translate(56.4987, 25.6023)" stroke-linejoin="round" stroke-linecap="round" stroke-width="0.0800" fill="currentColor" stroke="currentColor" points="17.8695 -0.1200 17.8695 0.1200 0.0400 0.1200 0.0400 -0.1200"/>
<polygon transform="translate(36.4650, 25.6023)" stroke-linejoin="round" stroke-linecap="round" stroke-width="0.0800" fill="currentColor" stroke="currentColor" points="17.8695 -0.1200 17.8695 0.1200 0.0400 0.1200 0.0400 -0.1200"/>
<polygon transform="translate(76.5324, 26.2706)" stroke-linejoin="round" stroke-linecap="round" stroke-width="0.0800" fill="currentColor" stroke="currentColor" points="17.8695 -0.1200 17.8695 0.1200 0.0400 0.1200 0.0400 -0.1200"/>
<polygon transform="translate(56.4987, 26.2706)" stroke-linejoin="round" stroke-linecap="round" stroke-width="0.0800" fill="currentColor" stroke="currentColor" points="17.8695 -0.1200 17.8695 0.1200 0.0400 0.1200 0.0400 -0.1200"/>
<polygon transform="translate(36.4650, 26.2706)" stroke-linejoin="round" stroke-linecap="round" stroke-width="0.0800" fill="currentColor" stroke="currentColor" points="17.8695 -0.1200 17.8695 0.1200 0.0400 0.1200 0.0400 -0.1200"/>
<g color="rgb(73.3333%, 44.3137%, 91.3725%)">
<a style="color:inherit;" xlink:href="textedit://C:/Users/RCJacH/OneDrive/Documents/Coding/music/piano_textures/data/classical/liszt/transcendental_etudes/12_chasse_neige/12_chasse_neige.ly:101:28:29">
<path transform="translate(85.3750, 28.7656) scale(0.0040, -0.0040)" d="M218 136c55 0 108 -28 108 -89c0 -71 -55 -121 -102 -149c-35 -21 -75 -34 -116 -34c-55 0 -108 28 -108 89c0 71 55 121 102 149c35 21 75 34 116 34z" fill="currentColor"/>
</a>
</g>
<rect transform="translate(86.6142, 26.7656)" x="-0.0650" y="-2.5000" width="0.1300" height="4.3139" ry="0.0400" fill="currentColor"/>
<g color="rgb(73.3333%, 44.3137%, 91.3725%)">
<a style="color:inherit;" xlink:href="textedit://C:/Users/RCJacH/OneDrive/Documents/Coding/music/piano_textures/data/classical/liszt/transcendental_etudes/12_chasse_neige/12_chasse_neige.ly:101:34:35">
<path transform="translate(88.1292, 27.7656) scale(0.0040, -0.0040)" d="M218 136c55 0 108 -28 108 -89c0 -71 -55 -121 -102 -149c-35 -21 -75 -34 -116 -34c-55 0 -108 28 -108 89c0 71 55 121 102 149c35 21 75 34 116 34z" fill="currentColor"/>
</a>
</g>
<rect transform="translate(89.3684, 26.7656)" x="-0.0650" y="-2.5000" width="0.1300" height="3.3139" ry="0.0400" fill="currentColor"/>
<g color="rgb(73.3333%, 44.3137%, 91.3725%)">
<a style="color:inherit;" xlink:href="textedit://C:/Users/RCJacH/OneDrive/Documents/Coding/music/piano_textures/data/classical/liszt/transcendental_etudes/12_chasse_neige/12_chasse_neige.ly:101:28:29">
<path transform="translate(90.3834, 28.7656) scale(0.0040, -0.0040)" d="M218 136c55 0 108 -28 108 -89c0 -71 -55 -121 -102 -149c-35 -21 -75 -34 -116 -34c-55 0 -108 28 -108 89c0 71 55 121 102 149c35 21 75 34 116 34z" fill="currentColor"/>
</a>
</g>
<rect transform="translate(91.6227, 26.7656)" x="-0.0650" y="-2.5000" width="0.1300" height="4.3139" ry="0.0400" fill="currentColor"/>
<g color="rgb(73.3333%, 44.3137%, 91.3725%)">
<a style="color:inherit;" xlink:href="textedit://C:/Users/RCJacH/OneDrive/Documents/Coding/music/piano_textures/data/classical/liszt/transcendental_etudes/12_chasse_neige/12_chasse_neige.ly:101:34:35">
<path transform="translate(93.1377, 27.7656) scale(0.0040, -0.0040)" d="M218 136c55 0 108 -28 108 -89c0 -71 -55 -121 -102 -149c-35 -21 -75 -34 -116 -34c-55 0 -108 28 -108 89c0 71 55 121 102 149c35 21 75 34 116 34z" fill="currentColor"/>
</a>
</g>
<rect transform="translate(94.3769, 26.7656)" x="-0.0650" y="-2.5000" width="0.1300" height="3.3139" ry="0.0400" fill="currentColor"/>
<rect transform="translate(75.4232, 35.7656)" x="-0.0650" y="1.1861" width="0.1300" height="2.9389" ry="0.0400" fill="currentColor"/>
<path transform="translate(75.4882, 39.8506) scale(0.0040, -0.0040)" d="M0 0h-16v250h16c97 59 224 148 224 259c0 57 -15 112 -40 163c-3 16 10 27 23 27c7 0 15 -3 20 -11c25 -56 40 -117 40 -179c0 -203 -267 -306 -267 -509z" fill="currentColor"/>
<g color="rgb(73.3333%, 44.3137%, 91.3725%)">
<a style="color:inherit;" xlink:href="textedit://C:/Users/RCJacH/OneDrive/Documents/Coding/music/piano_textures/data/classical/liszt/transcendental_etudes/12_chasse_neige/12_chasse_neige.ly:101:34:35">
<path transform="translate(78.1124, 27.7656) scale(0.0040, -0.0040)" d="M218 136c55 0 108 -28 108 -89c0 -71 -55 -121 -102 -149c-35 -21 -75 -34 -116 -34c-55 0 -108 28 -108 89c0 71 55 121 102 149c35 21 75 34 116 34z" fill="currentColor"/>
</a>
</g>
<rect transform="translate(79.3516, 26.7656)" x="-0.0650" y="-2.5000" width="0.1300" height="3.3139" ry="0.0400" fill="currentColor"/>
<rect transform="translate(76.5974, 26.7656)" x="-0.0650" y="-2.5000" width="0.1300" height="4.3139" ry="0.0400" fill="currentColor"/>
<g color="rgb(73.3333%, 44.3137%, 91.3725%)">
<a style="color:inherit;" xlink:href="textedit://C:/Users/RCJacH/OneDrive/Documents/Coding/music/piano_textures/data/classical/liszt/transcendental_etudes/12_chasse_neige/12_chasse_neige.ly:101:28:29">
<path transform="translate(80.3666, 28.7656) scale(0.0040, -0.0040)" d="M218 136c55 0 108 -28 108 -89c0 -71 -55 -121 -102 -149c-35 -21 -75 -34 -116 -34c-55 0 -108 28 -108 89c0 71 55 121 102 149c35 21 75 34 116 34z" fill="currentColor"/>
</a>
</g>
<rect transform="translate(81.6058, 26.7656)" x="-0.0650" y="-2.5000" width="0.1300" height="4.3139" ry="0.0400" fill="currentColor"/>
<g color="rgb(73.3333%, 44.3137%, 91.3725%)">
<a style="color:inherit;" xlink:href="textedit://C:/Users/RCJacH/OneDrive/Documents/Coding/music/piano_textures/data/classical/liszt/transcendental_etudes/12_chasse_neige/12_chasse_neige.ly:101:34:35">
<path transform="translate(83.1208, 27.7656) scale(0.0040, -0.0040)" d="M218 136c55 0 108 -28 108 -89c0 -71 -55 -121 -102 -149c-35 -21 -75 -34 -116 -34c-55 0 -108 28 -108 89c0 71 55 121 102 149c35 21 75 34 116 34z" fill="currentColor"/>
</a>
</g>
<rect transform="translate(84.3600, 26.7656)" x="-0.0650" y="-2.5000" width="0.1300" height="3.3139" ry="0.0400" fill="currentColor"/>
<g color="rgb(73.3333%, 44.3137%, 91.3725%)">
<a style="color:inherit;" xlink:href="textedit://C:/Users/RCJacH/OneDrive/Documents/Coding/music/piano_textures/data/classical/liszt/transcendental_etudes/12_chasse_neige/12_chasse_neige.ly:101:34:35">
<path transform="translate(38.0450, 27.7656) scale(0.0040, -0.0040)" d="M218 136c55 0 108 -28 108 -89c0 -71 -55 -121 -102 -149c-35 -21 -75 -34 -116 -34c-55 0 -108 28 -108 89c0 71 55 121 102 149c35 21 75 34 116 34z" fill="currentColor"/>
</a>
</g>
<rect transform="translate(39.2842, 26.7656)" x="-0.0650" y="-2.5000" width="0.1300" height="3.3139" ry="0.0400" fill="currentColor"/>
<path transform="translate(35.4208, 36.7256) scale(0.0040, -0.0040)" d="M0 0h-16v250h16c97 59 224 148 224 259c0 57 -15 112 -40 163c-3 16 10 27 23 27c7 0 15 -3 20 -11c25 -56 40 -117 40 -179c0 -203 -267 -306 -267 -509z" fill="currentColor"/>
<g color="rgb(73.3333%, 44.3137%, 91.3725%)">
<a style="color:inherit;" xlink:href="textedit://C:/Users/RCJacH/OneDrive/Documents/Coding/music/piano_textures/data/classical/liszt/transcendental_etudes/12_chasse_neige/12_chasse_neige.ly:101:28:29">
<path transform="translate(40.2992, 28.7656) scale(0.0040, -0.0040)" d="M218 136c55 0 108 -28 108 -89c0 -71 -55 -121 -102 -149c-35 -21 -75 -34 -116 -34c-55 0 -108 28 -108 89c0 71 55 121 102 149c35 21 75 34 116 34z" fill="currentColor"/>
</a>
</g>
<rect transform="translate(41.5384, 26.7656)" x="-0.0650" y="-2.5000" width="0.1300" height="4.3139" ry="0.0400" fill="currentColor"/>
<path transform="translate(55.4545, 37.7256) scale(0.0040, -0.0040)" d="M0 0h-16v250h16c97 59 224 148 224 259c0 57 -15 112 -40 163c-3 16 10 27 23 27c7 0 15 -3 20 -11c25 -56 40 -117 40 -179c0 -203 -267 -306 -267 -509z" fill="currentColor"/>
<g color="rgb(73.3333%, 44.3137%, 91.3725%)">
<a style="color:inherit;" xlink:href="textedit://C:/Users/RCJacH/OneDrive/Documents/Coding/music/piano_textures/data/classical/liszt/transcendental_etudes/12_chasse_neige/12_chasse_neige.ly:101:34:35">
<path transform="translate(43.0534, 27.7656) scale(0.0040, -0.0040)" d="M218 136c55 0 108 -28 108 -89c0 -71 -55 -121 -102 -149c-35 -21 -75 -34 -116 -34c-55 0 -108 28 -108 89c0 71 55 121 102 149c35 21 75 34 116 34z" fill="currentColor"/>
</a>
</g>
<rect transform="translate(44.2926, 26.7656)" x="-0.0650" y="-2.5000" width="0.1300" height="3.3139" ry="0.0400" fill="currentColor"/>
<g color="rgb(44.3137%, 61.1765%, 96.0784%)">
<a style="color:inherit;" xlink:href="textedit://C:/Users/RCJacH/OneDrive/Documents/Coding/music/piano_textures/data/classical/liszt/transcendental_etudes/12_chasse_neige/12_chasse_neige.ly:104:46:47">
<path transform="translate(35.2908, 33.2656) scale(0.0040, -0.0040)" d="M218 136c55 0 108 -28 108 -89c0 -71 -55 -121 -102 -149c-35 -21 -75 -34 -116 -34c-55 0 -108 28 -108 89c0 71 55 121 102 149c35 21 75 34 116 34z" fill="currentColor"/>
</a>
</g>
<text transform="translate(14.2947, 31.9997)" font-family="serif" font-size="2.2001" text-anchor="start" fill="currentColor">
<tspan>a + Bass </tspan>
</text>
<path transform="translate(23.5307, 31.2656) scale(0.0040, -0.0040)" d="M-15 -498c0 -261 -102 -516 -102 -765c0 -135 30 -261 129 -360c3 -3 3 -9 3 -12c0 -9 -6 -18 -15 -18c-3 0 -9 3 -12 6c-132 135 -177 312 -177 501c0 267 108 528 108 780c0 135 -33 261 -129 360c-3 3 -3 3 -3 6s0 3 3 6c96 99 129 225 129 360
c0 252 -108 513 -108 780c0 189 45 366 177 501c3 3 9 6 12 6c9 0 15 -9 15 -18c0 -3 0 -9 -3 -12c-99 -99 -129 -225 -129 -360c0 -249 102 -504 102 -765c0 -186 -45 -363 -174 -498c129 -135 174 -312 174 -498z" fill="currentColor"/>
<rect transform="translate(23.8307, 31.2656)" x="0.0000" y="-6.5500" width="0.1600" height="13.1000" ry="0.0500" fill="currentColor"/>
<g color="rgb(73.3333%, 44.3137%, 91.3725%)">
<a style="color:inherit;" xlink:href="textedit://C:/Users/RCJacH/OneDrive/Documents/Coding/music/piano_textures/data/classical/liszt/transcendental_etudes/12_chasse_neige/12_chasse_neige.ly:101:28:29">
<path transform="translate(35.2908, 28.7656) scale(0.0040, -0.0040)" d="M218 136c55 0 108 -28 108 -89c0 -71 -55 -121 -102 -149c-35 -21 -75 -34 -116 -34c-55 0 -108 28 -108 89c0 71 55 121 102 149c35 21 75 34 116 34z" fill="currentColor"/>
</a>
</g>
<path transform="translate(24.6907, 27.7656) scale(0.0040, -0.0040)" d="M376 262c4 0 9 1 13 1c155 0 256 -128 256 -261c0 -76 -33 -154 -107 -210c-22 -17 -47 -28 -73 -36c3 -35 5 -70 5 -105c0 -19 -1 -39 -2 -58c-7 -120 -90 -228 -208 -228c-108 0 -195 88 -195 197c0 58 53 103 112 103c54 0 95 -47 95 -103c0 -52 -43 -95 -95 -95
c-11 0 -21 2 -31 6c26 -39 68 -65 117 -65c96 0 157 92 163 191c1 18 2 37 2 55c0 31 -1 61 -4 92c-29 -5 -58 -8 -89 -8c-188 0 -333 172 -333 374c0 177 131 306 248 441c-19 62 -37 125 -45 190c-6 52 -7 104 -7 156c0 115 55 224 149 292c3 2 7 3 10 3c4 0 7 0 10 -3
c71 -84 133 -245 133 -358c0 -143 -86 -255 -180 -364c21 -68 39 -138 56 -207zM461 -203c68 24 113 95 113 164c0 90 -66 179 -173 190c24 -116 46 -231 60 -354zM74 28c0 -135 129 -247 264 -247c28 0 55 2 82 6c-14 127 -37 245 -63 364c-79 -8 -124 -61 -124 -119
c0 -44 25 -91 81 -123c5 -5 7 -10 7 -15c0 -11 -10 -22 -22 -22c-3 0 -6 1 -9 2c-80 43 -117 115 -117 185c0 88 58 174 160 197c-14 58 -29 117 -46 175c-107 -121 -213 -243 -213 -403zM408 1045c-99 -48 -162 -149 -162 -259c0 -74 18 -133 36 -194
c80 97 146 198 146 324c0 55 -4 79 -20 129z" fill="currentColor"/>
<a style="color:inherit;" xlink:href="textedit://C:/Users/RCJacH/OneDrive/Documents/Coding/music/piano_textures/data/classical/liszt/transcendental_etudes/12_chasse_neige/12_chasse_neige.ly:95:6:7">
<path transform="translate(28.3107, 26.7656) scale(0.0040, -0.0040)" d="M27 41l-1 -66v-11c0 -22 1 -44 4 -66c45 38 93 80 93 139c0 33 -14 67 -43 67c-31 0 -52 -30 -53 -63zM-15 -138l-12 595c8 5 18 8 27 8s19 -3 27 -8l-7 -345c25 21 58 34 91 34c52 0 89 -48 89 -102c0 -80 -86 -117 -147 -169c-15 -13 -24 -38 -45 -38
c-13 0 -23 11 -23 25z" fill="currentColor"/>
<path transform="translate(29.2307, 25.2656) scale(0.0040, -0.0040)" d="M27 41l-1 -66v-11c0 -22 1 -44 4 -66c45 38 93 80 93 139c0 33 -14 67 -43 67c-31 0 -52 -30 -53 -63zM-15 -138l-12 595c8 5 18 8 27 8s19 -3 27 -8l-7 -345c25 21 58 34 91 34c52 0 89 -48 89 -102c0 -80 -86 -117 -147 -169c-15 -13 -24 -38 -45 -38
c-13 0 -23 11 -23 25z" fill="currentColor"/>
<path transform="translate(30.1508, 27.2656) scale(0.0040, -0.0040)" d="M27 41l-1 -66v-11c0 -22 1 -44 4 -66c45 38 93 80 93 139c0 33 -14 67 -43 67c-31 0 -52 -30 -53 -63zM-15 -138l-12 595c8 5 18 8 27 8s19 -3 27 -8l-7 -345c25 21 58 34 91 34c52 0 89 -48 89 -102c0 -80 -86 -117 -147 -169c-15 -13 -24 -38 -45 -38
c-13 0 -23 11 -23 25z" fill="currentColor"/>
<path transform="translate(31.0708, 25.7656) scale(0.0040, -0.0040)" d="M27 41l-1 -66v-11c0 -22 1 -44 4 -66c45 38 93 80 93 139c0 33 -14 67 -43 67c-31 0 -52 -30 -53 -63zM-15 -138l-12 595c8 5 18 8 27 8s19 -3 27 -8l-7 -345c25 21 58 34 91 34c52 0 89 -48 89 -102c0 -80 -86 -117 -147 -169c-15 -13 -24 -38 -45 -38
c-13 0 -23 11 -23 25z" fill="currentColor"/>
<path transform="translate(31.9908, 27.7656) scale(0.0040, -0.0040)" d="M27 41l-1 -66v-11c0 -22 1 -44 4 -66c45 38 93 80 93 139c0 33 -14 67 -43 67c-31 0 -52 -30 -53 -63zM-15 -138l-12 595c8 5 18 8 27 8s19 -3 27 -8l-7 -345c25 21 58 34 91 34c52 0 89 -48 89 -102c0 -80 -86 -117 -147 -169c-15 -13 -24 -38 -45 -38
c-13 0 -23 11 -23 25z" fill="currentColor"/>
</a>
<path transform="translate(24.6907, 34.7656) scale(0.0040, -0.0040)" d="M557 -125c0 28 23 51 51 51s51 -23 51 -51s-23 -51 -51 -51s-51 23 -51 51zM557 125c0 28 23 51 51 51s51 -23 51 -51s-23 -51 -51 -51s-51 23 -51 51zM232 263c172 0 293 -88 293 -251c0 -263 -263 -414 -516 -521c-3 -3 -6 -4 -9 -4c-7 0 -13 6 -13 13c0 3 1 6 4 9
c202 118 412 265 412 493c0 120 -63 235 -171 235c-74 0 -129 -54 -154 -126c11 5 22 8 34 8c55 0 100 -45 100 -100c0 -58 -44 -106 -100 -106c-60 0 -112 47 -112 106c0 133 102 244 232 244z" fill="currentColor"/>
<a style="color:inherit;" xlink:href="textedit://C:/Users/RCJacH/OneDrive/Documents/Coding/music/piano_textures/data/classical/liszt/transcendental_etudes/12_chasse_neige/12_chasse_neige.ly:95:6:7">
<path transform="translate(28.3107, 36.7656) scale(0.0040, -0.0040)" d="M27 41l-1 -66v-11c0 -22 1 -44 4 -66c45 38 93 80 93 139c0 33 -14 67 -43 67c-31 0 -52 -30 -53 -63zM-15 -138l-12 595c8 5 18 8 27 8s19 -3 27 -8l-7 -345c25 21 58 34 91 34c52 0 89 -48 89 -102c0 -80 -86 -117 -147 -169c-15 -13 -24 -38 -45 -38
c-13 0 -23 11 -23 25z" fill="currentColor"/>
<path transform="translate(29.2307, 35.2656) scale(0.0040, -0.0040)" d="M27 41l-1 -66v-11c0 -22 1 -44 4 -66c45 38 93 80 93 139c0 33 -14 67 -43 67c-31 0 -52 -30 -53 -63zM-15 -138l-12 595c8 5 18 8 27 8s19 -3 27 -8l-7 -345c25 21 58 34 91 34c52 0 89 -48 89 -102c0 -80 -86 -117 -147 -169c-15 -13 -24 -38 -45 -38
c-13 0 -23 11 -23 25z" fill="currentColor"/>
<path transform="translate(30.1508, 37.2656) scale(0.0040, -0.0040)" d="M27 41l-1 -66v-11c0 -22 1 -44 4 -66c45 38 93 80 93 139c0 33 -14 67 -43 67c-31 0 -52 -30 -53 -63zM-15 -138l-12 595c8 5 18 8 27 8s19 -3 27 -8l-7 -345c25 21 58 34 91 34c52 0 89 -48 89 -102c0 -80 -86 -117 -147 -169c-15 -13 -24 -38 -45 -38
c-13 0 -23 11 -23 25z" fill="currentColor"/>
<path transform="translate(31.0708, 35.7656) scale(0.0040, -0.0040)" d="M27 41l-1 -66v-11c0 -22 1 -44 4 -66c45 38 93 80 93 139c0 33 -14 67 -43 67c-31 0 -52 -30 -53 -63zM-15 -138l-12 595c8 5 18 8 27 8s19 -3 27 -8l-7 -345c25 21 58 34 91 34c52 0 89 -48 89 -102c0 -80 -86 -117 -147 -169c-15 -13 -24 -38 -45 -38
c-13 0 -23 11 -23 25z" fill="currentColor"/>
<path transform="translate(31.9908, 37.7656) scale(0.0040, -0.0040)" d="M27 41l-1 -66v-11c0 -22 1 -44 4 -66c45 38 93 80 93 139c0 33 -14 67 -43 67c-31 0 -52 -30 -53 -63zM-15 -138l-12 595c8 5 18 8 27 8s19 -3 27 -8l-7 -345c25 21 58 34 91 34c52 0 89 -48 89 -102c0 -80 -86 -117 -147 -169c-15 -13 -24 -38 -45 -38
c-13 0 -23 11 -23 25z" fill="currentColor"/>
</a>
<text transform="translate(23.0030, 23.7156)" font-family="serif" font-size="1.7461" text-anchor="start" fill="currentColor">
<tspan>2</tspan>
</text>
<rect transform="translate(36.5300, 26.7656)" x="-0.0650" y="-2.5000" width="0.1300" height="4.3139" ry="0.0400" fill="currentColor"/>
<rect transform="translate(35.3558, 35.7656)" x="-0.0650" y="-2.3139" width="0.1300" height="3.3139" ry="0.0400" fill="currentColor"/>
<g color="rgb(73.3333%, 44.3137%, 91.3725%)">
<a style="color:inherit;" xlink:href="textedit://C:/Users/RCJacH/OneDrive/Documents/Coding/music/piano_textures/data/classical/liszt/transcendental_etudes/12_chasse_neige/12_chasse_neige.ly:101:28:29">
<path transform="translate(50.3161, 28.7656) scale(0.0040, -0.0040)" d="M218 136c55 0 108 -28 108 -89c0 -71 -55 -121 -102 -149c-35 -21 -75 -34 -116 -34c-55 0 -108 28 -108 89c0 71 55 121 102 149c35 21 75 34 116 34z" fill="currentColor"/>
</a>
</g>
<rect transform="translate(51.5553, 26.7656)" x="-0.0650" y="-2.5000" width="0.1300" height="4.3139" ry="0.0400" fill="currentColor"/>
<g color="rgb(73.3333%, 44.3137%, 91.3725%)">
<a style="color:inherit;" xlink:href="textedit://C:/Users/RCJacH/OneDrive/Documents/Coding/music/piano_textures/data/classical/liszt/transcendental_etudes/12_chasse_neige/12_chasse_neige.ly:101:34:35">
<path transform="translate(53.0703, 27.7656) scale(0.0040, -0.0040)" d="M218 136c55 0 108 -28 108 -89c0 -71 -55 -121 -102 -149c-35 -21 -75 -34 -116 -34c-55 0 -108 28 -108 89c0 71 55 121 102 149c35 21 75 34 116 34z" fill="currentColor"/>
</a>
</g>
<rect transform="translate(54.3095, 26.7656)" x="-0.0650" y="-2.5000" width="0.1300" height="3.3139" ry="0.0400" fill="currentColor"/>
<g color="rgb(73.3333%, 44.3137%, 91.3725%)">
<a style="color:inherit;" xlink:href="textedit://C:/Users/RCJacH/OneDrive/Documents/Coding/music/piano_textures/data/classical/liszt/transcendental_etudes/12_chasse_neige/12_chasse_neige.ly:101:28:29">
<path transform="translate(55.3245, 28.7656) scale(0.0040, -0.0040)" d="M218 136c55 0 108 -28 108 -89c0 -71 -55 -121 -102 -149c-35 -21 -75 -34 -116 -34c-55 0 -108 28 -108 89c0 71 55 121 102 149c35 21 75 34 116 34z" fill="currentColor"/>
</a>
</g>
<g color="rgb(44.3137%, 61.1765%, 96.0784%)">
<a style="color:inherit;" xlink:href="textedit://C:/Users/RCJacH/OneDrive/Documents/Coding/music/piano_textures/data/classical/liszt/transcendental_etudes/12_chasse_neige/12_chasse_neige.ly:104:51:52">
<path transform="translate(55.3245, 34.2656) scale(0.0040, -0.0040)" d="M218 136c55 0 108 -28 108 -89c0 -71 -55 -121 -102 -149c-35 -21 -75 -34 -116 -34c-55 0 -108 28 -108 89c0 71 55 121 102 149c35 21 75 34 116 34z" fill="currentColor"/>
</a>
</g>
<rect transform="translate(56.5637, 26.7656)" x="-0.0650" y="-2.5000" width="0.1300" height="4.3139" ry="0.0400" fill="currentColor"/>
<rect transform="translate(55.3895, 35.7656)" x="-0.0650" y="-1.3139" width="0.1300" height="3.3139" ry="0.0400" fill="currentColor"/>
<g color="rgb(73.3333%, 44.3137%, 91.3725%)">
<a style="color:inherit;" xlink:href="textedit://C:/Users/RCJacH/OneDrive/Documents/Coding/music/piano_textures/data/classical/liszt/transcendental_etudes/12_chasse_neige/12_chasse_neige.ly:101:28:29">
<path transform="translate(45.3076, 28.7656) scale(0.0040, -0.0040)" d="M218 136c55 0 108 -28 108 -89c0 -71 -55 -121 -102 -149c-35 -21 -75 -34 -116 -34c-55 0 -108 28 -108 89c0 71 55 121 102 149c35 21 75 34 116 34z" fill="currentColor"/>
</a>
</g>
<rect transform="translate(46.5468, 26.7656)" x="-0.0650" y="-2.5000" width="0.1300" height="4.3139" ry="0.0400" fill="currentColor"/>
<rect transform="translate(49.3011, 26.7656)" x="-0.0650" y="-2.5000" width="0.1300" height="3.3139" ry="0.0400" fill="currentColor"/>
<g color="rgb(73.3333%, 44.3137%, 91.3725%)">
<a style="color:inherit;" xlink:href="textedit://C:/Users/RCJacH/OneDrive/Documents/Coding/music/piano_textures/data/classical/liszt/transcendental_etudes/12_chasse_neige/12_chasse_neige.ly:101:34:35">
<path transform="translate(48.0618, 27.7656) scale(0.0040, -0.0040)" d="M218 136c55 0 108 -28 108 -89c0 -71 -55 -121 -102 -149c-35 -21 -75 -34 -116 -34c-55 0 -108 28 -108 89c0 71 55 121 102 149c35 21 75 34 116 34z" fill="currentColor"/>
</a>
</g>
<line transform="translate(23.8907, 50.4406)" stroke-linejoin="round" stroke-linecap="round" stroke-width="0.1000" stroke="currentColor" x1="0.0500" y1="-0.0000" x2="74.2040" y2="-0.0000"/>
<line transform="translate(23.8907, 49.4406)" stroke-linejoin="round" stroke-linecap="round" stroke-width="0.1000" stroke="currentColor" x1="0.0500" y1="-0.0000" x2="74.2040" y2="-0.0000"/>
<line transform="translate(23.8907, 48.4406)" stroke-linejoin="round" stroke-linecap="round" stroke-width="0.1000" stroke="currentColor" x1="0.0500" y1="-0.0000" x2="74.2040" y2="-0.0000"/>
<line transform="translate(23.8907, 47.4406)" stroke-linejoin="round" stroke-linecap="round" stroke-width="0.1000" stroke="currentColor" x1="0.0500" y1="-0.0000" x2="74.2040" y2="-0.0000"/>
<line transform="translate(23.8907, 46.4406)" stroke-linejoin="round" stroke-linecap="round" stroke-width="0.1000" stroke="currentColor" x1="0.0500" y1="-0.0000" x2="74.2040" y2="-0.0000"/>
<line transform="translate(23.8907, 59.4406)" stroke-linejoin="round" stroke-linecap="round" stroke-width="0.1000" stroke="currentColor" x1="0.0500" y1="-0.0000" x2="74.2040" y2="-0.0000"/>
<line transform="translate(23.8907, 58.4406)" stroke-linejoin="round" stroke-linecap="round" stroke-width="0.1000" stroke="currentColor" x1="0.0500" y1="-0.0000" x2="74.2040" y2="-0.0000"/>
<line transform="translate(23.8907, 57.4406)" stroke-linejoin="round" stroke-linecap="round" stroke-width="0.1000" stroke="currentColor" x1="0.0500" y1="-0.0000" x2="74.2040" y2="-0.0000"/>
<line transform="translate(23.8907, 56.4406)" stroke-linejoin="round" stroke-linecap="round" stroke-width="0.1000" stroke="currentColor" x1="0.0500" y1="-0.0000" x2="74.2040" y2="-0.0000"/>
<line transform="translate(23.8907, 55.4406)" stroke-linejoin="round" stroke-linecap="round" stroke-width="0.1000" stroke="currentColor" x1="0.0500" y1="-0.0000" x2="74.2040" y2="-0.0000"/>
<rect transform="translate(70.6148, 48.4406)" x="-0.0650" y="2.1861" width="0.1300" height="3.3139" ry="0.0400" fill="currentColor"/>
<g color="rgb(73.3333%, 44.3137%, 91.3725%)">
<a style="color:inherit;" xlink:href="textedit://C:/Users/RCJacH/OneDrive/Documents/Coding/music/piano_textures/data/classical/liszt/transcendental_etudes/12_chasse_neige/12_chasse_neige.ly:122:27:28">
<path transform="translate(70.5498, 50.4406) scale(0.0040, -0.0040)" d="M218 136c55 0 108 -28 108 -89c0 -71 -55 -121 -102 -149c-35 -21 -75 -34 -116 -34c-55 0 -108 28 -108 89c0 71 55 121 102 149c35 21 75 34 116 34z" fill="currentColor"/>
</a>
</g>
<rect transform="translate(68.3605, 48.4406)" x="-0.0650" y="1.1861" width="0.1300" height="4.3139" ry="0.0400" fill="currentColor"/>
<g color="rgb(73.3333%, 44.3137%, 91.3725%)">
<a style="color:inherit;" xlink:href="textedit://C:/Users/RCJacH/OneDrive/Documents/Coding/music/piano_textures/data/classical/liszt/transcendental_etudes/12_chasse_neige/12_chasse_neige.ly:122:33:34">
<path transform="translate(68.2955, 49.4406) scale(0.0040, -0.0040)" d="M218 136c55 0 108 -28 108 -89c0 -71 -55 -121 -102 -149c-35 -21 -75 -34 -116 -34c-55 0 -108 28 -108 89c0 71 55 121 102 149c35 21 75 34 116 34z" fill="currentColor"/>
</a>
</g>
<path transform="translate(76.8624, 43.9806) scale(0.0040, -0.0040)" d="M0 0c0 -197 207 -336 207 -533c0 -71 -15 -141 -41 -207c-5 -8 -13 -12 -20 -12c-13 0 -26 11 -23 27c26 61 42 126 42 192c0 103 -94 208 -165 283h-16v250h16z" fill="currentColor"/>
<g color="rgb(73.3333%, 44.3137%, 91.3725%)">
<a style="color:inherit;" xlink:href="textedit://C:/Users/RCJacH/OneDrive/Documents/Coding/music/piano_textures/data/classical/liszt/transcendental_etudes/12_chasse_neige/12_chasse_neige.ly:122:33:34">
<path transform="translate(73.3040, 49.4406) scale(0.0040, -0.0040)" d="M218 136c55 0 108 -28 108 -89c0 -71 -55 -121 -102 -149c-35 -21 -75 -34 -116 -34c-55 0 -108 28 -108 89c0 71 55 121 102 149c35 21 75 34 116 34z" fill="currentColor"/>
</a>
</g>
<rect transform="translate(73.3690, 48.4406)" x="-0.0650" y="1.1861" width="0.1300" height="4.3139" ry="0.0400" fill="currentColor"/>
<g color="rgb(96.8627%, 34.1176%, 50.9804%)">
<a style="color:inherit;" xlink:href="textedit://C:/Users/RCJacH/OneDrive/Documents/Coding/music/piano_textures/data/classical/liszt/transcendental_etudes/12_chasse_neige/12_chasse_neige.ly:116:78:79">
<path transform="translate(75.5582, 46.9406) scale(0.0040, -0.0040)" d="M218 136c55 0 108 -28 108 -89c0 -71 -55 -121 -102 -149c-35 -21 -75 -34 -116 -34c-55 0 -108 28 -108 89c0 71 55 121 102 149c35 21 75 34 116 34z" fill="currentColor"/>
</a>
</g>
<g color="rgb(73.3333%, 44.3137%, 91.3725%)">
<a style="color:inherit;" xlink:href="textedit://C:/Users/RCJacH/OneDrive/Documents/Coding/music/piano_textures/data/classical/liszt/transcendental_etudes/12_chasse_neige/12_chasse_neige.ly:123:27:28">
<path transform="translate(75.5582, 50.4406) scale(0.0040, -0.0040)" d="M218 136c55 0 108 -28 108 -89c0 -71 -55 -121 -102 -149c-35 -21 -75 -34 -116 -34c-55 0 -108 28 -108 89c0 71 55 121 102 149c35 21 75 34 116 34z" fill="currentColor"/>
</a>
</g>
<rect transform="translate(76.7974, 48.4406)" x="-0.0650" y="-4.5000" width="0.1300" height="2.8139" ry="0.0400" fill="currentColor"/>
<polygon transform="translate(75.5582, 51.9356)" stroke-linejoin="round" stroke-linecap="round" stroke-width="0.0800" fill="currentColor" stroke="currentColor" points="20.1723 -0.1200 20.1723 0.1200 0.0400 0.1200 0.0400 -0.1200"/>
<polygon transform="translate(55.5245, 51.9356)" stroke-linejoin="round" stroke-linecap="round" stroke-width="0.0800" fill="currentColor" stroke="currentColor" points="17.8695 -0.1200 17.8695 0.1200 0.0400 0.1200 0.0400 -0.1200"/>
<polygon transform="translate(35.4908, 51.9356)" stroke-linejoin="round" stroke-linecap="round" stroke-width="0.0800" fill="currentColor" stroke="currentColor" points="17.8695 -0.1200 17.8695 0.1200 0.0400 0.1200 0.0400 -0.1200"/>
<polygon transform="translate(75.5582, 52.6040)" stroke-linejoin="round" stroke-linecap="round" stroke-width="0.0800" fill="currentColor" stroke="currentColor" points="20.1723 -0.1200 20.1723 0.1200 0.0400 0.1200 0.0400 -0.1200"/>
<polygon transform="translate(55.5245, 52.6040)" stroke-linejoin="round" stroke-linecap="round" stroke-width="0.0800" fill="currentColor" stroke="currentColor" points="17.8695 -0.1200 17.8695 0.1200 0.0400 0.1200 0.0400 -0.1200"/>
<polygon transform="translate(35.4908, 52.6040)" stroke-linejoin="round" stroke-linecap="round" stroke-width="0.0800" fill="currentColor" stroke="currentColor" points="17.8695 -0.1200 17.8695 0.1200 0.0400 0.1200 0.0400 -0.1200"/>
<polygon transform="translate(75.5582, 53.2723)" stroke-linejoin="round" stroke-linecap="round" stroke-width="0.0800" fill="currentColor" stroke="currentColor" points="20.1723 -0.1200 20.1723 0.1200 0.0400 0.1200 0.0400 -0.1200"/>
<polygon transform="translate(55.5245, 53.2723)" stroke-linejoin="round" stroke-linecap="round" stroke-width="0.0800" fill="currentColor" stroke="currentColor" points="17.8695 -0.1200 17.8695 0.1200 0.0400 0.1200 0.0400 -0.1200"/>
<polygon transform="translate(35.4908, 53.2723)" stroke-linejoin="round" stroke-linecap="round" stroke-width="0.0800" fill="currentColor" stroke="currentColor" points="17.8695 -0.1200 17.8695 0.1200 0.0400 0.1200 0.0400 -0.1200"/>
<polygon transform="translate(35.4908, 53.9406)" stroke-linejoin="round" stroke-linecap="round" stroke-width="0.0800" fill="currentColor" stroke="currentColor" points="60.2397 -0.1200 60.2397 0.1200 0.0400 0.1200 0.0400 -0.1200"/>
<g color="rgb(73.3333%, 44.3137%, 91.3725%)">
<a style="color:inherit;" xlink:href="textedit://C:/Users/RCJacH/OneDrive/Documents/Coding/music/piano_textures/data/classical/liszt/transcendental_etudes/12_chasse_neige/12_chasse_neige.ly:122:33:34">
<path transform="translate(58.2787, 49.4406) scale(0.0040, -0.0040)" d="M218 136c55 0 108 -28 108 -89c0 -71 -55 -121 -102 -149c-35 -21 -75 -34 -116 -34c-55 0 -108 28 -108 89c0 71 55 121 102 149c35 21 75 34 116 34z" fill="currentColor"/>
</a>
</g>
<rect transform="translate(58.3437, 48.4406)" x="-0.0650" y="1.1861" width="0.1300" height="4.3139" ry="0.0400" fill="currentColor"/>
<g color="rgb(73.3333%, 44.3137%, 91.3725%)">
<a style="color:inherit;" xlink:href="textedit://C:/Users/RCJacH/OneDrive/Documents/Coding/music/piano_textures/data/classical/liszt/transcendental_etudes/12_chasse_neige/12_chasse_neige.ly:122:27:28">
<path transform="translate(60.5329, 50.4406) scale(0.0040, -0.0040)" d="M218 136c55 0 108 -28 108 -89c0 -71 -55 -121 -102 -149c-35 -21 -75 -34 -116 -34c-55 0 -108 28 -108 89c0 71 55 121 102 149c35 21 75 34 116 34z" fill="currentColor"/>
</a>
</g>
<rect transform="translate(60.5979, 48.4406)" x="-0.0650" y="2.1861" width="0.1300" height="3.3139" ry="0.0400" fill="currentColor"/>
<g color="rgb(73.3333%, 44.3137%, 91.3725%)">
<a style="color:inherit;" xlink:href="textedit://C:/Users/RCJacH/OneDrive/Documents/Coding/music/piano_textures/data/classical/liszt/transcendental_etudes/12_chasse_neige/12_chasse_neige.ly:122:33:34">
<path transform="translate(63.2871, 49.4406) scale(0.0040, -0.0040)" d="M218 136c55 0 108 -28 108 -89c0 -71 -55 -121 -102 -149c-35 -21 -75 -34 -116 -34c-55 0 -108 28 -108 89c0 71 55 121 102 149c35 21 75 34 116 34z" fill="currentColor"/>
</a>
</g>
<rect transform="translate(63.3521, 48.4406)" x="-0.0650" y="1.1861" width="0.1300" height="4.3139" ry="0.0400" fill="currentColor"/>
<g color="rgb(73.3333%, 44.3137%, 91.3725%)">
<a style="color:inherit;" xlink:href="textedit://C:/Users/RCJacH/OneDrive/Documents/Coding/music/piano_textures/data/classical/liszt/transcendental_etudes/12_chasse_neige/12_chasse_neige.ly:122:27:28">
<path transform="translate(65.5413, 50.4406) scale(0.0040, -0.0040)" d="M218 136c55 0 108 -28 108 -89c0 -71 -55 -121 -102 -149c-35 -21 -75 -34 -116 -34c-55 0 -108 28 -108 89c0 71 55 121 102 149c35 21 75 34 116 34z" fill="currentColor"/>
</a>
</g>
<rect transform="translate(65.6063, 48.4406)" x="-0.0650" y="2.1861" width="0.1300" height="3.3139" ry="0.0400" fill="currentColor"/>
<g color="rgb(73.3333%, 44.3137%, 91.3725%)">
<a style="color:inherit;" xlink:href="textedit://C:/Users/RCJacH/OneDrive/Documents/Coding/music/piano_textures/data/classical/liszt/transcendental_etudes/12_chasse_neige/12_chasse_neige.ly:123:27:28">
<path transform="translate(87.2995, 50.4406) scale(0.0040, -0.0040)" d="M218 136c55 0 108 -28 108 -89c0 -71 -55 -121 -102 -149c-35 -21 -75 -34 -116 -34c-55 0 -108 28 -108 89c0 71 55 121 102 149c35 21 75 34 116 34z" fill="currentColor"/>
</a>
</g>
<rect transform="translate(87.3645, 48.4406)" x="-0.0650" y="2.1861" width="0.1300" height="3.3139" ry="0.0400" fill="currentColor"/>
<g color="rgb(73.3333%, 44.3137%, 91.3725%)">
<a style="color:inherit;" xlink:href="textedit://C:/Users/RCJacH/OneDrive/Documents/Coding/music/piano_textures/data/classical/liszt/transcendental_etudes/12_chasse_neige/12_chasse_neige.ly:123:32:33">
<path transform="translate(89.1037, 49.4406) scale(0.0040, -0.0040)" d="M218 136c55 0 108 -28 108 -89c0 -71 -55 -121 -102 -149c-35 -21 -75 -34 -116 -34c-55 0 -108 28 -108 89c0 71 55 121 102 149c35 21 75 34 116 34z" fill="currentColor"/>
</a>
</g>
<g color="rgb(73.3333%, 44.3137%, 91.3725%)">
<a style="color:inherit;" xlink:href="textedit://C:/Users/RCJacH/OneDrive/Documents/Coding/music/piano_textures/data/classical/liszt/transcendental_etudes/12_chasse_neige/12_chasse_neige.ly:123:36:37">
<path transform="translate(90.3429, 48.9406) scale(0.0040, -0.0040)" d="M218 136c55 0 108 -28 108 -89c0 -71 -55 -121 -102 -149c-35 -21 -75 -34 -116 -34c-55 0 -108 28 -108 89c0 71 55 121 102 149c35 21 75 34 116 34z" fill="currentColor"/>
</a>
</g>
<rect transform="translate(90.4079, 48.4406)" x="-0.0650" y="0.6861" width="0.1300" height="4.8139" ry="0.0400" fill="currentColor"/>
<g color="rgb(73.3333%, 44.3137%, 91.3725%)">
<a style="color:inherit;" xlink:href="textedit://C:/Users/RCJacH/OneDrive/Documents/Coding/music/piano_textures/data/classical/liszt/transcendental_etudes/12_chasse_neige/12_chasse_neige.ly:123:27:28">
<path transform="translate(92.5971, 50.4406) scale(0.0040, -0.0040)" d="M218 136c55 0 108 -28 108 -89c0 -71 -55 -121 -102 -149c-35 -21 -75 -34 -116 -34c-55 0 -108 28 -108 89c0 71 55 121 102 149c35 21 75 34 116 34z" fill="currentColor"/>
</a>
</g>
<rect transform="translate(92.6621, 48.4406)" x="-0.0650" y="2.1861" width="0.1300" height="3.3139" ry="0.0400" fill="currentColor"/>
<g color="rgb(73.3333%, 44.3137%, 91.3725%)">
<a style="color:inherit;" xlink:href="textedit://C:/Users/RCJacH/OneDrive/Documents/Coding/music/piano_textures/data/classical/liszt/transcendental_etudes/12_chasse_neige/12_chasse_neige.ly:123:32:33">
<path transform="translate(94.4013, 49.4406) scale(0.0040, -0.0040)" d="M218 136c55 0 108 -28 108 -89c0 -71 -55 -121 -102 -149c-35 -21 -75 -34 -116 -34c-55 0 -108 28 -108 89c0 71 55 121 102 149c35 21 75 34 116 34z" fill="currentColor"/>
</a>
</g>
<g color="rgb(73.3333%, 44.3137%, 91.3725%)">
<a style="color:inherit;" xlink:href="textedit://C:/Users/RCJacH/OneDrive/Documents/Coding/music/piano_textures/data/classical/liszt/transcendental_etudes/12_chasse_neige/12_chasse_neige.ly:123:36:37">
<path transform="translate(95.6405, 48.9406) scale(0.0040, -0.0040)" d="M218 136c55 0 108 -28 108 -89c0 -71 -55 -121 -102 -149c-35 -21 -75 -34 -116 -34c-55 0 -108 28 -108 89c0 71 55 121 102 149c35 21 75 34 116 34z" fill="currentColor"/>
</a>
</g>
<rect transform="translate(95.7055, 48.4406)" x="-0.0650" y="0.6861" width="0.1300" height="4.8139" ry="0.0400" fill="currentColor"/>
<rect transform="translate(75.6232, 48.4406)" x="-0.0650" y="2.1861" width="0.1300" height="3.3139" ry="0.0400" fill="currentColor"/>
<g color="rgb(73.3333%, 44.3137%, 91.3725%)">
<a style="color:inherit;" xlink:href="textedit://C:/Users/RCJacH/OneDrive/Documents/Coding/music/piano_textures/data/classical/liszt/transcendental_etudes/12_chasse_neige/12_chasse_neige.ly:123:32:33">
<path transform="translate(78.5084, 49.4406) scale(0.0040, -0.0040)" d="M218 136c55 0 108 -28 108 -89c0 -71 -55 -121 -102 -149c-35 -21 -75 -34 -116 -34c-55 0 -108 28 -108 89c0 71 55 121 102 149c35 21 75 34 116 34z" fill="currentColor"/>
</a>
</g>
<g color="rgb(73.3333%, 44.3137%, 91.3725%)">
<a style="color:inherit;" xlink:href="textedit://C:/Users/RCJacH/OneDrive/Documents/Coding/music/piano_textures/data/classical/liszt/transcendental_etudes/12_chasse_neige/12_chasse_neige.ly:123:36:37">
<path transform="translate(79.7476, 48.9406) scale(0.0040, -0.0040)" d="M218 136c55 0 108 -28 108 -89c0 -71 -55 -121 -102 -149c-35 -21 -75 -34 -116 -34c-55 0 -108 28 -108 89c0 71 55 121 102 149c35 21 75 34 116 34z" fill="currentColor"/>
</a>
</g>
<rect transform="translate(79.8126, 48.4406)" x="-0.0650" y="0.6861" width="0.1300" height="4.8139" ry="0.0400" fill="currentColor"/>
<path transform="translate(77.4624, 48.9406) scale(0.0040, -0.0040)" d="M-8 375c8 4 17 7 26 7s16 -3 24 -7l-2 -183l106 20h3c10 0 18 -7 18 -17l7 -570c-8 -4 -16 -7 -25 -7s-17 3 -25 7l3 183l-106 -20h-3c-10 0 -18 7 -18 17zM131 112l-92 -17l-3 -207l92 17z" fill="currentColor"/>
<g color="rgb(73.3333%, 44.3137%, 91.3725%)">
<a style="color:inherit;" xlink:href="textedit://C:/Users/RCJacH/OneDrive/Documents/Coding/music/piano_textures/data/classical/liszt/transcendental_etudes/12_chasse_neige/12_chasse_neige.ly:123:27:28">
<path transform="translate(82.0018, 50.4406) scale(0.0040, -0.0040)" d="M218 136c55 0 108 -28 108 -89c0 -71 -55 -121 -102 -149c-35 -21 -75 -34 -116 -34c-55 0 -108 28 -108 89c0 71 55 121 102 149c35 21 75 34 116 34z" fill="currentColor"/>
</a>
</g>
<rect transform="translate(82.0668, 48.4406)" x="-0.0650" y="2.1861" width="0.1300" height="3.3139" ry="0.0400" fill="currentColor"/>
<g color="rgb(73.3333%, 44.3137%, 91.3725%)">
<a style="color:inherit;" xlink:href="textedit://C:/Users/RCJacH/OneDrive/Documents/Coding/music/piano_textures/data/classical/liszt/transcendental_etudes/12_chasse_neige/12_chasse_neige.ly:123:32:33">
<path transform="translate(83.8060, 49.4406) scale(0.0040, -0.0040)" d="M218 136c55 0 108 -28 108 -89c0 -71 -55 -121 -102 -149c-35 -21 -75 -34 -116 -34c-55 0 -108 28 -108 89c0 71 55 121 102 149c35 21 75 34 116 34z" fill="currentColor"/>
</a>
</g>
<g color="rgb(73.3333%, 44.3137%, 91.3725%)">
<a style="color:inherit;" xlink:href="textedit://C:/Users/RCJacH/OneDrive/Documents/Coding/music/piano_textures/data/classical/liszt/transcendental_etudes/12_chasse_neige/12_chasse_neige.ly:123:36:37">
<path transform="translate(85.0452, 48.9406) scale(0.0040, -0.0040)" d="M218 136c55 0 108 -28 108 -89c0 -71 -55 -121 -102 -149c-35 -21 -75 -34 -116 -34c-55 0 -108 28 -108 89c0 71 55 121 102 149c35 21 75 34 116 34z" fill="currentColor"/>
</a>
</g>
<rect transform="translate(85.1102, 48.4406)" x="-0.0650" y="0.6861" width="0.1300" height="4.8139" ry="0.0400" fill="currentColor"/>
<g color="rgb(73.3333%, 44.3137%, 91.3725%)">
<a style="color:inherit;" xlink:href="textedit://C:/Users/RCJacH/OneDrive/Documents/Coding/music/piano_textures/data/classical/liszt/transcendental_etudes/12_chasse_neige/12_chasse_neige.ly:121:23:24">
<path transform="translate(38.2450, 49.4406) scale(0.0040, -0.0040)" d="M218 136c55 0 108 -28 108 -89c0 -71 -55 -121 -102 -149c-35 -21 -75 -34 -116 -34c-55 0 -108 28 -108 89c0 71 55 121 102 149c35 21 75 34 116 34z" fill="currentColor"/>
</a>
</g>
<path transform="translate(34.1908, 46.4406) scale(0.0040, -0.0040)" d="M42 278c-4 3 -6 8 -6 12c0 8 7 16 16 16c3 0 7 -1 10 -4l128 -107c8 -6 11 -13 11 -20c0 -24 -39 -51 -68 -78c-15 -14 -23 -34 -23 -53c0 -17 5 -33 17 -47l31 -25c4 -3 6 -8 6 -12c0 -8 -7 -16 -16 -16c-3 0 -7 1 -10 4l-128 107c-8 6 -11 13 -11 20c0 24 39 51 68 78
c15 14 23 34 23 53c0 17 -5 33 -17 47z" fill="currentColor"/>
<path transform="translate(34.1908, 47.4406) scale(0.0040, -0.0040)" d="M42 278c-4 3 -6 8 -6 12c0 8 7 16 16 16c3 0 7 -1 10 -4l128 -107c8 -6 11 -13 11 -20c0 -24 -39 -51 -68 -78c-15 -14 -23 -34 -23 -53c0 -17 5 -33 17 -47l31 -25c4 -3 6 -8 6 -12c0 -8 -7 -16 -16 -16c-3 0 -7 1 -10 4l-128 107c-8 6 -11 13 -11 20c0 24 39 51 68 78
c15 14 23 34 23 53c0 17 -5 33 -17 47z" fill="currentColor"/>
<path transform="translate(34.1908, 48.4406) scale(0.0040, -0.0040)" d="M42 278c-4 3 -6 8 -6 12c0 8 7 16 16 16c3 0 7 -1 10 -4l128 -107c8 -6 11 -13 11 -20c0 -24 -39 -51 -68 -78c-15 -14 -23 -34 -23 -53c0 -17 5 -33 17 -47l31 -25c4 -3 6 -8 6 -12c0 -8 -7 -16 -16 -16c-3 0 -7 1 -10 4l-128 107c-8 6 -11 13 -11 20c0 24 39 51 68 78
c15 14 23 34 23 53c0 17 -5 33 -17 47z" fill="currentColor"/>
<path transform="translate(34.1908, 49.4406) scale(0.0040, -0.0040)" d="M42 278c-4 3 -6 8 -6 12c0 8 7 16 16 16c3 0 7 -1 10 -4l128 -107c8 -6 11 -13 11 -20c0 -24 -39 -51 -68 -78c-15 -14 -23 -34 -23 -53c0 -17 5 -33 17 -47l31 -25c4 -3 6 -8 6 -12c0 -8 -7 -16 -16 -16c-3 0 -7 1 -10 4l-128 107c-8 6 -11 13 -11 20c0 24 39 51 68 78
c15 14 23 34 23 53c0 17 -5 33 -17 47z" fill="currentColor"/>
<path transform="translate(34.1908, 50.4406) scale(0.0040, -0.0040)" d="M42 278c-4 3 -6 8 -6 12c0 8 7 16 16 16c3 0 7 -1 10 -4l128 -107c8 -6 11 -13 11 -20c0 -24 -39 -51 -68 -78c-15 -14 -23 -34 -23 -53c0 -17 5 -33 17 -47l31 -25c4 -3 6 -8 6 -12c0 -8 -7 -16 -16 -16c-3 0 -7 1 -10 4l-128 107c-8 6 -11 13 -11 20c0 24 39 51 68 78
c15 14 23 34 23 53c0 17 -5 33 -17 47z" fill="currentColor"/>
<rect transform="translate(38.3100, 48.4406)" x="-0.0650" y="1.1861" width="0.1300" height="4.3139" ry="0.0400" fill="currentColor"/>
<g color="rgb(73.3333%, 44.3137%, 91.3725%)">
<a style="color:inherit;" xlink:href="textedit://C:/Users/RCJacH/OneDrive/Documents/Coding/music/piano_textures/data/classical/liszt/transcendental_etudes/12_chasse_neige/12_chasse_neige.ly:122:27:28">
<path transform="translate(40.4992, 50.4406) scale(0.0040, -0.0040)" d="M218 136c55 0 108 -28 108 -89c0 -71 -55 -121 -102 -149c-35 -21 -75 -34 -116 -34c-55 0 -108 28 -108 89c0 71 55 121 102 149c35 21 75 34 116 34z" fill="currentColor"/>
</a>
</g>
<rect transform="translate(40.5642, 48.4406)" x="-0.0650" y="2.1861" width="0.1300" height="3.3139" ry="0.0400" fill="currentColor"/>
<a style="color:inherit;" xlink:href="textedit://C:/Users/RCJacH/OneDrive/Documents/Coding/music/piano_textures/data/classical/liszt/transcendental_etudes/12_chasse_neige/12_chasse_neige.ly:113:6:7">
<path transform="translate(28.3107, 48.4406) scale(0.0040, -0.0040)" d="M27 41l-1 -66v-11c0 -22 1 -44 4 -66c45 38 93 80 93 139c0 33 -14 67 -43 67c-31 0 -52 -30 -53 -63zM-15 -138l-12 595c8 5 18 8 27 8s19 -3 27 -8l-7 -345c25 21 58 34 91 34c52 0 89 -48 89 -102c0 -80 -86 -117 -147 -169c-15 -13 -24 -38 -45 -38
c-13 0 -23 11 -23 25z" fill="currentColor"/>
<path transform="translate(29.2307, 46.9406) scale(0.0040, -0.0040)" d="M27 41l-1 -66v-11c0 -22 1 -44 4 -66c45 38 93 80 93 139c0 33 -14 67 -43 67c-31 0 -52 -30 -53 -63zM-15 -138l-12 595c8 5 18 8 27 8s19 -3 27 -8l-7 -345c25 21 58 34 91 34c52 0 89 -48 89 -102c0 -80 -86 -117 -147 -169c-15 -13 -24 -38 -45 -38
c-13 0 -23 11 -23 25z" fill="currentColor"/>
<path transform="translate(30.1508, 48.9406) scale(0.0040, -0.0040)" d="M27 41l-1 -66v-11c0 -22 1 -44 4 -66c45 38 93 80 93 139c0 33 -14 67 -43 67c-31 0 -52 -30 -53 -63zM-15 -138l-12 595c8 5 18 8 27 8s19 -3 27 -8l-7 -345c25 21 58 34 91 34c52 0 89 -48 89 -102c0 -80 -86 -117 -147 -169c-15 -13 -24 -38 -45 -38
c-13 0 -23 11 -23 25z" fill="currentColor"/>
<path transform="translate(31.0708, 47.4406) scale(0.0040, -0.0040)" d="M27 41l-1 -66v-11c0 -22 1 -44 4 -66c45 38 93 80 93 139c0 33 -14 67 -43 67c-31 0 -52 -30 -53 -63zM-15 -138l-12 595c8 5 18 8 27 8s19 -3 27 -8l-7 -345c25 21 58 34 91 34c52 0 89 -48 89 -102c0 -80 -86 -117 -147 -169c-15 -13 -24 -38 -45 -38
c-13 0 -23 11 -23 25z" fill="currentColor"/>
<path transform="translate(31.9908, 49.4406) scale(0.0040, -0.0040)" d="M27 41l-1 -66v-11c0 -22 1 -44 4 -66c45 38 93 80 93 139c0 33 -14 67 -43 67c-31 0 -52 -30 -53 -63zM-15 -138l-12 595c8 5 18 8 27 8s19 -3 27 -8l-7 -345c25 21 58 34 91 34c52 0 89 -48 89 -102c0 -80 -86 -117 -147 -169c-15 -13 -24 -38 -45 -38
c-13 0 -23 11 -23 25z" fill="currentColor"/>
</a>
<text transform="translate(9.1049, 53.4699)" font-family="serif" font-size="2.2001" text-anchor="start" fill="currentColor">
<tspan>Melody + a|a2 </tspan>
</text>
<path transform="translate(23.5307, 52.9406) scale(0.0040, -0.0040)" d="M-15 -498c0 -261 -102 -516 -102 -765c0 -135 30 -261 129 -360c3 -3 3 -9 3 -12c0 -9 -6 -18 -15 -18c-3 0 -9 3 -12 6c-132 135 -177 312 -177 501c0 267 108 528 108 780c0 135 -33 261 -129 360c-3 3 -3 3 -3 6s0 3 3 6c96 99 129 225 129 360
c0 252 -108 513 -108 780c0 189 45 366 177 501c3 3 9 6 12 6c9 0 15 -9 15 -18c0 -3 0 -9 -3 -12c-99 -99 -129 -225 -129 -360c0 -249 102 -504 102 -765c0 -186 -45 -363 -174 -498c129 -135 174 -312 174 -498z" fill="currentColor"/>
<rect transform="translate(23.8307, 52.9406)" x="0.0000" y="-6.5500" width="0.1600" height="13.1000" ry="0.0500" fill="currentColor"/>
<g color="rgb(96.8627%, 34.1176%, 50.9804%)">
<a style="color:inherit;" xlink:href="textedit://C:/Users/RCJacH/OneDrive/Documents/Coding/music/piano_textures/data/classical/liszt/transcendental_etudes/12_chasse_neige/12_chasse_neige.ly:116:62:63">
<path transform="translate(35.4908, 45.9406) scale(0.0040, -0.0040)" d="M218 136c55 0 108 -28 108 -89c0 -71 -55 -121 -102 -149c-35 -21 -75 -34 -116 -34c-55 0 -108 28 -108 89c0 71 55 121 102 149c35 21 75 34 116 34z" fill="currentColor"/>
</a>
</g>
<g color="rgb(73.3333%, 44.3137%, 91.3725%)">
<a style="color:inherit;" xlink:href="textedit://C:/Users/RCJacH/OneDrive/Documents/Coding/music/piano_textures/data/classical/liszt/transcendental_etudes/12_chasse_neige/12_chasse_neige.ly:121:8:9">
<path transform="translate(35.4908, 50.4406) scale(0.0040, -0.0040)" d="M218 136c55 0 108 -28 108 -89c0 -71 -55 -121 -102 -149c-35 -21 -75 -34 -116 -34c-55 0 -108 28 -108 89c0 71 55 121 102 149c35 21 75 34 116 34z" fill="currentColor"/>
</a>
</g>
<path transform="translate(24.6907, 49.4406) scale(0.0040, -0.0040)" d="M376 262c4 0 9 1 13 1c155 0 256 -128 256 -261c0 -76 -33 -154 -107 -210c-22 -17 -47 -28 -73 -36c3 -35 5 -70 5 -105c0 -19 -1 -39 -2 -58c-7 -120 -90 -228 -208 -228c-108 0 -195 88 -195 197c0 58 53 103 112 103c54 0 95 -47 95 -103c0 -52 -43 -95 -95 -95
c-11 0 -21 2 -31 6c26 -39 68 -65 117 -65c96 0 157 92 163 191c1 18 2 37 2 55c0 31 -1 61 -4 92c-29 -5 -58 -8 -89 -8c-188 0 -333 172 -333 374c0 177 131 306 248 441c-19 62 -37 125 -45 190c-6 52 -7 104 -7 156c0 115 55 224 149 292c3 2 7 3 10 3c4 0 7 0 10 -3
c71 -84 133 -245 133 -358c0 -143 -86 -255 -180 -364c21 -68 39 -138 56 -207zM461 -203c68 24 113 95 113 164c0 90 -66 179 -173 190c24 -116 46 -231 60 -354zM74 28c0 -135 129 -247 264 -247c28 0 55 2 82 6c-14 127 -37 245 -63 364c-79 -8 -124 -61 -124 -119
c0 -44 25 -91 81 -123c5 -5 7 -10 7 -15c0 -11 -10 -22 -22 -22c-3 0 -6 1 -9 2c-80 43 -117 115 -117 185c0 88 58 174 160 197c-14 58 -29 117 -46 175c-107 -121 -213 -243 -213 -403zM408 1045c-99 -48 -162 -149 -162 -259c0 -74 18 -133 36 -194
c80 97 146 198 146 324c0 55 -4 79 -20 129z" fill="currentColor"/>
<path transform="translate(24.6907, 56.4406) scale(0.0040, -0.0040)" d="M557 -125c0 28 23 51 51 51s51 -23 51 -51s-23 -51 -51 -51s-51 23 -51 51zM557 125c0 28 23 51 51 51s51 -23 51 -51s-23 -51 -51 -51s-51 23 -51 51zM232 263c172 0 293 -88 293 -251c0 -263 -263 -414 -516 -521c-3 -3 -6 -4 -9 -4c-7 0 -13 6 -13 13c0 3 1 6 4 9
c202 118 412 265 412 493c0 120 -63 235 -171 235c-74 0 -129 -54 -154 -126c11 5 22 8 34 8c55 0 100 -45 100 -100c0 -58 -44 -106 -100 -106c-60 0 -112 47 -112 106c0 133 102 244 232 244z" fill="currentColor"/>
<a style="color:inherit;" xlink:href="textedit://C:/Users/RCJacH/OneDrive/Documents/Coding/music/piano_textures/data/classical/liszt/transcendental_etudes/12_chasse_neige/12_chasse_neige.ly:113:6:7">
<path transform="translate(28.3107, 58.4406) scale(0.0040, -0.0040)" d="M27 41l-1 -66v-11c0 -22 1 -44 4 -66c45 38 93 80 93 139c0 33 -14 67 -43 67c-31 0 -52 -30 -53 -63zM-15 -138l-12 595c8 5 18 8 27 8s19 -3 27 -8l-7 -345c25 21 58 34 91 34c52 0 89 -48 89 -102c0 -80 -86 -117 -147 -169c-15 -13 -24 -38 -45 -38
c-13 0 -23 11 -23 25z" fill="currentColor"/>
<path transform="translate(29.2307, 56.9406) scale(0.0040, -0.0040)" d="M27 41l-1 -66v-11c0 -22 1 -44 4 -66c45 38 93 80 93 139c0 33 -14 67 -43 67c-31 0 -52 -30 -53 -63zM-15 -138l-12 595c8 5 18 8 27 8s19 -3 27 -8l-7 -345c25 21 58 34 91 34c52 0 89 -48 89 -102c0 -80 -86 -117 -147 -169c-15 -13 -24 -38 -45 -38
c-13 0 -23 11 -23 25z" fill="currentColor"/>
<path transform="translate(30.1508, 58.9406) scale(0.0040, -0.0040)" d="M27 41l-1 -66v-11c0 -22 1 -44 4 -66c45 38 93 80 93 139c0 33 -14 67 -43 67c-31 0 -52 -30 -53 -63zM-15 -138l-12 595c8 5 18 8 27 8s19 -3 27 -8l-7 -345c25 21 58 34 91 34c52 0 89 -48 89 -102c0 -80 -86 -117 -147 -169c-15 -13 -24 -38 -45 -38
c-13 0 -23 11 -23 25z" fill="currentColor"/>
<path transform="translate(31.0708, 57.4406) scale(0.0040, -0.0040)" d="M27 41l-1 -66v-11c0 -22 1 -44 4 -66c45 38 93 80 93 139c0 33 -14 67 -43 67c-31 0 -52 -30 -53 -63zM-15 -138l-12 595c8 5 18 8 27 8s19 -3 27 -8l-7 -345c25 21 58 34 91 34c52 0 89 -48 89 -102c0 -80 -86 -117 -147 -169c-15 -13 -24 -38 -45 -38
c-13 0 -23 11 -23 25z" fill="currentColor"/>
<path transform="translate(31.9908, 59.4406) scale(0.0040, -0.0040)" d="M27 41l-1 -66v-11c0 -22 1 -44 4 -66c45 38 93 80 93 139c0 33 -14 67 -43 67c-31 0 -52 -30 -53 -63zM-15 -138l-12 595c8 5 18 8 27 8s19 -3 27 -8l-7 -345c25 21 58 34 91 34c52 0 89 -48 89 -102c0 -80 -86 -117 -147 -169c-15 -13 -24 -38 -45 -38
c-13 0 -23 11 -23 25z" fill="currentColor"/>
</a>
<text transform="translate(23.0030, 45.3565)" font-family="serif" font-size="1.7461" text-anchor="start" fill="currentColor">
<tspan>3</tspan>
</text>
<rect transform="translate(36.7300, 48.4406)" x="-0.0650" y="-5.5000" width="0.1300" height="2.8139" ry="0.0400" fill="currentColor"/>
<path transform="translate(36.7950, 42.9806) scale(0.0040, -0.0040)" d="M0 0c0 -197 207 -336 207 -533c0 -71 -15 -141 -41 -207c-5 -8 -13 -12 -20 -12c-13 0 -26 11 -23 27c26 61 42 126 42 192c0 103 -94 208 -165 283h-16v250h16z" fill="currentColor"/>
<rect transform="translate(35.5558, 48.4406)" x="-0.0650" y="2.1861" width="0.1300" height="3.3139" ry="0.0400" fill="currentColor"/>
<rect transform="translate(50.5811, 48.4406)" x="-0.0650" y="2.1861" width="0.1300" height="3.3139" ry="0.0400" fill="currentColor"/>
<g color="rgb(73.3333%, 44.3137%, 91.3725%)">
<a style="color:inherit;" xlink:href="textedit://C:/Users/RCJacH/OneDrive/Documents/Coding/music/piano_textures/data/classical/liszt/transcendental_etudes/12_chasse_neige/12_chasse_neige.ly:122:33:34">
<path transform="translate(53.2703, 49.4406) scale(0.0040, -0.0040)" d="M218 136c55 0 108 -28 108 -89c0 -71 -55 -121 -102 -149c-35 -21 -75 -34 -116 -34c-55 0 -108 28 -108 89c0 71 55 121 102 149c35 21 75 34 116 34z" fill="currentColor"/>
</a>
</g>
<rect transform="translate(53.3353, 48.4406)" x="-0.0650" y="1.1861" width="0.1300" height="4.3139" ry="0.0400" fill="currentColor"/>
<g color="rgb(73.3333%, 44.3137%, 91.3725%)">
<a style="color:inherit;" xlink:href="textedit://C:/Users/RCJacH/OneDrive/Documents/Coding/music/piano_textures/data/classical/liszt/transcendental_etudes/12_chasse_neige/12_chasse_neige.ly:122:27:28">
<path transform="translate(50.5161, 50.4406) scale(0.0040, -0.0040)" d="M218 136c55 0 108 -28 108 -89c0 -71 -55 -121 -102 -149c-35 -21 -75 -34 -116 -34c-55 0 -108 28 -108 89c0 71 55 121 102 149c35 21 75 34 116 34z" fill="currentColor"/>
</a>
</g>
<g color="rgb(96.8627%, 34.1176%, 50.9804%)">
<a style="color:inherit;" xlink:href="textedit://C:/Users/RCJacH/OneDrive/Documents/Coding/music/piano_textures/data/classical/liszt/transcendental_etudes/12_chasse_neige/12_chasse_neige.ly:116:76:77">
<path transform="translate(55.5245, 46.4406) scale(0.0040, -0.0040)" d="M218 136c55 0 108 -28 108 -89c0 -71 -55 -121 -102 -149c-35 -21 -75 -34 -116 -34c-55 0 -108 28 -108 89c0 71 55 121 102 149c35 21 75 34 116 34z" fill="currentColor"/>
</a>
</g>
<g color="rgb(73.3333%, 44.3137%, 91.3725%)">
<a style="color:inherit;" xlink:href="textedit://C:/Users/RCJacH/OneDrive/Documents/Coding/music/piano_textures/data/classical/liszt/transcendental_etudes/12_chasse_neige/12_chasse_neige.ly:122:27:28">
<path transform="translate(55.5245, 50.4406) scale(0.0040, -0.0040)" d="M218 136c55 0 108 -28 108 -89c0 -71 -55 -121 -102 -149c-35 -21 -75 -34 -116 -34c-55 0 -108 28 -108 89c0 71 55 121 102 149c35 21 75 34 116 34z" fill="currentColor"/>
</a>
</g>
<rect transform="translate(56.7637, 48.4406)" x="-0.0650" y="-5.0000" width="0.1300" height="2.8139" ry="0.0400" fill="currentColor"/>
<path transform="translate(56.8287, 43.4806) scale(0.0040, -0.0040)" d="M0 0c0 -197 207 -336 207 -533c0 -71 -15 -141 -41 -207c-5 -8 -13 -12 -20 -12c-13 0 -26 11 -23 27c26 61 42 126 42 192c0 103 -94 208 -165 283h-16v250h16z" fill="currentColor"/>
<rect transform="translate(55.5895, 48.4406)" x="-0.0650" y="2.1861" width="0.1300" height="3.3139" ry="0.0400" fill="currentColor"/>
<rect transform="translate(45.5726, 48.4406)" x="-0.0650" y="2.1861" width="0.1300" height="3.3139" ry="0.0400" fill="currentColor"/>
<g color="rgb(73.3333%, 44.3137%, 91.3725%)">
<a style="color:inherit;" xlink:href="textedit://C:/Users/RCJacH/OneDrive/Documents/Coding/music/piano_textures/data/classical/liszt/transcendental_etudes/12_chasse_neige/12_chasse_neige.ly:122:27:28">
<path transform="translate(45.5076, 50.4406) scale(0.0040, -0.0040)" d="M218 136c55 0 108 -28 108 -89c0 -71 -55 -121 -102 -149c-35 -21 -75 -34 -116 -34c-55 0 -108 28 -108 89c0 71 55 121 102 149c35 21 75 34 116 34z" fill="currentColor"/>
</a>
</g>
<rect transform="translate(43.3184, 48.4406)" x="-0.0650" y="1.1861" width="0.1300" height="4.3139" ry="0.0400" fill="currentColor"/>
<g color="rgb(73.3333%, 44.3137%, 91.3725%)">
<a style="color:inherit;" xlink:href="textedit://C:/Users/RCJacH/OneDrive/Documents/Coding/music/piano_textures/data/classical/liszt/transcendental_etudes/12_chasse_neige/12_chasse_neige.ly:122:33:34">
<path transform="translate(43.2534, 49.4406) scale(0.0040, -0.0040)" d="M218 136c55 0 108 -28 108 -89c0 -71 -55 -121 -102 -149c-35 -21 -75 -34 -116 -34c-55 0 -108 28 -108 89c0 71 55 121 102 149c35 21 75 34 116 34z" fill="currentColor"/>
</a>
</g>
<g color="rgb(73.3333%, 44.3137%, 91.3725%)">
<a style="color:inherit;" xlink:href="textedit://C:/Users/RCJacH/OneDrive/Documents/Coding/music/piano_textures/data/classical/liszt/transcendental_etudes/12_chasse_neige/12_chasse_neige.ly:122:33:34">
<path transform="translate(48.2618, 49.4406) scale(0.0040, -0.0040)" d="M218 136c55 0 108 -28 108 -89c0 -71 -55 -121 -102 -149c-35 -21 -75 -34 -116 -34c-55 0 -108 28 -108 89c0 71 55 121 102 149c35 21 75 34 116 34z" fill="currentColor"/>
</a>
</g>
<rect transform="translate(48.3268, 48.4406)" x="-0.0650" y="1.1861" width="0.1300" height="4.3139" ry="0.0400" fill="currentColor"/>
<text transform="translate(23.8907, 63.0771)" font-family="serif" font-size="2.2001" text-anchor="start" fill="currentColor">
<tspan>Use arpeggio to extend range.</tspan>
</text>
<line transform="translate(23.8907, 76.0801)" stroke-linejoin="round" stroke-linecap="round" stroke-width="0.1000" stroke="currentColor" x1="0.0500" y1="-0.0000" x2="49.4632" y2="-0.0000"/>
<line transform="translate(23.8907, 75.0801)" stroke-linejoin="round" stroke-linecap="round" stroke-width="0.1000" stroke="currentColor" x1="0.0500" y1="-0.0000" x2="49.4632" y2="-0.0000"/>
<line transform="translate(23.8907, 74.0801)" stroke-linejoin="round" stroke-linecap="round" stroke-width="0.1000" stroke="currentColor" x1="0.0500" y1="-0.0000" x2="49.4632" y2="-0.0000"/>
<line transform="translate(23.8907, 73.0801)" stroke-linejoin="round" stroke-linecap="round" stroke-width="0.1000" stroke="currentColor" x1="0.0500" y1="-0.0000" x2="49.4632" y2="-0.0000"/>
<line transform="translate(23.8907, 72.0801)" stroke-linejoin="round" stroke-linecap="round" stroke-width="0.1000" stroke="currentColor" x1="0.0500" y1="-0.0000" x2="49.4632" y2="-0.0000"/>
<rect transform="translate(23.8907, 71.0801)" x="36.1661" y="-0.1000" width="1.9563" height="0.2000" ry="0.1000" fill="currentColor"/>
<rect transform="translate(23.8907, 70.0801)" x="23.3950" y="-0.1000" width="1.9563" height="0.2000" ry="0.1000" fill="currentColor"/>
<rect transform="translate(23.8907, 71.0801)" x="23.3950" y="-0.1000" width="1.9563" height="0.2000" ry="0.1000" fill="currentColor"/>
<rect transform="translate(23.8907, 70.0801)" x="10.8740" y="-0.1000" width="1.9563" height="0.2000" ry="0.1000" fill="currentColor"/>
<rect transform="translate(23.8907, 71.0801)" x="10.8740" y="-0.1000" width="1.9563" height="0.2000" ry="0.1000" fill="currentColor"/>
<line transform="translate(23.8907, 85.0801)" stroke-linejoin="round" stroke-linecap="round" stroke-width="0.1000" stroke="currentColor" x1="0.0500" y1="-0.0000" x2="49.4632" y2="-0.0000"/>
<line transform="translate(23.8907, 84.0801)" stroke-linejoin="round" stroke-linecap="round" stroke-width="0.1000" stroke="currentColor" x1="0.0500" y1="-0.0000" x2="49.4632" y2="-0.0000"/>
<line transform="translate(23.8907, 83.0801)" stroke-linejoin="round" stroke-linecap="round" stroke-width="0.1000" stroke="currentColor" x1="0.0500" y1="-0.0000" x2="49.4632" y2="-0.0000"/>
<line transform="translate(23.8907, 82.0801)" stroke-linejoin="round" stroke-linecap="round" stroke-width="0.1000" stroke="currentColor" x1="0.0500" y1="-0.0000" x2="49.4632" y2="-0.0000"/>
<line transform="translate(23.8907, 81.0801)" stroke-linejoin="round" stroke-linecap="round" stroke-width="0.1000" stroke="currentColor" x1="0.0500" y1="-0.0000" x2="49.4632" y2="-0.0000"/>
<g color="rgb(73.3333%, 44.3137%, 91.3725%)">
<a style="color:inherit;" xlink:href="textedit://C:/Users/RCJacH/OneDrive/Documents/Coding/music/piano_textures/data/classical/liszt/transcendental_etudes/12_chasse_neige/12_chasse_neige.ly:151:35:36">
<path transform="translate(58.1286, 71.5801) scale(0.0040, -0.0040)" d="M218 136c55 0 108 -28 108 -89c0 -71 -55 -121 -102 -149c-35 -21 -75 -34 -116 -34c-55 0 -108 28 -108 89c0 71 55 121 102 149c35 21 75 34 116 34z" fill="currentColor"/>
</a>
</g>
<rect transform="translate(58.1936, 74.0801)" x="-0.0650" y="-2.3139" width="0.1300" height="3.8200" ry="0.0400" fill="currentColor"/>
<g color="rgb(96.8627%, 34.1176%, 50.9804%)">
<a style="color:inherit;" xlink:href="textedit://C:/Users/RCJacH/OneDrive/Documents/Coding/music/piano_textures/data/classical/liszt/transcendental_etudes/12_chasse_neige/12_chasse_neige.ly:145:28:29">
<path transform="translate(60.3829, 74.0801) scale(0.0040, -0.0040)" d="M218 136c55 0 108 -28 108 -89c0 -71 -55 -121 -102 -149c-35 -21 -75 -34 -116 -34c-55 0 -108 28 -108 89c0 71 55 121 102 149c35 21 75 34 116 34z" fill="currentColor"/>
</a>
</g>
<g color="rgb(96.8627%, 34.1176%, 50.9804%)">
<a style="color:inherit;" xlink:href="textedit://C:/Users/RCJacH/OneDrive/Documents/Coding/music/piano_textures/data/classical/liszt/transcendental_etudes/12_chasse_neige/12_chasse_neige.ly:145:32:33">
<path transform="translate(60.3829, 70.5801) scale(0.0040, -0.0040)" d="M218 136c55 0 108 -28 108 -89c0 -71 -55 -121 -102 -149c-35 -21 -75 -34 -116 -34c-55 0 -108 28 -108 89c0 71 55 121 102 149c35 21 75 34 116 34z" fill="currentColor"/>
</a>
</g>
<g color="rgb(73.3333%, 44.3137%, 91.3725%)">
<a style="color:inherit;" xlink:href="textedit://C:/Users/RCJacH/OneDrive/Documents/Coding/music/piano_textures/data/classical/liszt/transcendental_etudes/12_chasse_neige/12_chasse_neige.ly:152:10:11">
<path transform="translate(60.3829, 74.0801) scale(0.0040, -0.0040)" d="M218 136c55 0 108 -28 108 -89c0 -71 -55 -121 -102 -149c-35 -21 -75 -34 -116 -34c-55 0 -108 28 -108 89c0 71 55 121 102 149c35 21 75 34 116 34z" fill="currentColor"/>
</a>
</g>
<rect transform="translate(61.6221, 74.0801)" x="-0.0650" y="-6.5000" width="0.1300" height="6.3139" ry="0.0400" fill="currentColor"/>
<path transform="translate(61.6871, 67.6201) scale(0.0040, -0.0040)" d="M0 0c0 -197 207 -336 207 -533c0 -71 -15 -141 -41 -207c-5 -8 -13 -12 -20 -12c-13 0 -26 11 -23 27c26 61 42 126 42 192c0 103 -94 208 -165 283h-16v250h16z" fill="currentColor"/>
<a style="color:inherit;" xlink:href="textedit://C:/Users/RCJacH/OneDrive/Documents/Coding/music/piano_textures/data/classical/liszt/transcendental_etudes/12_chasse_neige/12_chasse_neige.ly:149:8:9">
</a>
<g color="rgb(73.3333%, 44.3137%, 91.3725%)">
<a style="color:inherit;" xlink:href="textedit://C:/Users/RCJacH/OneDrive/Documents/Coding/music/piano_textures/data/classical/liszt/transcendental_etudes/12_chasse_neige/12_chasse_neige.ly:151:31:32">
<path transform="translate(50.3660, 72.5801) scale(0.0040, -0.0040)" d="M218 136c55 0 108 -28 108 -89c0 -71 -55 -121 -102 -149c-35 -21 -75 -34 -116 -34c-55 0 -108 28 -108 89c0 71 55 121 102 149c35 21 75 34 116 34z" fill="currentColor"/>
</a>
</g>
<rect transform="translate(50.4310, 74.0801)" x="-0.0650" y="-1.3139" width="0.1300" height="3.5491" ry="0.0400" fill="currentColor"/>
<g color="rgb(73.3333%, 44.3137%, 91.3725%)">
<a style="color:inherit;" xlink:href="textedit://C:/Users/RCJacH/OneDrive/Documents/Coding/music/piano_textures/data/classical/liszt/transcendental_etudes/12_chasse_neige/12_chasse_neige.ly:151:35:36">
<path transform="translate(53.1202, 71.5801) scale(0.0040, -0.0040)" d="M218 136c55 0 108 -28 108 -89c0 -71 -55 -121 -102 -149c-35 -21 -75 -34 -116 -34c-55 0 -108 28 -108 89c0 71 55 121 102 149c35 21 75 34 116 34z" fill="currentColor"/>
</a>
</g>
<rect transform="translate(53.1852, 74.0801)" x="-0.0650" y="-2.3139" width="0.1300" height="4.2904" ry="0.0400" fill="currentColor"/>
<g color="rgb(73.3333%, 44.3137%, 91.3725%)">
<a style="color:inherit;" xlink:href="textedit://C:/Users/RCJacH/OneDrive/Documents/Coding/music/piano_textures/data/classical/liszt/transcendental_etudes/12_chasse_neige/12_chasse_neige.ly:151:31:32">
<path transform="translate(55.3744, 72.5801) scale(0.0040, -0.0040)" d="M218 136c55 0 108 -28 108 -89c0 -71 -55 -121 -102 -149c-35 -21 -75 -34 -116 -34c-55 0 -108 28 -108 89c0 71 55 121 102 149c35 21 75 34 116 34z" fill="currentColor"/>
</a>
</g>
<rect transform="translate(55.4394, 74.0801)" x="-0.0650" y="-1.3139" width="0.1300" height="3.0787" ry="0.0400" fill="currentColor"/>
<rect transform="translate(68.2105, 74.0801)" x="-0.0650" y="-1.3139" width="0.1300" height="3.5269" ry="0.0400" fill="currentColor"/>
<g color="rgb(73.3333%, 44.3137%, 91.3725%)">
<a style="color:inherit;" xlink:href="textedit://C:/Users/RCJacH/OneDrive/Documents/Coding/music/piano_textures/data/classical/liszt/transcendental_etudes/12_chasse_neige/12_chasse_neige.ly:152:37:38">
<path transform="translate(70.8997, 71.5801) scale(0.0040, -0.0040)" d="M218 136c55 0 108 -28 108 -89c0 -71 -55 -121 -102 -149c-35 -21 -75 -34 -116 -34c-55 0 -108 28 -108 89c0 71 55 121 102 149c35 21 75 34 116 34z" fill="currentColor"/>
</a>
</g>
<rect transform="translate(70.9647, 74.0801)" x="-0.0650" y="-2.3139" width="0.1300" height="4.2113" ry="0.0400" fill="currentColor"/>
<g color="rgb(73.3333%, 44.3137%, 91.3725%)">
<a style="color:inherit;" xlink:href="textedit://C:/Users/RCJacH/OneDrive/Documents/Coding/music/piano_textures/data/classical/liszt/transcendental_etudes/12_chasse_neige/12_chasse_neige.ly:152:33:34">
<path transform="translate(68.1455, 72.5801) scale(0.0040, -0.0040)" d="M218 136c55 0 108 -28 108 -89c0 -71 -55 -121 -102 -149c-35 -21 -75 -34 -116 -34c-55 0 -108 28 -108 89c0 71 55 121 102 149c35 21 75 34 116 34z" fill="currentColor"/>
</a>
</g>
<polygon transform="translate(60.3829, 75.9351)" stroke-linejoin="round" stroke-linecap="round" stroke-width="0.0800" fill="currentColor" stroke="currentColor" points="10.6068 -1.3400 10.6068 -1.1000 0.0400 0.1200 0.0400 -0.1200"/>
<polygon transform="translate(60.3829, 76.5626)" stroke-linejoin="round" stroke-linecap="round" stroke-width="0.0800" fill="currentColor" stroke="currentColor" points="10.6068 -1.3400 10.6068 -1.1000 0.0400 0.1200 0.0400 -0.1200"/>
<polygon transform="translate(60.3829, 77.1901)" stroke-linejoin="round" stroke-linecap="round" stroke-width="0.0800" fill="currentColor" stroke="currentColor" points="10.6068 -1.3400 10.6068 -1.1000 0.0400 0.1200 0.0400 -0.1200"/>
<polygon transform="translate(47.6118, 75.3251)" stroke-linejoin="round" stroke-linecap="round" stroke-width="0.0800" fill="currentColor" stroke="currentColor" points="10.6068 -1.1200 10.6068 -0.8800 0.0400 0.1200 0.0400 -0.1200"/>
<polygon transform="translate(47.6118, 75.9526)" stroke-linejoin="round" stroke-linecap="round" stroke-width="0.0800" fill="currentColor" stroke="currentColor" points="10.6068 -1.1200 10.6068 -0.8800 0.0400 0.1200 0.0400 -0.1200"/>
<polygon transform="translate(47.6118, 76.5801)" stroke-linejoin="round" stroke-linecap="round" stroke-width="0.0800" fill="currentColor" stroke="currentColor" points="10.6068 -1.1200 10.6068 -0.8800 0.0400 0.1200 0.0400 -0.1200"/>
<a style="color:inherit;" xlink:href="textedit://C:/Users/RCJacH/OneDrive/Documents/Coding/music/piano_textures/data/classical/liszt/transcendental_etudes/12_chasse_neige/12_chasse_neige.ly:149:8:9">
<text transform="translate(65.2624, 78.4108)" font-family="serif" font-style="italic" font-size="1.7461" text-anchor="start" fill="currentColor">
<tspan>5</tspan>
</text>
</a>
<a style="color:inherit;" xlink:href="textedit://C:/Users/RCJacH/OneDrive/Documents/Coding/music/piano_textures/data/classical/liszt/transcendental_etudes/12_chasse_neige/12_chasse_neige.ly:149:8:9">
</a>
<polygon transform="translate(35.0907, 74.9351)" stroke-linejoin="round" stroke-linecap="round" stroke-width="0.0800" fill="currentColor" stroke="currentColor" points="10.3568 -0.7300 10.3568 -0.4900 0.0400 0.1200 0.0400 -0.1200"/>
<polygon transform="translate(35.0907, 75.5626)" stroke-linejoin="round" stroke-linecap="round" stroke-width="0.0800" fill="currentColor" stroke="currentColor" points="10.3568 -0.7300 10.3568 -0.4900 0.0400 0.1200 0.0400 -0.1200"/>
<polygon transform="translate(35.0907, 76.1901)" stroke-linejoin="round" stroke-linecap="round" stroke-width="0.0800" fill="currentColor" stroke="currentColor" points="10.3568 -0.7300 10.3568 -0.4900 0.0400 0.1200 0.0400 -0.1200"/>
<a style="color:inherit;" xlink:href="textedit://C:/Users/RCJacH/OneDrive/Documents/Coding/music/piano_textures/data/classical/liszt/transcendental_etudes/12_chasse_neige/12_chasse_neige.ly:149:8:9">
<text transform="translate(52.4914, 77.9095)" font-family="serif" font-style="italic" font-size="1.7461" text-anchor="start" fill="currentColor">
<tspan>5</tspan>
</text>
</a>
<a style="color:inherit;" xlink:href="textedit://C:/Users/RCJacH/OneDrive/Documents/Coding/music/piano_textures/data/classical/liszt/transcendental_etudes/12_chasse_neige/12_chasse_neige.ly:149:8:9">
</a>
<a style="color:inherit;" xlink:href="textedit://C:/Users/RCJacH/OneDrive/Documents/Coding/music/piano_textures/data/classical/liszt/transcendental_etudes/12_chasse_neige/12_chasse_neige.ly:149:8:9">
<text transform="translate(39.8453, 77.7122)" font-family="serif" font-style="italic" font-size="1.7461" text-anchor="start" fill="currentColor">
<tspan>5</tspan>
</text>
</a>
<g color="rgb(73.3333%, 44.3137%, 91.3725%)">
<a style="color:inherit;" xlink:href="textedit://C:/Users/RCJacH/OneDrive/Documents/Coding/music/piano_textures/data/classical/liszt/transcendental_etudes/12_chasse_neige/12_chasse_neige.ly:152:33:34">
<path transform="translate(63.1371, 72.5801) scale(0.0040, -0.0040)" d="M218 136c55 0 108 -28 108 -89c0 -71 -55 -121 -102 -149c-35 -21 -75 -34 -116 -34c-55 0 -108 28 -108 89c0 71 55 121 102 149c35 21 75 34 116 34z" fill="currentColor"/>
</a>
</g>
<rect transform="translate(63.2021, 74.0801)" x="-0.0650" y="-1.3139" width="0.1300" height="4.1008" ry="0.0400" fill="currentColor"/>
<rect transform="translate(60.4479, 74.0801)" x="-0.0650" y="0.1861" width="0.1300" height="2.9164" ry="0.0400" fill="currentColor"/>
<g color="rgb(73.3333%, 44.3137%, 91.3725%)">
<a style="color:inherit;" xlink:href="textedit://C:/Users/RCJacH/OneDrive/Documents/Coding/music/piano_textures/data/classical/liszt/transcendental_etudes/12_chasse_neige/12_chasse_neige.ly:152:37:38">
<path transform="translate(65.8913, 71.5801) scale(0.0040, -0.0040)" d="M218 136c55 0 108 -28 108 -89c0 -71 -55 -121 -102 -149c-35 -21 -75 -34 -116 -34c-55 0 -108 28 -108 89c0 71 55 121 102 149c35 21 75 34 116 34z" fill="currentColor"/>
</a>
</g>
<rect transform="translate(65.9563, 74.0801)" x="-0.0650" y="-2.3139" width="0.1300" height="4.7852" ry="0.0400" fill="currentColor"/>
<rect transform="translate(35.1557, 74.0801)" x="-0.0650" y="-0.8139" width="0.1300" height="2.9201" ry="0.0400" fill="currentColor"/>
<path transform="translate(36.3949, 66.6201) scale(0.0040, -0.0040)" d="M0 0c0 -197 207 -336 207 -533c0 -71 -15 -141 -41 -207c-5 -8 -13 -12 -20 -12c-13 0 -26 11 -23 27c26 61 42 126 42 192c0 103 -94 208 -165 283h-16v250h16z" fill="currentColor"/>
<g color="rgb(73.3333%, 44.3137%, 91.3725%)">
<a style="color:inherit;" xlink:href="textedit://C:/Users/RCJacH/OneDrive/Documents/Coding/music/piano_textures/data/classical/liszt/transcendental_etudes/12_chasse_neige/12_chasse_neige.ly:150:35:36">
<path transform="translate(37.5949, 72.5801) scale(0.0040, -0.0040)" d="M218 136c55 0 108 -28 108 -89c0 -71 -55 -121 -102 -149c-35 -21 -75 -34 -116 -34c-55 0 -108 28 -108 89c0 71 55 121 102 149c35 21 75 34 116 34z" fill="currentColor"/>
</a>
</g>
<rect transform="translate(37.6599, 74.0801)" x="-0.0650" y="-1.3139" width="0.1300" height="3.2732" ry="0.0400" fill="currentColor"/>
<g color="rgb(96.8627%, 34.1176%, 50.9804%)">
<a style="color:inherit;" xlink:href="textedit://C:/Users/RCJacH/OneDrive/Documents/Coding/music/piano_textures/data/classical/liszt/transcendental_etudes/12_chasse_neige/12_chasse_neige.ly:145:13:14">
<path transform="translate(35.0907, 69.5801) scale(0.0040, -0.0040)" d="M218 136c55 0 108 -28 108 -89c0 -71 -55 -121 -102 -149c-35 -21 -75 -34 -116 -34c-55 0 -108 28 -108 89c0 71 55 121 102 149c35 21 75 34 116 34z" fill="currentColor"/>
</a>
</g>
<text transform="translate(11.6315, 79.1093)" font-family="serif" font-size="2.2001" text-anchor="start" fill="currentColor">
<tspan>Melody + a </tspan>
</text>
<path transform="translate(23.5307, 78.5801) scale(0.0040, -0.0040)" d="M-15 -498c0 -261 -102 -516 -102 -765c0 -135 30 -261 129 -360c3 -3 3 -9 3 -12c0 -9 -6 -18 -15 -18c-3 0 -9 3 -12 6c-132 135 -177 312 -177 501c0 267 108 528 108 780c0 135 -33 261 -129 360c-3 3 -3 3 -3 6s0 3 3 6c96 99 129 225 129 360
c0 252 -108 513 -108 780c0 189 45 366 177 501c3 3 9 6 12 6c9 0 15 -9 15 -18c0 -3 0 -9 -3 -12c-99 -99 -129 -225 -129 -360c0 -249 102 -504 102 -765c0 -186 -45 -363 -174 -498c129 -135 174 -312 174 -498z" fill="currentColor"/>
<rect transform="translate(23.8307, 78.5801)" x="0.0000" y="-6.5500" width="0.1600" height="13.1000" ry="0.0500" fill="currentColor"/>
<g color="rgb(96.8627%, 34.1176%, 50.9804%)">
<a style="color:inherit;" xlink:href="textedit://C:/Users/RCJacH/OneDrive/Documents/Coding/music/piano_textures/data/classical/liszt/transcendental_etudes/12_chasse_neige/12_chasse_neige.ly:145:9:10">
<path transform="translate(35.0907, 73.0801) scale(0.0040, -0.0040)" d="M218 136c55 0 108 -28 108 -89c0 -71 -55 -121 -102 -149c-35 -21 -75 -34 -116 -34c-55 0 -108 28 -108 89c0 71 55 121 102 149c35 21 75 34 116 34z" fill="currentColor"/>
</a>
</g>
<rect transform="translate(47.6768, 74.0801)" x="-0.0650" y="-0.3139" width="0.1300" height="2.8078" ry="0.0400" fill="currentColor"/>
<g color="rgb(73.3333%, 44.3137%, 91.3725%)">
<a style="color:inherit;" xlink:href="textedit://C:/Users/RCJacH/OneDrive/Documents/Coding/music/piano_textures/data/classical/liszt/transcendental_etudes/12_chasse_neige/12_chasse_neige.ly:150:10:11">
<path transform="translate(35.0907, 73.0801) scale(0.0040, -0.0040)" d="M218 136c55 0 108 -28 108 -89c0 -71 -55 -121 -102 -149c-35 -21 -75 -34 -116 -34c-55 0 -108 28 -108 89c0 71 55 121 102 149c35 21 75 34 116 34z" fill="currentColor"/>
</a>
</g>
<path transform="translate(24.6907, 73.0801) scale(0.0040, -0.0040)" d="M557 -125c0 28 23 51 51 51s51 -23 51 -51s-23 -51 -51 -51s-51 23 -51 51zM557 125c0 28 23 51 51 51s51 -23 51 -51s-23 -51 -51 -51s-51 23 -51 51zM232 263c172 0 293 -88 293 -251c0 -263 -263 -414 -516 -521c-3 -3 -6 -4 -9 -4c-7 0 -13 6 -13 13c0 3 1 6 4 9
c202 118 412 265 412 493c0 120 -63 235 -171 235c-74 0 -129 -54 -154 -126c11 5 22 8 34 8c55 0 100 -45 100 -100c0 -58 -44 -106 -100 -106c-60 0 -112 47 -112 106c0 133 102 244 232 244z" fill="currentColor"/>
<a style="color:inherit;" xlink:href="textedit://C:/Users/RCJacH/OneDrive/Documents/Coding/music/piano_textures/data/classical/liszt/transcendental_etudes/12_chasse_neige/12_chasse_neige.ly:137:6:7">
<path transform="translate(28.1907, 73.0801) scale(0.0040, -0.0040)" d="M216 -312c0 -10 -8 -19 -18 -19s-19 9 -19 19v145l-83 -31v-158c0 -10 -9 -19 -19 -19s-18 9 -18 19v145l-32 -12c-2 -1 -5 -1 -7 -1c-11 0 -20 9 -20 20v60c0 8 5 16 13 19l46 16v160l-32 -11c-2 -1 -5 -1 -7 -1c-11 0 -20 9 -20 20v60c0 8 5 15 13 18l46 17v158
c0 10 8 19 18 19s19 -9 19 -19v-145l83 31v158c0 10 9 19 19 19s18 -9 18 -19v-145l32 12c2 1 5 1 7 1c11 0 20 -9 20 -20v-60c0 -8 -5 -16 -13 -19l-46 -16v-160l32 11c2 1 5 1 7 1c11 0 20 -9 20 -20v-60c0 -8 -5 -15 -13 -18l-46 -17v-158zM96 65v-160l83 30v160z" fill="currentColor"/>
<path transform="translate(29.2907, 74.5801) scale(0.0040, -0.0040)" d="M216 -312c0 -10 -8 -19 -18 -19s-19 9 -19 19v145l-83 -31v-158c0 -10 -9 -19 -19 -19s-18 9 -18 19v145l-32 -12c-2 -1 -5 -1 -7 -1c-11 0 -20 9 -20 20v60c0 8 5 16 13 19l46 16v160l-32 -11c-2 -1 -5 -1 -7 -1c-11 0 -20 9 -20 20v60c0 8 5 15 13 18l46 17v158
c0 10 8 19 18 19s19 -9 19 -19v-145l83 31v158c0 10 9 19 19 19s18 -9 18 -19v-145l32 12c2 1 5 1 7 1c11 0 20 -9 20 -20v-60c0 -8 -5 -16 -13 -19l-46 -16v-160l32 11c2 1 5 1 7 1c11 0 20 -9 20 -20v-60c0 -8 -5 -15 -13 -18l-46 -17v-158zM96 65v-160l83 30v160z" fill="currentColor"/>
<path transform="translate(30.3907, 72.5801) scale(0.0040, -0.0040)" d="M216 -312c0 -10 -8 -19 -18 -19s-19 9 -19 19v145l-83 -31v-158c0 -10 -9 -19 -19 -19s-18 9 -18 19v145l-32 -12c-2 -1 -5 -1 -7 -1c-11 0 -20 9 -20 20v60c0 8 5 16 13 19l46 16v160l-32 -11c-2 -1 -5 -1 -7 -1c-11 0 -20 9 -20 20v60c0 8 5 15 13 18l46 17v158
c0 10 8 19 18 19s19 -9 19 -19v-145l83 31v158c0 10 9 19 19 19s18 -9 18 -19v-145l32 12c2 1 5 1 7 1c11 0 20 -9 20 -20v-60c0 -8 -5 -16 -13 -19l-46 -16v-160l32 11c2 1 5 1 7 1c11 0 20 -9 20 -20v-60c0 -8 -5 -15 -13 -18l-46 -17v-158zM96 65v-160l83 30v160z" fill="currentColor"/>
<path transform="translate(31.4907, 74.0801) scale(0.0040, -0.0040)" d="M216 -312c0 -10 -8 -19 -18 -19s-19 9 -19 19v145l-83 -31v-158c0 -10 -9 -19 -19 -19s-18 9 -18 19v145l-32 -12c-2 -1 -5 -1 -7 -1c-11 0 -20 9 -20 20v60c0 8 5 16 13 19l46 16v160l-32 -11c-2 -1 -5 -1 -7 -1c-11 0 -20 9 -20 20v60c0 8 5 15 13 18l46 17v158
c0 10 8 19 18 19s19 -9 19 -19v-145l83 31v158c0 10 9 19 19 19s18 -9 18 -19v-145l32 12c2 1 5 1 7 1c11 0 20 -9 20 -20v-60c0 -8 -5 -16 -13 -19l-46 -16v-160l32 11c2 1 5 1 7 1c11 0 20 -9 20 -20v-60c0 -8 -5 -15 -13 -18l-46 -17v-158zM96 65v-160l83 30v160z" fill="currentColor"/>
</a>
<path transform="translate(24.6907, 82.0801) scale(0.0040, -0.0040)" d="M557 -125c0 28 23 51 51 51s51 -23 51 -51s-23 -51 -51 -51s-51 23 -51 51zM557 125c0 28 23 51 51 51s51 -23 51 -51s-23 -51 -51 -51s-51 23 -51 51zM232 263c172 0 293 -88 293 -251c0 -263 -263 -414 -516 -521c-3 -3 -6 -4 -9 -4c-7 0 -13 6 -13 13c0 3 1 6 4 9
c202 118 412 265 412 493c0 120 -63 235 -171 235c-74 0 -129 -54 -154 -126c11 5 22 8 34 8c55 0 100 -45 100 -100c0 -58 -44 -106 -100 -106c-60 0 -112 47 -112 106c0 133 102 244 232 244z" fill="currentColor"/>
<a style="color:inherit;" xlink:href="textedit://C:/Users/RCJacH/OneDrive/Documents/Coding/music/piano_textures/data/classical/liszt/transcendental_etudes/12_chasse_neige/12_chasse_neige.ly:137:6:7">
<path transform="translate(28.1907, 82.0801) scale(0.0040, -0.0040)" d="M216 -312c0 -10 -8 -19 -18 -19s-19 9 -19 19v145l-83 -31v-158c0 -10 -9 -19 -19 -19s-18 9 -18 19v145l-32 -12c-2 -1 -5 -1 -7 -1c-11 0 -20 9 -20 20v60c0 8 5 16 13 19l46 16v160l-32 -11c-2 -1 -5 -1 -7 -1c-11 0 -20 9 -20 20v60c0 8 5 15 13 18l46 17v158
c0 10 8 19 18 19s19 -9 19 -19v-145l83 31v158c0 10 9 19 19 19s18 -9 18 -19v-145l32 12c2 1 5 1 7 1c11 0 20 -9 20 -20v-60c0 -8 -5 -16 -13 -19l-46 -16v-160l32 11c2 1 5 1 7 1c11 0 20 -9 20 -20v-60c0 -8 -5 -15 -13 -18l-46 -17v-158zM96 65v-160l83 30v160z" fill="currentColor"/>
<path transform="translate(29.2907, 83.5801) scale(0.0040, -0.0040)" d="M216 -312c0 -10 -8 -19 -18 -19s-19 9 -19 19v145l-83 -31v-158c0 -10 -9 -19 -19 -19s-18 9 -18 19v145l-32 -12c-2 -1 -5 -1 -7 -1c-11 0 -20 9 -20 20v60c0 8 5 16 13 19l46 16v160l-32 -11c-2 -1 -5 -1 -7 -1c-11 0 -20 9 -20 20v60c0 8 5 15 13 18l46 17v158
c0 10 8 19 18 19s19 -9 19 -19v-145l83 31v158c0 10 9 19 19 19s18 -9 18 -19v-145l32 12c2 1 5 1 7 1c11 0 20 -9 20 -20v-60c0 -8 -5 -16 -13 -19l-46 -16v-160l32 11c2 1 5 1 7 1c11 0 20 -9 20 -20v-60c0 -8 -5 -15 -13 -18l-46 -17v-158zM96 65v-160l83 30v160z" fill="currentColor"/>
<path transform="translate(30.3907, 81.5801) scale(0.0040, -0.0040)" d="M216 -312c0 -10 -8 -19 -18 -19s-19 9 -19 19v145l-83 -31v-158c0 -10 -9 -19 -19 -19s-18 9 -18 19v145l-32 -12c-2 -1 -5 -1 -7 -1c-11 0 -20 9 -20 20v60c0 8 5 16 13 19l46 16v160l-32 -11c-2 -1 -5 -1 -7 -1c-11 0 -20 9 -20 20v60c0 8 5 15 13 18l46 17v158
c0 10 8 19 18 19s19 -9 19 -19v-145l83 31v158c0 10 9 19 19 19s18 -9 18 -19v-145l32 12c2 1 5 1 7 1c11 0 20 -9 20 -20v-60c0 -8 -5 -16 -13 -19l-46 -16v-160l32 11c2 1 5 1 7 1c11 0 20 -9 20 -20v-60c0 -8 -5 -15 -13 -18l-46 -17v-158zM96 65v-160l83 30v160z" fill="currentColor"/>
<path transform="translate(31.4907, 83.0801) scale(0.0040, -0.0040)" d="M216 -312c0 -10 -8 -19 -18 -19s-19 9 -19 19v145l-83 -31v-158c0 -10 -9 -19 -19 -19s-18 9 -18 19v145l-32 -12c-2 -1 -5 -1 -7 -1c-11 0 -20 9 -20 20v60c0 8 5 16 13 19l46 16v160l-32 -11c-2 -1 -5 -1 -7 -1c-11 0 -20 9 -20 20v60c0 8 5 15 13 18l46 17v158
c0 10 8 19 18 19s19 -9 19 -19v-145l83 31v158c0 10 9 19 19 19s18 -9 18 -19v-145l32 12c2 1 5 1 7 1c11 0 20 -9 20 -20v-60c0 -8 -5 -16 -13 -19l-46 -16v-160l32 11c2 1 5 1 7 1c11 0 20 -9 20 -20v-60c0 -8 -5 -15 -13 -18l-46 -17v-158zM96 65v-160l83 30v160z" fill="currentColor"/>
</a>
<text transform="translate(22.1153, 70.9960)" font-family="serif" font-size="1.7461" text-anchor="start" fill="currentColor">
<tspan>25</tspan>
</text>
<rect transform="translate(36.3299, 74.0801)" x="-0.0650" y="-7.5000" width="0.1300" height="6.3139" ry="0.0400" fill="currentColor"/>
<g color="rgb(73.3333%, 44.3137%, 91.3725%)">
<a style="color:inherit;" xlink:href="textedit://C:/Users/RCJacH/OneDrive/Documents/Coding/music/piano_textures/data/classical/liszt/transcendental_etudes/12_chasse_neige/12_chasse_neige.ly:150:39:40">
<path transform="translate(45.3576, 71.5801) scale(0.0040, -0.0040)" d="M218 136c55 0 108 -28 108 -89c0 -71 -55 -121 -102 -149c-35 -21 -75 -34 -116 -34c-55 0 -108 28 -108 89c0 71 55 121 102 149c35 21 75 34 116 34z" fill="currentColor"/>
</a>
</g>
<rect transform="translate(45.4226, 74.0801)" x="-0.0650" y="-2.3139" width="0.1300" height="3.8177" ry="0.0400" fill="currentColor"/>
<g color="rgb(96.8627%, 34.1176%, 50.9804%)">
<a style="color:inherit;" xlink:href="textedit://C:/Users/RCJacH/OneDrive/Documents/Coding/music/piano_textures/data/classical/liszt/transcendental_etudes/12_chasse_neige/12_chasse_neige.ly:145:21:22">
<path transform="translate(47.6118, 73.5801) scale(0.0040, -0.0040)" d="M218 136c55 0 108 -28 108 -89c0 -71 -55 -121 -102 -149c-35 -21 -75 -34 -116 -34c-55 0 -108 28 -108 89c0 71 55 121 102 149c35 21 75 34 116 34z" fill="currentColor"/>
</a>
</g>
<g color="rgb(96.8627%, 34.1176%, 50.9804%)">
<a style="color:inherit;" xlink:href="textedit://C:/Users/RCJacH/OneDrive/Documents/Coding/music/piano_textures/data/classical/liszt/transcendental_etudes/12_chasse_neige/12_chasse_neige.ly:145:23:24">
<path transform="translate(47.6118, 70.0801) scale(0.0040, -0.0040)" d="M218 136c55 0 108 -28 108 -89c0 -71 -55 -121 -102 -149c-35 -21 -75 -34 -116 -34c-55 0 -108 28 -108 89c0 71 55 121 102 149c35 21 75 34 116 34z" fill="currentColor"/>
</a>
</g>
<g color="rgb(73.3333%, 44.3137%, 91.3725%)">
<a style="color:inherit;" xlink:href="textedit://C:/Users/RCJacH/OneDrive/Documents/Coding/music/piano_textures/data/classical/liszt/transcendental_etudes/12_chasse_neige/12_chasse_neige.ly:151:10:11">
<path transform="translate(47.6118, 73.5801) scale(0.0040, -0.0040)" d="M218 136c55 0 108 -28 108 -89c0 -71 -55 -121 -102 -149c-35 -21 -75 -34 -116 -34c-55 0 -108 28 -108 89c0 71 55 121 102 149c35 21 75 34 116 34z" fill="currentColor"/>
</a>
</g>
<rect transform="translate(48.8510, 74.0801)" x="-0.0650" y="-7.0000" width="0.1300" height="6.3139" ry="0.0400" fill="currentColor"/>
<path transform="translate(48.9160, 67.1201) scale(0.0040, -0.0040)" d="M0 0c0 -197 207 -336 207 -533c0 -71 -15 -141 -41 -207c-5 -8 -13 -12 -20 -12c-13 0 -26 11 -23 27c26 61 42 126 42 192c0 103 -94 208 -165 283h-16v250h16z" fill="currentColor"/>
<g color="rgb(73.3333%, 44.3137%, 91.3725%)">
<a style="color:inherit;" xlink:href="textedit://C:/Users/RCJacH/OneDrive/Documents/Coding/music/piano_textures/data/classical/liszt/transcendental_etudes/12_chasse_neige/12_chasse_neige.ly:150:39:40">
<path transform="translate(40.3492, 71.5801) scale(0.0040, -0.0040)" d="M218 136c55 0 108 -28 108 -89c0 -71 -55 -121 -102 -149c-35 -21 -75 -34 -116 -34c-55 0 -108 28 -108 89c0 71 55 121 102 149c35 21 75 34 116 34z" fill="currentColor"/>
</a>
</g>
<rect transform="translate(40.4142, 74.0801)" x="-0.0650" y="-2.3139" width="0.1300" height="4.1116" ry="0.0400" fill="currentColor"/>
<rect transform="translate(42.6684, 74.0801)" x="-0.0650" y="-1.3139" width="0.1300" height="2.9793" ry="0.0400" fill="currentColor"/>
<g color="rgb(73.3333%, 44.3137%, 91.3725%)">
<a style="color:inherit;" xlink:href="textedit://C:/Users/RCJacH/OneDrive/Documents/Coding/music/piano_textures/data/classical/liszt/transcendental_etudes/12_chasse_neige/12_chasse_neige.ly:150:35:36">
<path transform="translate(42.6034, 72.5801) scale(0.0040, -0.0040)" d="M218 136c55 0 108 -28 108 -89c0 -71 -55 -121 -102 -149c-35 -21 -75 -34 -116 -34c-55 0 -108 28 -108 89c0 71 55 121 102 149c35 21 75 34 116 34z" fill="currentColor"/>
</a>
</g>
<text transform="translate(23.8907, 88.2032)" font-family="serif" font-size="2.2001" text-anchor="start" fill="currentColor">
<tspan>Tuplets with optional doublings is also possible.</tspan>
</text>
</svg>
