<svg xmlns="http://www.w3.org/2000/svg" xmlns:xlink="http://www.w3.org/1999/xlink" version="1.2" width="210.00mm" height="297.00mm" viewBox="0 0 119.5016 169.0094">
<style text="style/css">
<![CDATA[
tspan { white-space: pre; }
]]>
</style>
<!-- Page: 4/4 -->
<text transform="translate(110.3967, 2.8453)" font-family="serif" font-size="2.2001" text-anchor="start" fill="currentColor">
<tspan/>
</text>
<text transform="translate(43.1742, 6.9523)" font-family="serif" font-weight="bold" font-size="3.4927" text-anchor="start" fill="currentColor">
<tspan>Transcendante Études</tspan>
</text>
<text transform="translate(55.3292, 9.9523)" font-family="serif" font-size="2.4696" text-anchor="start" fill="currentColor">
<tspan>6. Vision</tspan>
</text>
<text transform="translate(9.1049, 15.9523)" font-family="serif" font-weight="bold" font-size="2.4696" text-anchor="start" fill="currentColor">
<tspan>5-part Combinations</tspan>
</text>
<text transform="translate(96.7394, 15.9523)" font-family="serif" font-weight="bold" font-size="2.7719" text-anchor="start" fill="currentColor">
<tspan>Franz Liszt</tspan>
</text>
<text transform="translate(101.0414, 18.9523)" font-family="serif" font-size="2.2001" text-anchor="start" fill="currentColor">
<tspan>S.139</tspan>
</text>
<line transform="translate(40.5245, 32.0456)" stroke-linejoin="round" stroke-linecap="round" stroke-width="0.1000" stroke="currentColor" x1="0.0500" y1="-0.0000" x2="47.0888" y2="-0.0000"/>
<line transform="translate(40.5245, 31.0456)" stroke-linejoin="round" stroke-linecap="round" stroke-width="0.1000" stroke="currentColor" x1="0.0500" y1="-0.0000" x2="47.0888" y2="-0.0000"/>
<line transform="translate(40.5245, 30.0456)" stroke-linejoin="round" stroke-linecap="round" stroke-width="0.1000" stroke="currentColor" x1="0.0500" y1="-0.0000" x2="47.0888" y2="-0.0000"/>
<line transform="translate(40.5245, 29.0456)" stroke-linejoin="round" stroke-linecap="round" stroke-width="0.1000" stroke="currentColor" x1="0.0500" y1="-0.0000" x2="47.0888" y2="-0.0000"/>
<line transform="translate(40.5245, 28.0456)" stroke-linejoin="round" stroke-linecap="round" stroke-width="0.1000" stroke="currentColor" x1="0.0500" y1="-0.0000" x2="47.0888" y2="-0.0000"/>
<line transform="translate(40.5245, 43.4873)" stroke-linejoin="round" stroke-linecap="round" stroke-width="0.1000" stroke="currentColor" x1="0.0500" y1="-0.0000" x2="47.0888" y2="-0.0000"/>
<line transform="translate(40.5245, 42.4873)" stroke-linejoin="round" stroke-linecap="round" stroke-width="0.1000" stroke="currentColor" x1="0.0500" y1="-0.0000" x2="47.0888" y2="-0.0000"/>
<line transform="translate(40.5245, 41.4873)" stroke-linejoin="round" stroke-linecap="round" stroke-width="0.1000" stroke="currentColor" x1="0.0500" y1="-0.0000" x2="47.0888" y2="-0.0000"/>
<line transform="translate(40.5245, 40.4873)" stroke-linejoin="round" stroke-linecap="round" stroke-width="0.1000" stroke="currentColor" x1="0.0500" y1="-0.0000" x2="47.0888" y2="-0.0000"/>
<line transform="translate(40.5245, 39.4873)" stroke-linejoin="round" stroke-linecap="round" stroke-width="0.1000" stroke="currentColor" x1="0.0500" y1="-0.0000" x2="47.0888" y2="-0.0000"/>
<rect transform="translate(40.5245, 38.4873)" x="38.3060" y="-0.1000" width="1.9563" height="0.2000" ry="0.1000" fill="currentColor"/>
<rect transform="translate(40.5245, 44.4873)" x="28.8034" y="-0.1000" width="1.9563" height="0.2000" ry="0.1000" fill="currentColor"/>
<rect transform="translate(40.5245, 45.4873)" x="28.8034" y="-0.1000" width="1.9563" height="0.2000" ry="0.1000" fill="currentColor"/>
<rect transform="translate(40.5245, 38.4873)" x="8.6740" y="-0.1000" width="1.9563" height="0.2000" ry="0.1000" fill="currentColor"/>
<rect transform="translate(40.5245, 26.0456)" x="19.5366" y="-0.1000" width="1.9563" height="0.2000" ry="0.1000" fill="currentColor"/>
<rect transform="translate(40.5245, 27.0456)" x="19.5366" y="-0.1000" width="1.9563" height="0.2000" ry="0.1000" fill="currentColor"/>
<a style="color:inherit;" xlink:href="textedit://C:/Users/RCJacH/OneDrive/Documents/Coding/music/piano_textures/data/classical/liszt/transcendental_etudes/6_vision/6_vision.ly:291:74:75">
<path transform="translate(69.6540, 32.0456) scale(0.0040, -0.0040)" d="M72 -250l117 326c-34 -12 -69 -22 -105 -22c-46 0 -87 33 -87 79c0 40 33 72 73 72c25 0 48 -15 56 -39c10 -28 6 -59 35 -59c16 0 54 48 61 63c6 12 23 12 28 0l-123 -420c-8 -7 -17 -10 -27 -10s-20 3 -28 10z" fill="currentColor"/>
</a>
<a style="color:inherit;" xlink:href="textedit://C:/Users/RCJacH/OneDrive/Documents/Coding/music/piano_textures/data/classical/liszt/transcendental_etudes/6_vision/6_vision.ly:296:52:53">
<path transform="translate(69.6540, 37.9873) scale(0.0040, -0.0040)" d="M54 -500l86 327c-35 -13 -71 -23 -108 -23c-46 0 -87 33 -87 79c0 40 32 72 72 72c25 0 49 -15 57 -39c10 -28 5 -59 34 -59c17 0 54 54 59 71l39 149c-34 -12 -70 -23 -106 -23c-46 0 -87 33 -87 79c0 40 33 72 73 72c25 0 48 -15 56 -39c10 -28 5 -59 34 -59
c16 0 52 51 56 68l40 151c-33 -12 -68 -22 -103 -22c-46 0 -87 33 -87 79c0 40 32 72 72 72c25 0 49 -15 57 -39c10 -28 5 -59 34 -59c15 0 46 49 52 63c6 12 23 12 28 0l-216 -920c-8 -7 -18 -10 -28 -10s-19 3 -27 10z" fill="currentColor"/>
</a>
<g color="rgb(44.3137%, 61.1765%, 96.0784%)">
<a style="color:inherit;" xlink:href="textedit://C:/Users/RCJacH/OneDrive/Documents/Coding/music/piano_textures/data/classical/liszt/transcendental_etudes/6_vision/6_vision.ly:297:38:39">
<path transform="translate(69.6540, 45.9873) scale(0.0040, -0.0040)" d="M218 136c55 0 108 -28 108 -89c0 -71 -55 -121 -102 -149c-35 -21 -75 -34 -116 -34c-55 0 -108 28 -108 89c0 71 55 121 102 149c35 21 75 34 116 34z" fill="currentColor"/>
</a>
</g>
<g color="rgb(73.3333%, 44.3137%, 91.3725%)">
<a style="color:inherit;" xlink:href="textedit://C:/Users/RCJacH/OneDrive/Documents/Coding/music/piano_textures/data/classical/liszt/transcendental_etudes/6_vision/6_vision.ly:291:59:60">
<path transform="translate(62.6414, 28.0456) scale(0.0040, -0.0040)" d="M218 136c55 0 108 -28 108 -89c0 -71 -55 -121 -102 -149c-35 -21 -75 -34 -116 -34c-55 0 -108 28 -108 89c0 71 55 121 102 149c35 21 75 34 116 34z" fill="currentColor"/>
</a>
</g>
<rect transform="translate(69.7190, 41.4873)" x="-0.0650" y="4.6861" width="0.1300" height="2.8139" ry="0.0400" fill="currentColor"/>
<path transform="translate(69.7840, 48.9473) scale(0.0040, -0.0040)" d="M0 0h-16v250h16c97 59 224 148 224 259c0 57 -15 112 -40 163c-3 16 10 27 23 27c7 0 15 -3 20 -11c25 -56 40 -117 40 -179c0 -203 -267 -306 -267 -509z" fill="currentColor"/>
<a style="color:inherit;" xlink:href="textedit://C:/Users/RCJacH/OneDrive/Documents/Coding/music/piano_textures/data/classical/liszt/transcendental_etudes/6_vision/6_vision.ly:296:38:39">
</a>
<rect transform="translate(62.7064, 30.0456)" x="-0.0650" y="-1.8139" width="0.1300" height="6.8139" ry="0.0400" fill="currentColor"/>
<g color="rgb(73.3333%, 44.3137%, 91.3725%)">
<a style="color:inherit;" xlink:href="textedit://C:/Users/RCJacH/OneDrive/Documents/Coding/music/piano_textures/data/classical/liszt/transcendental_etudes/6_vision/6_vision.ly:291:65:66">
<path transform="translate(64.8956, 29.0456) scale(0.0040, -0.0040)" d="M218 136c55 0 108 -28 108 -89c0 -71 -55 -121 -102 -149c-35 -21 -75 -34 -116 -34c-55 0 -108 28 -108 89c0 71 55 121 102 149c35 21 75 34 116 34z" fill="currentColor"/>
</a>
</g>
<rect transform="translate(64.9606, 30.0456)" x="-0.0650" y="-0.8139" width="0.1300" height="5.8139" ry="0.0400" fill="currentColor"/>
<g color="rgb(73.3333%, 44.3137%, 91.3725%)">
<a style="color:inherit;" xlink:href="textedit://C:/Users/RCJacH/OneDrive/Documents/Coding/music/piano_textures/data/classical/liszt/transcendental_etudes/6_vision/6_vision.ly:291:69:70">
<path transform="translate(67.1498, 31.5456) scale(0.0040, -0.0040)" d="M218 136c55 0 108 -28 108 -89c0 -71 -55 -121 -102 -149c-35 -21 -75 -34 -116 -34c-55 0 -108 28 -108 89c0 71 55 121 102 149c35 21 75 34 116 34z" fill="currentColor"/>
</a>
</g>
<rect transform="translate(67.2148, 30.0456)" x="-0.0650" y="1.6861" width="0.1300" height="3.3139" ry="0.0400" fill="currentColor"/>
<g color="rgb(73.3333%, 44.3137%, 91.3725%)">
<a style="color:inherit;" xlink:href="textedit://C:/Users/RCJacH/OneDrive/Documents/Coding/music/piano_textures/data/classical/liszt/transcendental_etudes/6_vision/6_vision.ly:296:70:71">
<path transform="translate(84.6611, 42.4873) scale(0.0040, -0.0040)" d="M218 136c55 0 108 -28 108 -89c0 -71 -55 -121 -102 -149c-35 -21 -75 -34 -116 -34c-55 0 -108 28 -108 89c0 71 55 121 102 149c35 21 75 34 116 34z" fill="currentColor"/>
</a>
</g>
<g color="rgb(73.3333%, 44.3137%, 91.3725%)">
<a style="color:inherit;" xlink:href="textedit://C:/Users/RCJacH/OneDrive/Documents/Coding/music/piano_textures/data/classical/liszt/transcendental_etudes/6_vision/6_vision.ly:296:66:67">
<path transform="translate(81.9088, 40.4873) scale(0.0040, -0.0040)" d="M218 136c55 0 108 -28 108 -89c0 -71 -55 -121 -102 -149c-35 -21 -75 -34 -116 -34c-55 0 -108 28 -108 89c0 71 55 121 102 149c35 21 75 34 116 34z" fill="currentColor"/>
</a>
</g>
<rect transform="translate(83.1481, 41.4873)" x="-0.0650" y="-6.5000" width="0.1300" height="5.3139" ry="0.0400" fill="currentColor"/>
<rect transform="translate(85.9003, 41.4873)" x="-0.0650" y="-6.5000" width="0.1300" height="7.3139" ry="0.0400" fill="currentColor"/>
<polygon transform="translate(73.8263, 34.9873)" stroke-linejoin="round" stroke-linecap="round" stroke-width="0.0800" fill="currentColor" stroke="currentColor" points="12.0990 -0.1200 12.0990 0.1200 0.0400 0.1200 0.0400 -0.1200"/>
<polygon transform="translate(73.8263, 35.6148)" stroke-linejoin="round" stroke-linecap="round" stroke-width="0.0800" fill="currentColor" stroke="currentColor" points="12.0990 -0.1200 12.0990 0.1200 0.0400 0.1200 0.0400 -0.1200"/>
<polygon transform="translate(73.8263, 36.2423)" stroke-linejoin="round" stroke-linecap="round" stroke-width="0.0800" fill="currentColor" stroke="currentColor" points="12.0990 -0.1200 12.0990 0.1200 0.0400 0.1200 0.0400 -0.1200"/>
<polygon transform="translate(52.1245, 33.0406)" stroke-linejoin="round" stroke-linecap="round" stroke-width="0.0800" fill="currentColor" stroke="currentColor" points="15.1153 -0.1200 15.1153 0.1200 0.0400 0.1200 0.0400 -0.1200"/>
<polygon transform="translate(52.1245, 33.7089)" stroke-linejoin="round" stroke-linecap="round" stroke-width="0.0800" fill="currentColor" stroke="currentColor" points="15.1153 -0.1200 15.1153 0.1200 0.0400 0.1200 0.0400 -0.1200"/>
<polygon transform="translate(52.1245, 34.3773)" stroke-linejoin="round" stroke-linecap="round" stroke-width="0.0800" fill="currentColor" stroke="currentColor" points="15.1153 -0.1200 15.1153 0.1200 0.0400 0.1200 0.0400 -0.1200"/>
<polygon transform="translate(52.1245, 35.0456)" stroke-linejoin="round" stroke-linecap="round" stroke-width="0.0800" fill="currentColor" stroke="currentColor" points="15.1153 -0.1200 15.1153 0.1200 0.0400 0.1200 0.0400 -0.1200"/>
<a style="color:inherit;" xlink:href="textedit://C:/Users/RCJacH/OneDrive/Documents/Coding/music/piano_textures/data/classical/liszt/transcendental_etudes/6_vision/6_vision.ly:296:38:39">
<text transform="translate(77.6908, 34.3248)" font-family="serif" font-style="italic" font-size="1.7461" text-anchor="start" fill="currentColor">
<tspan>6</tspan>
</text>
</a>
<g color="rgb(73.3333%, 44.3137%, 91.3725%)">
<a style="color:inherit;" xlink:href="textedit://C:/Users/RCJacH/OneDrive/Documents/Coding/music/piano_textures/data/classical/liszt/transcendental_etudes/6_vision/6_vision.ly:296:56:57">
<path transform="translate(72.6521, 42.4873) scale(0.0040, -0.0040)" d="M218 136c55 0 108 -28 108 -89c0 -71 -55 -121 -102 -149c-35 -21 -75 -34 -116 -34c-55 0 -108 28 -108 89c0 71 55 121 102 149c35 21 75 34 116 34z" fill="currentColor"/>
</a>
</g>
<rect transform="translate(73.8913, 41.4873)" x="-0.0650" y="-6.5000" width="0.1300" height="7.3139" ry="0.0400" fill="currentColor"/>
<g color="rgb(73.3333%, 44.3137%, 91.3725%)">
<a style="color:inherit;" xlink:href="textedit://C:/Users/RCJacH/OneDrive/Documents/Coding/music/piano_textures/data/classical/liszt/transcendental_etudes/6_vision/6_vision.ly:296:59:60">
<path transform="translate(75.9043, 40.4873) scale(0.0040, -0.0040)" d="M218 136c55 0 108 -28 108 -89c0 -71 -55 -121 -102 -149c-35 -21 -75 -34 -116 -34c-55 0 -108 28 -108 89c0 71 55 121 102 149c35 21 75 34 116 34z" fill="currentColor"/>
</a>
</g>
<rect transform="translate(77.1435, 41.4873)" x="-0.0650" y="-6.5000" width="0.1300" height="5.3139" ry="0.0400" fill="currentColor"/>
<g color="rgb(73.3333%, 44.3137%, 91.3725%)">
<a style="color:inherit;" xlink:href="textedit://C:/Users/RCJacH/OneDrive/Documents/Coding/music/piano_textures/data/classical/liszt/transcendental_etudes/6_vision/6_vision.ly:296:63:64">
<path transform="translate(79.1566, 37.9873) scale(0.0040, -0.0040)" d="M218 136c55 0 108 -28 108 -89c0 -71 -55 -121 -102 -149c-35 -21 -75 -34 -116 -34c-55 0 -108 28 -108 89c0 71 55 121 102 149c35 21 75 34 116 34z" fill="currentColor"/>
</a>
</g>
<rect transform="translate(80.3958, 41.4873)" x="-0.0650" y="-6.5000" width="0.1300" height="2.8139" ry="0.0400" fill="currentColor"/>
<rect transform="translate(50.7638, 41.4873)" x="-0.0650" y="-6.0000" width="0.1300" height="5.8139" ry="0.0400" fill="currentColor"/>
<text transform="translate(38.7491, 26.9615)" font-family="serif" font-size="1.7461" text-anchor="start" fill="currentColor">
<tspan>17</tspan>
</text>
<g color="rgb(73.3333%, 44.3137%, 91.3725%)">
<a style="color:inherit;" xlink:href="textedit://C:/Users/RCJacH/OneDrive/Documents/Coding/music/piano_textures/data/classical/liszt/transcendental_etudes/6_vision/6_vision.ly:291:39:40">
<path transform="translate(52.1245, 31.5456) scale(0.0040, -0.0040)" d="M218 136c55 0 108 -28 108 -89c0 -71 -55 -121 -102 -149c-35 -21 -75 -34 -116 -34c-55 0 -108 28 -108 89c0 71 55 121 102 149c35 21 75 34 116 34z" fill="currentColor"/>
</a>
</g>
<rect transform="translate(52.1895, 30.0456)" x="-0.0650" y="1.6861" width="0.1300" height="3.3139" ry="0.0400" fill="currentColor"/>
<a style="color:inherit;" xlink:href="textedit://C:/Users/RCJacH/OneDrive/Documents/Coding/music/piano_textures/data/classical/liszt/transcendental_etudes/6_vision/6_vision.ly:291:35:36">
<path transform="translate(49.5246, 32.0456) scale(0.0040, -0.0040)" d="M60 -750l73 328c-36 -13 -74 -24 -113 -24c-46 0 -87 33 -87 79c0 40 33 72 73 72c25 0 48 -15 56 -39c10 -28 5 -59 34 -59c17 0 56 55 60 73l33 147c-35 -13 -71 -23 -109 -23c-46 0 -87 33 -87 79c0 40 32 72 72 72c25 0 49 -15 57 -39c10 -28 5 -59 34 -59
c16 0 51 54 55 71l34 149c-34 -12 -70 -23 -106 -23c-46 0 -87 33 -87 79c0 40 33 72 73 72c25 0 48 -15 56 -39c10 -28 5 -59 34 -59c15 0 48 52 52 68l34 151c-33 -12 -67 -22 -102 -22c-46 0 -87 33 -87 79c0 40 32 72 72 72c25 0 49 -15 57 -39c10 -28 5 -59 34 -59
c14 0 41 49 47 63c5 12 23 12 28 0l-235 -1170c-8 -7 -18 -10 -28 -10s-19 3 -27 10z" fill="currentColor"/>
</a>
<text transform="translate(9.1049, 36.2957)" font-family="serif" font-size="2.2001" text-anchor="start" fill="currentColor">
<tspan>Melody + a1' + Chord + a + Bass </tspan>
</text>
<path transform="translate(40.1645, 35.7664) scale(0.0040, -0.0040)" d="M-16 -584c0 -312 -116 -612 -116 -908c0 -160 36 -308 144 -428c4 -4 4 -8 4 -12c0 -8 -8 -16 -16 -16c-4 0 -8 0 -12 4c-148 160 -196 368 -196 584c0 316 124 628 124 928c0 156 -40 304 -148 424v8v8c108 120 148 268 148 424c0 300 -124 612 -124 928
c0 216 48 424 196 584c4 4 8 4 12 4c8 0 16 -8 16 -16c0 -4 0 -8 -4 -12c-108 -120 -144 -268 -144 -428c0 -296 116 -596 116 -908c0 -216 -48 -424 -192 -584c144 -160 192 -368 192 -584z" fill="currentColor"/>
<rect transform="translate(40.4645, 35.7664)" x="0.0000" y="-7.7708" width="0.1600" height="15.5417" ry="0.0500" fill="currentColor"/>
<path transform="translate(41.3245, 31.0456) scale(0.0040, -0.0040)" d="M376 262c4 0 9 1 13 1c155 0 256 -128 256 -261c0 -76 -33 -154 -107 -210c-22 -17 -47 -28 -73 -36c3 -35 5 -70 5 -105c0 -19 -1 -39 -2 -58c-7 -120 -90 -228 -208 -228c-108 0 -195 88 -195 197c0 58 53 103 112 103c54 0 95 -47 95 -103c0 -52 -43 -95 -95 -95
c-11 0 -21 2 -31 6c26 -39 68 -65 117 -65c96 0 157 92 163 191c1 18 2 37 2 55c0 31 -1 61 -4 92c-29 -5 -58 -8 -89 -8c-188 0 -333 172 -333 374c0 177 131 306 248 441c-19 62 -37 125 -45 190c-6 52 -7 104 -7 156c0 115 55 224 149 292c3 2 7 3 10 3c4 0 7 0 10 -3
c71 -84 133 -245 133 -358c0 -143 -86 -255 -180 -364c21 -68 39 -138 56 -207zM461 -203c68 24 113 95 113 164c0 90 -66 179 -173 190c24 -116 46 -231 60 -354zM74 28c0 -135 129 -247 264 -247c28 0 55 2 82 6c-14 127 -37 245 -63 364c-79 -8 -124 -61 -124 -119
c0 -44 25 -91 81 -123c5 -5 7 -10 7 -15c0 -11 -10 -22 -22 -22c-3 0 -6 1 -9 2c-80 43 -117 115 -117 185c0 88 58 174 160 197c-14 58 -29 117 -46 175c-107 -121 -213 -243 -213 -403zM408 1045c-99 -48 -162 -149 -162 -259c0 -74 18 -133 36 -194
c80 97 146 198 146 324c0 55 -4 79 -20 129z" fill="currentColor"/>
<a style="color:inherit;" xlink:href="textedit://C:/Users/RCJacH/OneDrive/Documents/Coding/music/piano_textures/data/classical/liszt/transcendental_etudes/6_vision/6_vision.ly:289:6:7">
<path transform="translate(44.8245, 28.0456) scale(0.0040, -0.0040)" d="M216 -312c0 -10 -8 -19 -18 -19s-19 9 -19 19v145l-83 -31v-158c0 -10 -9 -19 -19 -19s-18 9 -18 19v145l-32 -12c-2 -1 -5 -1 -7 -1c-11 0 -20 9 -20 20v60c0 8 5 16 13 19l46 16v160l-32 -11c-2 -1 -5 -1 -7 -1c-11 0 -20 9 -20 20v60c0 8 5 15 13 18l46 17v158
c0 10 8 19 18 19s19 -9 19 -19v-145l83 31v158c0 10 9 19 19 19s18 -9 18 -19v-145l32 12c2 1 5 1 7 1c11 0 20 -9 20 -20v-60c0 -8 -5 -16 -13 -19l-46 -16v-160l32 11c2 1 5 1 7 1c11 0 20 -9 20 -20v-60c0 -8 -5 -15 -13 -18l-46 -17v-158zM96 65v-160l83 30v160z" fill="currentColor"/>
<path transform="translate(45.9245, 29.5456) scale(0.0040, -0.0040)" d="M216 -312c0 -10 -8 -19 -18 -19s-19 9 -19 19v145l-83 -31v-158c0 -10 -9 -19 -19 -19s-18 9 -18 19v145l-32 -12c-2 -1 -5 -1 -7 -1c-11 0 -20 9 -20 20v60c0 8 5 16 13 19l46 16v160l-32 -11c-2 -1 -5 -1 -7 -1c-11 0 -20 9 -20 20v60c0 8 5 15 13 18l46 17v158
c0 10 8 19 18 19s19 -9 19 -19v-145l83 31v158c0 10 9 19 19 19s18 -9 18 -19v-145l32 12c2 1 5 1 7 1c11 0 20 -9 20 -20v-60c0 -8 -5 -16 -13 -19l-46 -16v-160l32 11c2 1 5 1 7 1c11 0 20 -9 20 -20v-60c0 -8 -5 -15 -13 -18l-46 -17v-158zM96 65v-160l83 30v160z" fill="currentColor"/>
</a>
<g color="rgb(24.7059%, 80.0000%, 78.0392%)">
<a style="color:inherit;" xlink:href="textedit://C:/Users/RCJacH/OneDrive/Documents/Coding/music/piano_textures/data/classical/liszt/transcendental_etudes/6_vision/6_vision.ly:295:36:37">
<path transform="translate(49.5246, 41.4873) scale(0.0040, -0.0040)" d="M218 136c55 0 108 -28 108 -89c0 -71 -55 -121 -102 -149c-35 -21 -75 -34 -116 -34c-55 0 -108 28 -108 89c0 71 55 121 102 149c35 21 75 34 116 34z" fill="currentColor"/>
</a>
</g>
<g color="rgb(24.7059%, 80.0000%, 78.0392%)">
<a style="color:inherit;" xlink:href="textedit://C:/Users/RCJacH/OneDrive/Documents/Coding/music/piano_textures/data/classical/liszt/transcendental_etudes/6_vision/6_vision.ly:295:38:39">
<path transform="translate(49.5246, 40.4873) scale(0.0040, -0.0040)" d="M218 136c55 0 108 -28 108 -89c0 -71 -55 -121 -102 -149c-35 -21 -75 -34 -116 -34c-55 0 -108 28 -108 89c0 71 55 121 102 149c35 21 75 34 116 34z" fill="currentColor"/>
</a>
</g>
<g color="rgb(24.7059%, 80.0000%, 78.0392%)">
<a style="color:inherit;" xlink:href="textedit://C:/Users/RCJacH/OneDrive/Documents/Coding/music/piano_textures/data/classical/liszt/transcendental_etudes/6_vision/6_vision.ly:295:42:43">
<path transform="translate(49.5246, 37.9873) scale(0.0040, -0.0040)" d="M218 136c55 0 108 -28 108 -89c0 -71 -55 -121 -102 -149c-35 -21 -75 -34 -116 -34c-55 0 -108 28 -108 89c0 71 55 121 102 149c35 21 75 34 116 34z" fill="currentColor"/>
</a>
</g>
<path transform="translate(41.3245, 40.4873) scale(0.0040, -0.0040)" d="M557 -125c0 28 23 51 51 51s51 -23 51 -51s-23 -51 -51 -51s-51 23 -51 51zM557 125c0 28 23 51 51 51s51 -23 51 -51s-23 -51 -51 -51s-51 23 -51 51zM232 263c172 0 293 -88 293 -251c0 -263 -263 -414 -516 -521c-3 -3 -6 -4 -9 -4c-7 0 -13 6 -13 13c0 3 1 6 4 9
c202 118 412 265 412 493c0 120 -63 235 -171 235c-74 0 -129 -54 -154 -126c11 5 22 8 34 8c55 0 100 -45 100 -100c0 -58 -44 -106 -100 -106c-60 0 -112 47 -112 106c0 133 102 244 232 244z" fill="currentColor"/>
<a style="color:inherit;" xlink:href="textedit://C:/Users/RCJacH/OneDrive/Documents/Coding/music/piano_textures/data/classical/liszt/transcendental_etudes/6_vision/6_vision.ly:289:6:7">
<path transform="translate(44.8245, 40.4873) scale(0.0040, -0.0040)" d="M216 -312c0 -10 -8 -19 -18 -19s-19 9 -19 19v145l-83 -31v-158c0 -10 -9 -19 -19 -19s-18 9 -18 19v145l-32 -12c-2 -1 -5 -1 -7 -1c-11 0 -20 9 -20 20v60c0 8 5 16 13 19l46 16v160l-32 -11c-2 -1 -5 -1 -7 -1c-11 0 -20 9 -20 20v60c0 8 5 15 13 18l46 17v158
c0 10 8 19 18 19s19 -9 19 -19v-145l83 31v158c0 10 9 19 19 19s18 -9 18 -19v-145l32 12c2 1 5 1 7 1c11 0 20 -9 20 -20v-60c0 -8 -5 -16 -13 -19l-46 -16v-160l32 11c2 1 5 1 7 1c11 0 20 -9 20 -20v-60c0 -8 -5 -15 -13 -18l-46 -17v-158zM96 65v-160l83 30v160z" fill="currentColor"/>
<path transform="translate(45.9245, 41.9873) scale(0.0040, -0.0040)" d="M216 -312c0 -10 -8 -19 -18 -19s-19 9 -19 19v145l-83 -31v-158c0 -10 -9 -19 -19 -19s-18 9 -18 19v145l-32 -12c-2 -1 -5 -1 -7 -1c-11 0 -20 9 -20 20v60c0 8 5 16 13 19l46 16v160l-32 -11c-2 -1 -5 -1 -7 -1c-11 0 -20 9 -20 20v60c0 8 5 15 13 18l46 17v158
c0 10 8 19 18 19s19 -9 19 -19v-145l83 31v158c0 10 9 19 19 19s18 -9 18 -19v-145l32 12c2 1 5 1 7 1c11 0 20 -9 20 -20v-60c0 -8 -5 -16 -13 -19l-46 -16v-160l32 11c2 1 5 1 7 1c11 0 20 -9 20 -20v-60c0 -8 -5 -15 -13 -18l-46 -17v-158zM96 65v-160l83 30v160z" fill="currentColor"/>
</a>
<g color="rgb(73.3333%, 44.3137%, 91.3725%)">
<a style="color:inherit;" xlink:href="textedit://C:/Users/RCJacH/OneDrive/Documents/Coding/music/piano_textures/data/classical/liszt/transcendental_etudes/6_vision/6_vision.ly:291:54:55">
<path transform="translate(60.3872, 25.5456) scale(0.0040, -0.0040)" d="M218 136c55 0 108 -28 108 -89c0 -71 -55 -121 -102 -149c-35 -21 -75 -34 -116 -34c-55 0 -108 28 -108 89c0 71 55 121 102 149c35 21 75 34 116 34z" fill="currentColor"/>
</a>
</g>
<g color="rgb(96.8627%, 34.1176%, 50.9804%)">
<a style="color:inherit;" xlink:href="textedit://C:/Users/RCJacH/OneDrive/Documents/Coding/music/piano_textures/data/classical/liszt/transcendental_etudes/6_vision/6_vision.ly:292:39:40">
<path transform="translate(60.3872, 25.5456) scale(0.0040, -0.0040)" d="M218 136c55 0 108 -28 108 -89c0 -71 -55 -121 -102 -149c-35 -21 -75 -34 -116 -34c-55 0 -108 28 -108 89c0 71 55 121 102 149c35 21 75 34 116 34z" fill="currentColor"/>
</a>
</g>
<rect transform="translate(60.4522, 30.0456)" x="-0.0650" y="-4.3139" width="0.1300" height="9.3139" ry="0.0400" fill="currentColor"/>
<rect transform="translate(61.6264, 30.0456)" x="-0.0650" y="-7.5000" width="0.1300" height="2.8139" ry="0.0400" fill="currentColor"/>
<path transform="translate(61.6914, 22.5856) scale(0.0040, -0.0040)" d="M0 0c0 -197 207 -336 207 -533c0 -71 -15 -141 -41 -207c-5 -8 -13 -12 -20 -12c-13 0 -26 11 -23 27c26 61 42 126 42 192c0 103 -94 208 -165 283h-16v250h16z" fill="currentColor"/>
<rect transform="translate(54.9438, 30.0456)" x="-0.0650" y="-0.8139" width="0.1300" height="5.8139" ry="0.0400" fill="currentColor"/>
<g color="rgb(73.3333%, 44.3137%, 91.3725%)">
<a style="color:inherit;" xlink:href="textedit://C:/Users/RCJacH/OneDrive/Documents/Coding/music/piano_textures/data/classical/liszt/transcendental_etudes/6_vision/6_vision.ly:291:44:45">
<path transform="translate(54.8788, 29.0456) scale(0.0040, -0.0040)" d="M218 136c55 0 108 -28 108 -89c0 -71 -55 -121 -102 -149c-35 -21 -75 -34 -116 -34c-55 0 -108 28 -108 89c0 71 55 121 102 149c35 21 75 34 116 34z" fill="currentColor"/>
</a>
</g>
<rect transform="translate(57.6980, 30.0456)" x="-0.0650" y="-1.8139" width="0.1300" height="6.8139" ry="0.0400" fill="currentColor"/>
<g color="rgb(73.3333%, 44.3137%, 91.3725%)">
<a style="color:inherit;" xlink:href="textedit://C:/Users/RCJacH/OneDrive/Documents/Coding/music/piano_textures/data/classical/liszt/transcendental_etudes/6_vision/6_vision.ly:291:48:49">
<path transform="translate(57.6330, 28.0456) scale(0.0040, -0.0040)" d="M218 136c55 0 108 -28 108 -89c0 -71 -55 -121 -102 -149c-35 -21 -75 -34 -116 -34c-55 0 -108 28 -108 89c0 71 55 121 102 149c35 21 75 34 116 34z" fill="currentColor"/>
</a>
</g>
<line transform="translate(40.5245, 62.8975)" stroke-linejoin="round" stroke-linecap="round" stroke-width="0.1000" stroke="currentColor" x1="0.0500" y1="-0.0000" x2="72.8915" y2="-0.0000"/>
<line transform="translate(40.5245, 61.8975)" stroke-linejoin="round" stroke-linecap="round" stroke-width="0.1000" stroke="currentColor" x1="0.0500" y1="-0.0000" x2="72.8915" y2="-0.0000"/>
<line transform="translate(40.5245, 60.8975)" stroke-linejoin="round" stroke-linecap="round" stroke-width="0.1000" stroke="currentColor" x1="0.0500" y1="-0.0000" x2="72.8915" y2="-0.0000"/>
<line transform="translate(40.5245, 59.8975)" stroke-linejoin="round" stroke-linecap="round" stroke-width="0.1000" stroke="currentColor" x1="0.0500" y1="-0.0000" x2="72.8915" y2="-0.0000"/>
<line transform="translate(40.5245, 58.8975)" stroke-linejoin="round" stroke-linecap="round" stroke-width="0.1000" stroke="currentColor" x1="0.0500" y1="-0.0000" x2="72.8915" y2="-0.0000"/>
<line transform="translate(40.5245, 74.6840)" stroke-linejoin="round" stroke-linecap="round" stroke-width="0.1000" stroke="currentColor" x1="0.0500" y1="-0.0000" x2="72.8915" y2="-0.0000"/>
<line transform="translate(40.5245, 73.6840)" stroke-linejoin="round" stroke-linecap="round" stroke-width="0.1000" stroke="currentColor" x1="0.0500" y1="-0.0000" x2="72.8915" y2="-0.0000"/>
<line transform="translate(40.5245, 72.6840)" stroke-linejoin="round" stroke-linecap="round" stroke-width="0.1000" stroke="currentColor" x1="0.0500" y1="-0.0000" x2="72.8915" y2="-0.0000"/>
<line transform="translate(40.5245, 71.6840)" stroke-linejoin="round" stroke-linecap="round" stroke-width="0.1000" stroke="currentColor" x1="0.0500" y1="-0.0000" x2="72.8915" y2="-0.0000"/>
<line transform="translate(40.5245, 70.6840)" stroke-linejoin="round" stroke-linecap="round" stroke-width="0.1000" stroke="currentColor" x1="0.0500" y1="-0.0000" x2="72.8915" y2="-0.0000"/>
<rect transform="translate(40.5245, 75.6840)" x="56.6606" y="-0.1000" width="3.1955" height="0.2000" ry="0.1000" fill="currentColor"/>
<rect transform="translate(40.5245, 76.6840)" x="56.6606" y="-0.1000" width="3.1955" height="0.2000" ry="0.1000" fill="currentColor"/>
<rect transform="translate(40.5245, 77.6840)" x="56.6606" y="-0.1000" width="3.1955" height="0.2000" ry="0.1000" fill="currentColor"/>
<rect transform="translate(40.5245, 75.6840)" x="23.8492" y="-0.1000" width="1.9563" height="0.2000" ry="0.1000" fill="currentColor"/>
<rect transform="translate(40.5245, 76.6840)" x="23.8492" y="-0.1000" width="1.9563" height="0.2000" ry="0.1000" fill="currentColor"/>
<rect transform="translate(40.5245, 77.6840)" x="23.8492" y="-0.1000" width="1.9563" height="0.2000" ry="0.1000" fill="currentColor"/>
<rect transform="translate(40.5245, 57.8975)" x="65.4920" y="-0.1000" width="1.8171" height="0.2000" ry="0.1000" fill="currentColor"/>
<rect transform="translate(40.5245, 56.8975)" x="58.0508" y="-0.1000" width="1.8053" height="0.2000" ry="0.1000" fill="currentColor"/>
<rect transform="translate(40.5245, 57.8975)" x="57.8998" y="-0.1000" width="1.9563" height="0.2000" ry="0.1000" fill="currentColor"/>
<rect transform="translate(40.5245, 57.8975)" x="53.3966" y="-0.1000" width="1.8053" height="0.2000" ry="0.1000" fill="currentColor"/>
<rect transform="translate(40.5245, 63.8975)" x="38.4256" y="-0.1000" width="1.8053" height="0.2000" ry="0.1000" fill="currentColor"/>
<rect transform="translate(40.5245, 56.8975)" x="23.8492" y="-0.1000" width="1.9563" height="0.2000" ry="0.1000" fill="currentColor"/>
<rect transform="translate(40.5245, 57.8975)" x="23.8492" y="-0.1000" width="1.9563" height="0.2000" ry="0.1000" fill="currentColor"/>
<rect transform="translate(40.5245, 57.8975)" x="21.3450" y="-0.1000" width="1.9563" height="0.2000" ry="0.1000" fill="currentColor"/>
<rect transform="translate(88.0527, 60.8975)" x="-0.0650" y="-0.3139" width="0.1300" height="5.2444" ry="0.0400" fill="currentColor"/>
<g color="rgb(73.3333%, 44.3137%, 91.3725%)">
<a style="color:inherit;" xlink:href="textedit://C:/Users/RCJacH/OneDrive/Documents/Coding/music/piano_textures/data/classical/liszt/transcendental_etudes/6_vision/6_vision.ly:316:49:50">
<path transform="translate(87.9877, 60.3975) scale(0.0040, -0.0040)" d="M218 136c55 0 108 -28 108 -89c0 -71 -55 -121 -102 -149c-35 -21 -75 -34 -116 -34c-55 0 -108 28 -108 89c0 71 55 121 102 149c35 21 75 34 116 34z" fill="currentColor"/>
</a>
</g>
<path transform="translate(83.7835, 61.3975) scale(0.0040, -0.0040)" d="M216 -312c0 -10 -8 -19 -18 -19s-19 9 -19 19v145l-83 -31v-158c0 -10 -9 -19 -19 -19s-18 9 -18 19v145l-32 -12c-2 -1 -5 -1 -7 -1c-11 0 -20 9 -20 20v60c0 8 5 16 13 19l46 16v160l-32 -11c-2 -1 -5 -1 -7 -1c-11 0 -20 9 -20 20v60c0 8 5 15 13 18l46 17v158
c0 10 8 19 18 19s19 -9 19 -19v-145l83 31v158c0 10 9 19 19 19s18 -9 18 -19v-145l32 12c2 1 5 1 7 1c11 0 20 -9 20 -20v-60c0 -8 -5 -16 -13 -19l-46 -16v-160l32 11c2 1 5 1 7 1c11 0 20 -9 20 -20v-60c0 -8 -5 -15 -13 -18l-46 -17v-158zM96 65v-160l83 30v160z" fill="currentColor"/>
<rect transform="translate(85.2985, 60.8975)" x="-0.0650" y="0.6861" width="0.1300" height="4.6083" ry="0.0400" fill="currentColor"/>
<g color="rgb(73.3333%, 44.3137%, 91.3725%)">
<a style="color:inherit;" xlink:href="textedit://C:/Users/RCJacH/OneDrive/Documents/Coding/music/piano_textures/data/classical/liszt/transcendental_etudes/6_vision/6_vision.ly:316:45:46">
<path transform="translate(85.2335, 61.3975) scale(0.0040, -0.0040)" d="M218 136c55 0 108 -28 108 -89c0 -71 -55 -121 -102 -149c-35 -21 -75 -34 -116 -34c-55 0 -108 28 -108 89c0 71 55 121 102 149c35 21 75 34 116 34z" fill="currentColor"/>
</a>
</g>
<g color="rgb(73.3333%, 44.3137%, 91.3725%)">
<a style="color:inherit;" xlink:href="textedit://C:/Users/RCJacH/OneDrive/Documents/Coding/music/piano_textures/data/classical/liszt/transcendental_etudes/6_vision/6_vision.ly:316:63:64">
<path transform="translate(98.7504, 60.3975) scale(0.0040, -0.0040)" d="M218 136c55 0 108 -28 108 -89c0 -71 -55 -121 -102 -149c-35 -21 -75 -34 -116 -34c-55 0 -108 28 -108 89c0 71 55 121 102 149c35 21 75 34 116 34z" fill="currentColor"/>
</a>
</g>
<g color="rgb(73.3333%, 44.3137%, 91.3725%)">
<a style="color:inherit;" xlink:href="textedit://C:/Users/RCJacH/OneDrive/Documents/Coding/music/piano_textures/data/classical/liszt/transcendental_etudes/6_vision/6_vision.ly:316:56:57">
<path transform="translate(94.0961, 57.8975) scale(0.0040, -0.0040)" d="M218 136c55 0 108 -28 108 -89c0 -71 -55 -121 -102 -149c-35 -21 -75 -34 -116 -34c-55 0 -108 28 -108 89c0 71 55 121 102 149c35 21 75 34 116 34z" fill="currentColor"/>
</a>
</g>
<g color="rgb(85.4902%, 36.8627%, 10.1961%)">
<a style="color:inherit;" xlink:href="textedit://C:/Users/RCJacH/OneDrive/Documents/Coding/music/piano_textures/data/classical/liszt/transcendental_etudes/6_vision/6_vision.ly:312:62:63">
<path transform="translate(98.7504, 56.8975) scale(0.0040, -0.0040)" d="M218 136c55 0 108 -28 108 -89c0 -71 -55 -121 -102 -149c-35 -21 -75 -34 -116 -34c-55 0 -108 28 -108 89c0 71 55 121 102 149c35 21 75 34 116 34z" fill="currentColor"/>
</a>
</g>
<path transform="translate(92.6461, 57.8975) scale(0.0040, -0.0040)" d="M216 -312c0 -10 -8 -19 -18 -19s-19 9 -19 19v145l-83 -31v-158c0 -10 -9 -19 -19 -19s-18 9 -18 19v145l-32 -12c-2 -1 -5 -1 -7 -1c-11 0 -20 9 -20 20v60c0 8 5 16 13 19l46 16v160l-32 -11c-2 -1 -5 -1 -7 -1c-11 0 -20 9 -20 20v60c0 8 5 15 13 18l46 17v158
c0 10 8 19 18 19s19 -9 19 -19v-145l83 31v158c0 10 9 19 19 19s18 -9 18 -19v-145l32 12c2 1 5 1 7 1c11 0 20 -9 20 -20v-60c0 -8 -5 -16 -13 -19l-46 -16v-160l32 11c2 1 5 1 7 1c11 0 20 -9 20 -20v-60c0 -8 -5 -15 -13 -18l-46 -17v-158zM96 65v-160l83 30v160z" fill="currentColor"/>
<rect transform="translate(94.1611, 60.8975)" x="-0.0650" y="-2.8139" width="0.1300" height="6.9374" ry="0.0400" fill="currentColor"/>
<rect transform="translate(90.8069, 60.8975)" x="-0.0650" y="-2.3139" width="0.1300" height="6.8805" ry="0.0400" fill="currentColor"/>
<g color="rgb(73.3333%, 44.3137%, 91.3725%)">
<a style="color:inherit;" xlink:href="textedit://C:/Users/RCJacH/OneDrive/Documents/Coding/music/piano_textures/data/classical/liszt/transcendental_etudes/6_vision/6_vision.ly:316:53:54">
<path transform="translate(90.7419, 58.3975) scale(0.0040, -0.0040)" d="M218 136c55 0 108 -28 108 -89c0 -71 -55 -121 -102 -149c-35 -21 -75 -34 -116 -34c-55 0 -108 28 -108 89c0 71 55 121 102 149c35 21 75 34 116 34z" fill="currentColor"/>
</a>
</g>
<g color="rgb(24.7059%, 80.0000%, 78.0392%)">
<a style="color:inherit;" xlink:href="textedit://C:/Users/RCJacH/OneDrive/Documents/Coding/music/piano_textures/data/classical/liszt/transcendental_etudes/6_vision/6_vision.ly:320:53:54">
<path transform="translate(79.1251, 73.1840) scale(0.0040, -0.0040)" d="M218 136c55 0 108 -28 108 -89c0 -71 -55 -121 -102 -149c-35 -21 -75 -34 -116 -34c-55 0 -108 28 -108 89c0 71 55 121 102 149c35 21 75 34 116 34z" fill="currentColor"/>
</a>
</g>
<rect transform="translate(79.1901, 60.8975)" x="-0.0650" y="3.1861" width="0.1300" height="2.9153" ry="0.0400" fill="currentColor"/>
<rect transform="translate(80.3643, 60.8975)" x="-0.0650" y="-3.6667" width="0.1300" height="6.4806" ry="0.0400" fill="currentColor"/>
<g color="rgb(24.7059%, 80.0000%, 78.0392%)">
<a style="color:inherit;" xlink:href="textedit://C:/Users/RCJacH/OneDrive/Documents/Coding/music/piano_textures/data/classical/liszt/transcendental_etudes/6_vision/6_vision.ly:320:61:62">
<path transform="translate(80.3643, 70.6840) scale(0.0040, -0.0040)" d="M218 136c55 0 108 -28 108 -89c0 -71 -55 -121 -102 -149c-35 -21 -75 -34 -116 -34c-55 0 -108 28 -108 89c0 71 55 121 102 149c35 21 75 34 116 34z" fill="currentColor"/>
</a>
</g>
<g color="rgb(24.7059%, 80.0000%, 78.0392%)">
<a style="color:inherit;" xlink:href="textedit://C:/Users/RCJacH/OneDrive/Documents/Coding/music/piano_textures/data/classical/liszt/transcendental_etudes/6_vision/6_vision.ly:320:59:60">
<path transform="translate(79.1251, 71.1840) scale(0.0040, -0.0040)" d="M218 136c55 0 108 -28 108 -89c0 -71 -55 -121 -102 -149c-35 -21 -75 -34 -116 -34c-55 0 -108 28 -108 89c0 71 55 121 102 149c35 21 75 34 116 34z" fill="currentColor"/>
</a>
</g>
<g color="rgb(24.7059%, 80.0000%, 78.0392%)">
<a style="color:inherit;" xlink:href="textedit://C:/Users/RCJacH/OneDrive/Documents/Coding/music/piano_textures/data/classical/liszt/transcendental_etudes/6_vision/6_vision.ly:320:57:58">
<path transform="translate(79.1251, 72.1840) scale(0.0040, -0.0040)" d="M218 136c55 0 108 -28 108 -89c0 -71 -55 -121 -102 -149c-35 -21 -75 -34 -116 -34c-55 0 -108 28 -108 89c0 71 55 121 102 149c35 21 75 34 116 34z" fill="currentColor"/>
</a>
</g>
<g color="rgb(24.7059%, 80.0000%, 78.0392%)">
<a style="color:inherit;" xlink:href="textedit://C:/Users/RCJacH/OneDrive/Documents/Coding/music/piano_textures/data/classical/liszt/transcendental_etudes/6_vision/6_vision.ly:320:48:49">
<path transform="translate(79.1251, 74.1840) scale(0.0040, -0.0040)" d="M218 136c55 0 108 -28 108 -89c0 -71 -55 -121 -102 -149c-35 -21 -75 -34 -116 -34c-55 0 -108 28 -108 89c0 71 55 121 102 149c35 21 75 34 116 34z" fill="currentColor"/>
</a>
</g>
<g color="rgb(73.3333%, 44.3137%, 91.3725%)">
<a style="color:inherit;" xlink:href="textedit://C:/Users/RCJacH/OneDrive/Documents/Coding/music/piano_textures/data/classical/liszt/transcendental_etudes/6_vision/6_vision.ly:316:35:36">
<path transform="translate(79.1251, 63.8975) scale(0.0040, -0.0040)" d="M218 136c55 0 108 -28 108 -89c0 -71 -55 -121 -102 -149c-35 -21 -75 -34 -116 -34c-55 0 -108 28 -108 89c0 71 55 121 102 149c35 21 75 34 116 34z" fill="currentColor"/>
</a>
</g>
<g color="rgb(96.8627%, 34.1176%, 50.9804%)">
<a style="color:inherit;" xlink:href="textedit://C:/Users/RCJacH/OneDrive/Documents/Coding/music/piano_textures/data/classical/liszt/transcendental_etudes/6_vision/6_vision.ly:309:41:42">
<path transform="translate(79.1251, 60.3975) scale(0.0040, -0.0040)" d="M218 136c55 0 108 -28 108 -89c0 -71 -55 -121 -102 -149c-35 -21 -75 -34 -116 -34c-55 0 -108 28 -108 89c0 71 55 121 102 149c35 21 75 34 116 34z" fill="currentColor"/>
</a>
</g>
<g color="rgb(96.8627%, 34.1176%, 50.9804%)">
<a style="color:inherit;" xlink:href="textedit://C:/Users/RCJacH/OneDrive/Documents/Coding/music/piano_textures/data/classical/liszt/transcendental_etudes/6_vision/6_vision.ly:309:36:37">
<path transform="translate(79.1251, 63.8975) scale(0.0040, -0.0040)" d="M218 136c55 0 108 -28 108 -89c0 -71 -55 -121 -102 -149c-35 -21 -75 -34 -116 -34c-55 0 -108 28 -108 89c0 71 55 121 102 149c35 21 75 34 116 34z" fill="currentColor"/>
</a>
</g>
<a style="color:inherit;" xlink:href="textedit://C:/Users/RCJacH/OneDrive/Documents/Coding/music/piano_textures/data/classical/liszt/transcendental_etudes/6_vision/6_vision.ly:315:39:40">
<polygon transform="translate(48.4245, 65.1425)" stroke-linejoin="round" stroke-linecap="round" stroke-width="0.0800" fill="currentColor" stroke="currentColor" points="13.8611 -2.3316 13.8611 -2.0916 0.0400 0.1200 0.0400 -0.1200"/>
<polygon transform="translate(48.4245, 65.7700)" stroke-linejoin="round" stroke-linecap="round" stroke-width="0.0800" fill="currentColor" stroke="currentColor" points="13.8611 -2.3316 13.8611 -2.0916 0.0400 0.1200 0.0400 -0.1200"/>
<polygon transform="translate(48.4245, 66.3975)" stroke-linejoin="round" stroke-linecap="round" stroke-width="0.0800" fill="currentColor" stroke="currentColor" points="16.3653 -2.7300 16.3653 -2.4900 0.0400 0.1200 0.0400 -0.1200"/>
</a>
<g color="rgb(73.3333%, 44.3137%, 91.3725%)">
<a style="color:inherit;" xlink:href="textedit://C:/Users/RCJacH/OneDrive/Documents/Coding/music/piano_textures/data/classical/liszt/transcendental_etudes/6_vision/6_vision.ly:316:42:43">
<path transform="translate(81.8793, 61.8975) scale(0.0040, -0.0040)" d="M218 136c55 0 108 -28 108 -89c0 -71 -55 -121 -102 -149c-35 -21 -75 -34 -116 -34c-55 0 -108 28 -108 89c0 71 55 121 102 149c35 21 75 34 116 34z" fill="currentColor"/>
</a>
</g>
<path transform="translate(77.6751, 70.6840) scale(0.0040, -0.0040)" d="M216 -312c0 -10 -8 -19 -18 -19s-19 9 -19 19v145l-83 -31v-158c0 -10 -9 -19 -19 -19s-18 9 -18 19v145l-32 -12c-2 -1 -5 -1 -7 -1c-11 0 -20 9 -20 20v60c0 8 5 16 13 19l46 16v160l-32 -11c-2 -1 -5 -1 -7 -1c-11 0 -20 9 -20 20v60c0 8 5 15 13 18l46 17v158
c0 10 8 19 18 19s19 -9 19 -19v-145l83 31v158c0 10 9 19 19 19s18 -9 18 -19v-145l32 12c2 1 5 1 7 1c11 0 20 -9 20 -20v-60c0 -8 -5 -16 -13 -19l-46 -16v-160l32 11c2 1 5 1 7 1c11 0 20 -9 20 -20v-60c0 -8 -5 -15 -13 -18l-46 -17v-158zM96 65v-160l83 30v160z" fill="currentColor"/>
<path transform="translate(76.3751, 73.1840) scale(0.0040, -0.0040)" d="M216 -312c0 -10 -8 -19 -18 -19s-19 9 -19 19v145l-83 -31v-158c0 -10 -9 -19 -19 -19s-18 9 -18 19v145l-32 -12c-2 -1 -5 -1 -7 -1c-11 0 -20 9 -20 20v60c0 8 5 16 13 19l46 16v160l-32 -11c-2 -1 -5 -1 -7 -1c-11 0 -20 9 -20 20v60c0 8 5 15 13 18l46 17v158
c0 10 8 19 18 19s19 -9 19 -19v-145l83 31v158c0 10 9 19 19 19s18 -9 18 -19v-145l32 12c2 1 5 1 7 1c11 0 20 -9 20 -20v-60c0 -8 -5 -16 -13 -19l-46 -16v-160l32 11c2 1 5 1 7 1c11 0 20 -9 20 -20v-60c0 -8 -5 -15 -13 -18l-46 -17v-158zM96 65v-160l83 30v160z" fill="currentColor"/>
<path transform="translate(77.6751, 74.1840) scale(0.0040, -0.0040)" d="M216 -312c0 -10 -8 -19 -18 -19s-19 9 -19 19v145l-83 -31v-158c0 -10 -9 -19 -19 -19s-18 9 -18 19v145l-32 -12c-2 -1 -5 -1 -7 -1c-11 0 -20 9 -20 20v60c0 8 5 16 13 19l46 16v160l-32 -11c-2 -1 -5 -1 -7 -1c-11 0 -20 9 -20 20v60c0 8 5 15 13 18l46 17v158
c0 10 8 19 18 19s19 -9 19 -19v-145l83 31v158c0 10 9 19 19 19s18 -9 18 -19v-145l32 12c2 1 5 1 7 1c11 0 20 -9 20 -20v-60c0 -8 -5 -16 -13 -19l-46 -16v-160l32 11c2 1 5 1 7 1c11 0 20 -9 20 -20v-60c0 -8 -5 -15 -13 -18l-46 -17v-158zM96 65v-160l83 30v160z" fill="currentColor"/>
<rect transform="translate(81.9443, 60.8975)" x="-0.0650" y="1.1861" width="0.1300" height="4.5514" ry="0.0400" fill="currentColor"/>
<rect transform="translate(80.3643, 72.6840)" x="-0.0650" y="-4.6667" width="0.1300" height="5.9806" ry="0.0400" fill="currentColor"/>
<path transform="translate(77.6751, 63.8975) scale(0.0040, -0.0040)" d="M216 -312c0 -10 -8 -19 -18 -19s-19 9 -19 19v145l-83 -31v-158c0 -10 -9 -19 -19 -19s-18 9 -18 19v145l-32 -12c-2 -1 -5 -1 -7 -1c-11 0 -20 9 -20 20v60c0 8 5 16 13 19l46 16v160l-32 -11c-2 -1 -5 -1 -7 -1c-11 0 -20 9 -20 20v60c0 8 5 15 13 18l46 17v158
c0 10 8 19 18 19s19 -9 19 -19v-145l83 31v158c0 10 9 19 19 19s18 -9 18 -19v-145l32 12c2 1 5 1 7 1c11 0 20 -9 20 -20v-60c0 -8 -5 -16 -13 -19l-46 -16v-160l32 11c2 1 5 1 7 1c11 0 20 -9 20 -20v-60c0 -8 -5 -15 -13 -18l-46 -17v-158zM96 65v-160l83 30v160z" fill="currentColor"/>
<path transform="translate(77.6751, 60.3975) scale(0.0040, -0.0040)" d="M216 -312c0 -10 -8 -19 -18 -19s-19 9 -19 19v145l-83 -31v-158c0 -10 -9 -19 -19 -19s-18 9 -18 19v145l-32 -12c-2 -1 -5 -1 -7 -1c-11 0 -20 9 -20 20v60c0 8 5 16 13 19l46 16v160l-32 -11c-2 -1 -5 -1 -7 -1c-11 0 -20 9 -20 20v60c0 8 5 15 13 18l46 17v158
c0 10 8 19 18 19s19 -9 19 -19v-145l83 31v158c0 10 9 19 19 19s18 -9 18 -19v-145l32 12c2 1 5 1 7 1c11 0 20 -9 20 -20v-60c0 -8 -5 -16 -13 -19l-46 -16v-160l32 11c2 1 5 1 7 1c11 0 20 -9 20 -20v-60c0 -8 -5 -15 -13 -18l-46 -17v-158zM96 65v-160l83 30v160z" fill="currentColor"/>
<path transform="translate(77.6751, 63.8975) scale(0.0040, -0.0040)" d="M216 -312c0 -10 -8 -19 -18 -19s-19 9 -19 19v145l-83 -31v-158c0 -10 -9 -19 -19 -19s-18 9 -18 19v145l-32 -12c-2 -1 -5 -1 -7 -1c-11 0 -20 9 -20 20v60c0 8 5 16 13 19l46 16v160l-32 -11c-2 -1 -5 -1 -7 -1c-11 0 -20 9 -20 20v60c0 8 5 15 13 18l46 17v158
c0 10 8 19 18 19s19 -9 19 -19v-145l83 31v158c0 10 9 19 19 19s18 -9 18 -19v-145l32 12c2 1 5 1 7 1c11 0 20 -9 20 -20v-60c0 -8 -5 -16 -13 -19l-46 -16v-160l32 11c2 1 5 1 7 1c11 0 20 -9 20 -20v-60c0 -8 -5 -15 -13 -18l-46 -17v-158zM96 65v-160l83 30v160z" fill="currentColor"/>
<g color="rgb(85.4902%, 36.8627%, 10.1961%)">
<a style="color:inherit;" xlink:href="textedit://C:/Users/RCJacH/OneDrive/Documents/Coding/music/piano_textures/data/classical/liszt/transcendental_etudes/6_vision/6_vision.ly:312:89:90">
<path transform="translate(110.9618, 60.3975) scale(0.0040, -0.0040)" d="M218 136c55 0 108 -28 108 -89c0 -71 -55 -121 -102 -149c-35 -21 -75 -34 -116 -34c-55 0 -108 28 -108 89c0 71 55 121 102 149c35 21 75 34 116 34z" fill="currentColor"/>
</a>
</g>
<rect transform="translate(109.9468, 60.8975)" x="-0.0650" y="-6.0779" width="0.1300" height="3.3918" ry="0.0400" fill="currentColor"/>
<g color="rgb(85.4902%, 36.8627%, 10.1961%)">
<a style="color:inherit;" xlink:href="textedit://C:/Users/RCJacH/OneDrive/Documents/Coding/music/piano_textures/data/classical/liszt/transcendental_etudes/6_vision/6_vision.ly:312:87:88">
<path transform="translate(108.7076, 58.3975) scale(0.0040, -0.0040)" d="M218 136c55 0 108 -28 108 -89c0 -71 -55 -121 -102 -149c-35 -21 -75 -34 -116 -34c-55 0 -108 28 -108 89c0 71 55 121 102 149c35 21 75 34 116 34z" fill="currentColor"/>
</a>
</g>
<path transform="translate(105.1630, 57.8975) scale(0.0040, -0.0040)" d="M-8 375c8 4 17 7 26 7s16 -3 24 -7l-2 -183l106 20h3c10 0 18 -7 18 -17l7 -570c-8 -4 -16 -7 -25 -7s-17 3 -25 7l3 183l-106 -20h-3c-10 0 -18 7 -18 17zM131 112l-92 -17l-3 -207l92 17z" fill="currentColor"/>
<rect transform="translate(112.2010, 60.8975)" x="-0.0650" y="-5.8953" width="0.1300" height="5.2092" ry="0.0400" fill="currentColor"/>
<rect transform="translate(107.4426, 60.8975)" x="-0.0650" y="-6.2808" width="0.1300" height="3.0947" ry="0.0400" fill="currentColor"/>
<g color="rgb(85.4902%, 36.8627%, 10.1961%)">
<a style="color:inherit;" xlink:href="textedit://C:/Users/RCJacH/OneDrive/Documents/Coding/music/piano_textures/data/classical/liszt/transcendental_etudes/6_vision/6_vision.ly:312:85:86">
<path transform="translate(106.2034, 57.8975) scale(0.0040, -0.0040)" d="M218 136c55 0 108 -28 108 -89c0 -71 -55 -121 -102 -149c-35 -21 -75 -34 -116 -34c-55 0 -108 28 -108 89c0 71 55 121 102 149c35 21 75 34 116 34z" fill="currentColor"/>
</a>
</g>
<polygon transform="translate(65.8740, 53.3975)" stroke-linejoin="round" stroke-linecap="round" stroke-width="0.0800" fill="currentColor" stroke="currentColor" points="11.3611 3.4900 11.3611 3.7300 0.0400 0.1200 0.0400 -0.1200"/>
<polygon transform="translate(65.8740, 54.0250)" stroke-linejoin="round" stroke-linecap="round" stroke-width="0.0800" fill="currentColor" stroke="currentColor" points="11.3611 3.4900 11.3611 3.7300 0.0400 0.1200 0.0400 -0.1200"/>
<polygon transform="translate(65.8740, 54.6525)" stroke-linejoin="round" stroke-linecap="round" stroke-width="0.0800" fill="currentColor" stroke="currentColor" points="11.3611 3.4900 11.3611 3.7300 0.0400 0.1200 0.0400 -0.1200"/>
<a style="color:inherit;" xlink:href="textedit://C:/Users/RCJacH/OneDrive/Documents/Coding/music/piano_textures/data/classical/liszt/transcendental_etudes/6_vision/6_vision.ly:315:21:22">
</a>
<a style="color:inherit;" xlink:href="textedit://C:/Users/RCJacH/OneDrive/Documents/Coding/music/piano_textures/data/classical/liszt/transcendental_etudes/6_vision/6_vision.ly:315:21:22">
<text transform="translate(54.9312, 67.1594)" font-family="serif" font-style="italic" font-size="1.7461" text-anchor="start" fill="currentColor">
<tspan>6</tspan>
</text>
</a>
<a style="color:inherit;" xlink:href="textedit://C:/Users/RCJacH/OneDrive/Documents/Coding/music/piano_textures/data/classical/liszt/transcendental_etudes/6_vision/6_vision.ly:311:47:48">
</a>
<a style="color:inherit;" xlink:href="textedit://C:/Users/RCJacH/OneDrive/Documents/Coding/music/piano_textures/data/classical/liszt/transcendental_etudes/6_vision/6_vision.ly:311:47:48">
<text transform="translate(71.1307, 54.5196)" font-family="serif" font-style="italic" font-size="1.7461" text-anchor="start" fill="currentColor">
<tspan>6</tspan>
</text>
</a>
<text transform="translate(63.8998, 53.5146)" font-family="serif" font-style="italic" font-size="2.2001" text-anchor="start" fill="currentColor">
<tspan>8va</tspan>
</text>
<line transform="translate(77.8751, 52.7805)" stroke-linejoin="round" stroke-linecap="round" stroke-width="0.1000" stroke="currentColor" x1="0" y1="0" x2="0.0000" y2="0.8000" stroke-dasharray="1.0,0.0"/>
<line transform="translate(67.3751, 52.7805)" stroke-linejoin="round" stroke-linecap="round" stroke-width="0.1000" stroke="currentColor" x1="0" y1="0" x2="0.0000" y2="-0.0000" stroke-dasharray="1.0,0.0"/>
<line transform="translate(67.3751, 52.7805)" stroke-linejoin="round" stroke-linecap="round" stroke-width="0.1000" stroke="currentColor" x1="0" y1="0" x2="10.4999" y2="-0.0000" stroke-dasharray="0.30582362449354,0.713588457151594"/>
<a style="color:inherit;" xlink:href="textedit://C:/Users/RCJacH/OneDrive/Documents/Coding/music/piano_textures/data/classical/liszt/transcendental_etudes/6_vision/6_vision.ly:316:41:42">
<polygon transform="translate(79.1251, 65.7525)" stroke-linejoin="round" stroke-linecap="round" stroke-width="0.0800" fill="currentColor" stroke="currentColor" points="15.0611 -2.1151 15.0611 -1.8751 0.0400 0.1200 0.0400 -0.1200"/>
<polygon transform="translate(79.1251, 66.3800)" stroke-linejoin="round" stroke-linecap="round" stroke-width="0.0800" fill="currentColor" stroke="currentColor" points="15.0611 -2.1151 15.0611 -1.8751 0.0400 0.1200 0.0400 -0.1200"/>
<polygon transform="translate(79.1251, 67.0075)" stroke-linejoin="round" stroke-linecap="round" stroke-width="0.0800" fill="currentColor" stroke="currentColor" points="19.7153 -2.7300 19.7153 -2.4900 0.0400 0.1200 0.0400 -0.1200"/>
</a>
<a style="color:inherit;" xlink:href="textedit://C:/Users/RCJacH/OneDrive/Documents/Coding/music/piano_textures/data/classical/liszt/transcendental_etudes/6_vision/6_vision.ly:316:21:22">
</a>
<a style="color:inherit;" xlink:href="textedit://C:/Users/RCJacH/OneDrive/Documents/Coding/music/piano_textures/data/classical/liszt/transcendental_etudes/6_vision/6_vision.ly:316:21:22">
<text transform="translate(86.2318, 67.8760)" font-family="serif" font-style="italic" font-size="1.7461" text-anchor="start" fill="currentColor">
<tspan>6</tspan>
</text>
</a>
<a style="color:inherit;" xlink:href="textedit://C:/Users/RCJacH/OneDrive/Documents/Coding/music/piano_textures/data/classical/liszt/transcendental_etudes/6_vision/6_vision.ly:312:48:49">
</a>
<a style="color:inherit;" xlink:href="textedit://C:/Users/RCJacH/OneDrive/Documents/Coding/music/piano_textures/data/classical/liszt/transcendental_etudes/6_vision/6_vision.ly:312:48:49">
<text transform="translate(105.6514, 53.8398)" font-family="serif" font-style="italic" font-size="1.7461" text-anchor="start" fill="currentColor">
<tspan>6</tspan>
</text>
</a>
<text transform="translate(97.9504, 53.7413)" font-family="serif" font-style="italic" font-size="2.2001" text-anchor="start" fill="currentColor">
<tspan>8va</tspan>
</text>
<line transform="translate(105.1630, 53.0072)" stroke-linejoin="round" stroke-linecap="round" stroke-width="0.1000" stroke="currentColor" x1="0" y1="0" x2="0.0000" y2="0.8000" stroke-dasharray="1.0,0.0"/>
<line transform="translate(101.4257, 53.0072)" stroke-linejoin="round" stroke-linecap="round" stroke-width="0.1000" stroke="currentColor" x1="0" y1="0" x2="0.0000" y2="-0.0000" stroke-dasharray="1.0,0.0"/>
<line transform="translate(101.4257, 53.0072)" stroke-linejoin="round" stroke-linecap="round" stroke-width="0.1000" stroke="currentColor" x1="0" y1="0" x2="3.7373" y2="-0.0000" stroke-dasharray="0.339755312813171,0.792762396564065"/>
<polygon transform="translate(99.9246, 54.0075)" stroke-linejoin="round" stroke-linecap="round" stroke-width="0.0800" fill="currentColor" stroke="currentColor" points="12.3015 0.8800 12.3015 1.1200 0.0400 0.1200 0.0400 -0.1200"/>
<polygon transform="translate(99.9246, 54.6350)" stroke-linejoin="round" stroke-linecap="round" stroke-width="0.0800" fill="currentColor" stroke="currentColor" points="12.3015 0.8800 12.3015 1.1200 0.0400 0.1200 0.0400 -0.1200"/>
<polygon transform="translate(99.9246, 55.2625)" stroke-linejoin="round" stroke-linecap="round" stroke-width="0.0800" fill="currentColor" stroke="currentColor" points="12.3015 0.8800 12.3015 1.1200 0.0400 0.1200 0.0400 -0.1200"/>
<path transform="translate(97.3004, 56.8975) scale(0.0040, -0.0040)" d="M216 -312c0 -10 -8 -19 -18 -19s-19 9 -19 19v145l-83 -31v-158c0 -10 -9 -19 -19 -19s-18 9 -18 19v145l-32 -12c-2 -1 -5 -1 -7 -1c-11 0 -20 9 -20 20v60c0 8 5 16 13 19l46 16v160l-32 -11c-2 -1 -5 -1 -7 -1c-11 0 -20 9 -20 20v60c0 8 5 15 13 18l46 17v158
c0 10 8 19 18 19s19 -9 19 -19v-145l83 31v158c0 10 9 19 19 19s18 -9 18 -19v-145l32 12c2 1 5 1 7 1c11 0 20 -9 20 -20v-60c0 -8 -5 -16 -13 -19l-46 -16v-160l32 11c2 1 5 1 7 1c11 0 20 -9 20 -20v-60c0 -8 -5 -15 -13 -18l-46 -17v-158zM96 65v-160l83 30v160z" fill="currentColor"/>
<rect transform="translate(98.8154, 60.8975)" x="-0.0650" y="-2.8139" width="0.1300" height="6.3225" ry="0.0400" fill="currentColor"/>
<path transform="translate(97.3004, 60.3975) scale(0.0040, -0.0040)" d="M216 -312c0 -10 -8 -19 -18 -19s-19 9 -19 19v145l-83 -31v-158c0 -10 -9 -19 -19 -19s-18 9 -18 19v145l-32 -12c-2 -1 -5 -1 -7 -1c-11 0 -20 9 -20 20v60c0 8 5 16 13 19l46 16v160l-32 -11c-2 -1 -5 -1 -7 -1c-11 0 -20 9 -20 20v60c0 8 5 15 13 18l46 17v158
c0 10 8 19 18 19s19 -9 19 -19v-145l83 31v158c0 10 9 19 19 19s18 -9 18 -19v-145l32 12c2 1 5 1 7 1c11 0 20 -9 20 -20v-60c0 -8 -5 -16 -13 -19l-46 -16v-160l32 11c2 1 5 1 7 1c11 0 20 -9 20 -20v-60c0 -8 -5 -15 -13 -18l-46 -17v-158zM96 65v-160l83 30v160z" fill="currentColor"/>
<rect transform="translate(99.9896, 60.8975)" x="-0.0650" y="-6.8847" width="0.1300" height="2.6986" ry="0.0400" fill="currentColor"/>
<g color="rgb(44.3137%, 61.1765%, 96.0784%)">
<a style="color:inherit;" xlink:href="textedit://C:/Users/RCJacH/OneDrive/Documents/Coding/music/piano_textures/data/classical/liszt/transcendental_etudes/6_vision/6_vision.ly:321:77:78">
<path transform="translate(98.7504, 74.6840) scale(0.0040, -0.0040)" d="M218 136c55 0 108 -28 108 -89c0 -71 -55 -121 -102 -149c-35 -21 -75 -34 -116 -34c-55 0 -108 28 -108 89c0 71 55 121 102 149c35 21 75 34 116 34z" fill="currentColor"/>
</a>
</g>
<g color="rgb(44.3137%, 61.1765%, 96.0784%)">
<a style="color:inherit;" xlink:href="textedit://C:/Users/RCJacH/OneDrive/Documents/Coding/music/piano_textures/data/classical/liszt/transcendental_etudes/6_vision/6_vision.ly:321:74:75">
<path transform="translate(98.7504, 75.6840) scale(0.0040, -0.0040)" d="M218 136c55 0 108 -28 108 -89c0 -71 -55 -121 -102 -149c-35 -21 -75 -34 -116 -34c-55 0 -108 28 -108 89c0 71 55 121 102 149c35 21 75 34 116 34z" fill="currentColor"/>
</a>
</g>
<g color="rgb(44.3137%, 61.1765%, 96.0784%)">
<a style="color:inherit;" xlink:href="textedit://C:/Users/RCJacH/OneDrive/Documents/Coding/music/piano_textures/data/classical/liszt/transcendental_etudes/6_vision/6_vision.ly:321:69:70">
<path transform="translate(98.7504, 76.6840) scale(0.0040, -0.0040)" d="M218 136c55 0 108 -28 108 -89c0 -71 -55 -121 -102 -149c-35 -21 -75 -34 -116 -34c-55 0 -108 28 -108 89c0 71 55 121 102 149c35 21 75 34 116 34z" fill="currentColor"/>
</a>
</g>
<g color="rgb(44.3137%, 61.1765%, 96.0784%)">
<a style="color:inherit;" xlink:href="textedit://C:/Users/RCJacH/OneDrive/Documents/Coding/music/piano_textures/data/classical/liszt/transcendental_etudes/6_vision/6_vision.ly:321:63:64">
<path transform="translate(98.7504, 77.6840) scale(0.0040, -0.0040)" d="M218 136c55 0 108 -28 108 -89c0 -71 -55 -121 -102 -149c-35 -21 -75 -34 -116 -34c-55 0 -108 28 -108 89c0 71 55 121 102 149c35 21 75 34 116 34z" fill="currentColor"/>
</a>
</g>
<g color="rgb(44.3137%, 61.1765%, 96.0784%)">
<a style="color:inherit;" xlink:href="textedit://C:/Users/RCJacH/OneDrive/Documents/Coding/music/piano_textures/data/classical/liszt/transcendental_etudes/6_vision/6_vision.ly:321:59:60">
<path transform="translate(97.5111, 78.1840) scale(0.0040, -0.0040)" d="M218 136c55 0 108 -28 108 -89c0 -71 -55 -121 -102 -149c-35 -21 -75 -34 -116 -34c-55 0 -108 28 -108 89c0 71 55 121 102 149c35 21 75 34 116 34z" fill="currentColor"/>
</a>
</g>
<path transform="translate(96.2971, 76.6840) scale(0.0040, -0.0040)" d="M216 -312c0 -10 -8 -19 -18 -19s-19 9 -19 19v145l-83 -31v-158c0 -10 -9 -19 -19 -19s-18 9 -18 19v145l-32 -12c-2 -1 -5 -1 -7 -1c-11 0 -20 9 -20 20v60c0 8 5 16 13 19l46 16v160l-32 -11c-2 -1 -5 -1 -7 -1c-11 0 -20 9 -20 20v60c0 8 5 15 13 18l46 17v158
c0 10 8 19 18 19s19 -9 19 -19v-145l83 31v158c0 10 9 19 19 19s18 -9 18 -19v-145l32 12c2 1 5 1 7 1c11 0 20 -9 20 -20v-60c0 -8 -5 -16 -13 -19l-46 -16v-160l32 11c2 1 5 1 7 1c11 0 20 -9 20 -20v-60c0 -8 -5 -15 -13 -18l-46 -17v-158zM96 65v-160l83 30v160z" fill="currentColor"/>
<rect transform="translate(104.4980, 60.8975)" x="-0.0650" y="-6.5194" width="0.1300" height="5.8333" ry="0.0400" fill="currentColor"/>
<g color="rgb(85.4902%, 36.8627%, 10.1961%)">
<a style="color:inherit;" xlink:href="textedit://C:/Users/RCJacH/OneDrive/Documents/Coding/music/piano_textures/data/classical/liszt/transcendental_etudes/6_vision/6_vision.ly:312:70:71">
<path transform="translate(103.2588, 60.3975) scale(0.0040, -0.0040)" d="M218 136c55 0 108 -28 108 -89c0 -71 -55 -121 -102 -149c-35 -21 -75 -34 -116 -34c-55 0 -108 28 -108 89c0 71 55 121 102 149c35 21 75 34 116 34z" fill="currentColor"/>
</a>
</g>
<rect transform="translate(102.2438, 60.8975)" x="-0.0650" y="-6.7021" width="0.1300" height="4.0160" ry="0.0400" fill="currentColor"/>
<g color="rgb(85.4902%, 36.8627%, 10.1961%)">
<a style="color:inherit;" xlink:href="textedit://C:/Users/RCJacH/OneDrive/Documents/Coding/music/piano_textures/data/classical/liszt/transcendental_etudes/6_vision/6_vision.ly:312:68:69">
<path transform="translate(101.0046, 58.3975) scale(0.0040, -0.0040)" d="M218 136c55 0 108 -28 108 -89c0 -71 -55 -121 -102 -149c-35 -21 -75 -34 -116 -34c-55 0 -108 28 -108 89c0 71 55 121 102 149c35 21 75 34 116 34z" fill="currentColor"/>
</a>
</g>
<g color="rgb(73.3333%, 44.3137%, 91.3725%)">
<a style="color:inherit;" xlink:href="textedit://C:/Users/RCJacH/OneDrive/Documents/Coding/music/piano_textures/data/classical/liszt/transcendental_etudes/6_vision/6_vision.ly:316:70:71">
<path transform="translate(98.7504, 57.8975) scale(0.0040, -0.0040)" d="M218 136c55 0 108 -28 108 -89c0 -71 -55 -121 -102 -149c-35 -21 -75 -34 -116 -34c-55 0 -108 28 -108 89c0 71 55 121 102 149c35 21 75 34 116 34z" fill="currentColor"/>
</a>
</g>
<path transform="translate(94.9971, 77.6840) scale(0.0040, -0.0040)" d="M216 -312c0 -10 -8 -19 -18 -19s-19 9 -19 19v145l-83 -31v-158c0 -10 -9 -19 -19 -19s-18 9 -18 19v145l-32 -12c-2 -1 -5 -1 -7 -1c-11 0 -20 9 -20 20v60c0 8 5 16 13 19l46 16v160l-32 -11c-2 -1 -5 -1 -7 -1c-11 0 -20 9 -20 20v60c0 8 5 15 13 18l46 17v158
c0 10 8 19 18 19s19 -9 19 -19v-145l83 31v158c0 10 9 19 19 19s18 -9 18 -19v-145l32 12c2 1 5 1 7 1c11 0 20 -9 20 -20v-60c0 -8 -5 -16 -13 -19l-46 -16v-160l32 11c2 1 5 1 7 1c11 0 20 -9 20 -20v-60c0 -8 -5 -15 -13 -18l-46 -17v-158zM96 65v-160l83 30v160z" fill="currentColor"/>
<path transform="translate(98.8804, 81.1440) scale(0.0040, -0.0040)" d="M0 0h-16v250h16c97 59 224 148 224 259c0 57 -15 112 -40 163c-3 16 10 27 23 27c7 0 15 -3 20 -11c25 -56 40 -117 40 -179c0 -203 -267 -306 -267 -509z" fill="currentColor"/>
<rect transform="translate(98.8154, 72.6840)" x="-0.0650" y="2.1861" width="0.1300" height="6.3139" ry="0.0400" fill="currentColor"/>
<path transform="translate(96.0004, 57.8975) scale(0.0040, -0.0040)" d="M216 -312c0 -10 -8 -19 -18 -19s-19 9 -19 19v145l-83 -31v-158c0 -10 -9 -19 -19 -19s-18 9 -18 19v145l-32 -12c-2 -1 -5 -1 -7 -1c-11 0 -20 9 -20 20v60c0 8 5 16 13 19l46 16v160l-32 -11c-2 -1 -5 -1 -7 -1c-11 0 -20 9 -20 20v60c0 8 5 15 13 18l46 17v158
c0 10 8 19 18 19s19 -9 19 -19v-145l83 31v158c0 10 9 19 19 19s18 -9 18 -19v-145l32 12c2 1 5 1 7 1c11 0 20 -9 20 -20v-60c0 -8 -5 -16 -13 -19l-46 -16v-160l32 11c2 1 5 1 7 1c11 0 20 -9 20 -20v-60c0 -8 -5 -15 -13 -18l-46 -17v-158zM96 65v-160l83 30v160z" fill="currentColor"/>
<g color="rgb(73.3333%, 44.3137%, 91.3725%)">
<a style="color:inherit;" xlink:href="textedit://C:/Users/RCJacH/OneDrive/Documents/Coding/music/piano_textures/data/classical/liszt/transcendental_etudes/6_vision/6_vision.ly:315:42:43">
<path transform="translate(53.9330, 60.8975) scale(0.0040, -0.0040)" d="M218 136c55 0 108 -28 108 -89c0 -71 -55 -121 -102 -149c-35 -21 -75 -34 -116 -34c-55 0 -108 28 -108 89c0 71 55 121 102 149c35 21 75 34 116 34z" fill="currentColor"/>
</a>
</g>
<rect transform="translate(51.2438, 60.8975)" x="-0.0650" y="1.1861" width="0.1300" height="3.8654" ry="0.0400" fill="currentColor"/>
<g color="rgb(73.3333%, 44.3137%, 91.3725%)">
<a style="color:inherit;" xlink:href="textedit://C:/Users/RCJacH/OneDrive/Documents/Coding/music/piano_textures/data/classical/liszt/transcendental_etudes/6_vision/6_vision.ly:315:40:41">
<path transform="translate(51.1788, 61.8975) scale(0.0040, -0.0040)" d="M218 136c55 0 108 -28 108 -89c0 -71 -55 -121 -102 -149c-35 -21 -75 -34 -116 -34c-55 0 -108 28 -108 89c0 71 55 121 102 149c35 21 75 34 116 34z" fill="currentColor"/>
</a>
</g>
<rect transform="translate(53.9980, 60.8975)" x="-0.0650" y="0.1861" width="0.1300" height="4.4272" ry="0.0400" fill="currentColor"/>
<g color="rgb(73.3333%, 44.3137%, 91.3725%)">
<a style="color:inherit;" xlink:href="textedit://C:/Users/RCJacH/OneDrive/Documents/Coding/music/piano_textures/data/classical/liszt/transcendental_etudes/6_vision/6_vision.ly:315:46:47">
<path transform="translate(59.4414, 58.3975) scale(0.0040, -0.0040)" d="M218 136c55 0 108 -28 108 -89c0 -71 -55 -121 -102 -149c-35 -21 -75 -34 -116 -34c-55 0 -108 28 -108 89c0 71 55 121 102 149c35 21 75 34 116 34z" fill="currentColor"/>
</a>
</g>
<rect transform="translate(56.7522, 60.8975)" x="-0.0650" y="-0.8139" width="0.1300" height="4.9890" ry="0.0400" fill="currentColor"/>
<g color="rgb(73.3333%, 44.3137%, 91.3725%)">
<a style="color:inherit;" xlink:href="textedit://C:/Users/RCJacH/OneDrive/Documents/Coding/music/piano_textures/data/classical/liszt/transcendental_etudes/6_vision/6_vision.ly:315:44:45">
<path transform="translate(56.6872, 59.8975) scale(0.0040, -0.0040)" d="M218 136c55 0 108 -28 108 -89c0 -71 -55 -121 -102 -149c-35 -21 -75 -34 -116 -34c-55 0 -108 28 -108 89c0 71 55 121 102 149c35 21 75 34 116 34z" fill="currentColor"/>
</a>
</g>
<g color="rgb(24.7059%, 80.0000%, 78.0392%)">
<a style="color:inherit;" xlink:href="textedit://C:/Users/RCJacH/OneDrive/Documents/Coding/music/piano_textures/data/classical/liszt/transcendental_etudes/6_vision/6_vision.ly:320:41:42">
<path transform="translate(48.4245, 71.1840) scale(0.0040, -0.0040)" d="M218 136c55 0 108 -28 108 -89c0 -71 -55 -121 -102 -149c-35 -21 -75 -34 -116 -34c-55 0 -108 28 -108 89c0 71 55 121 102 149c35 21 75 34 116 34z" fill="currentColor"/>
</a>
</g>
<g color="rgb(24.7059%, 80.0000%, 78.0392%)">
<a style="color:inherit;" xlink:href="textedit://C:/Users/RCJacH/OneDrive/Documents/Coding/music/piano_textures/data/classical/liszt/transcendental_etudes/6_vision/6_vision.ly:320:39:40">
<path transform="translate(48.4245, 72.6840) scale(0.0040, -0.0040)" d="M218 136c55 0 108 -28 108 -89c0 -71 -55 -121 -102 -149c-35 -21 -75 -34 -116 -34c-55 0 -108 28 -108 89c0 71 55 121 102 149c35 21 75 34 116 34z" fill="currentColor"/>
</a>
</g>
<g color="rgb(24.7059%, 80.0000%, 78.0392%)">
<a style="color:inherit;" xlink:href="textedit://C:/Users/RCJacH/OneDrive/Documents/Coding/music/piano_textures/data/classical/liszt/transcendental_etudes/6_vision/6_vision.ly:320:36:37">
<path transform="translate(48.4245, 73.6840) scale(0.0040, -0.0040)" d="M218 136c55 0 108 -28 108 -89c0 -71 -55 -121 -102 -149c-35 -21 -75 -34 -116 -34c-55 0 -108 28 -108 89c0 71 55 121 102 149c35 21 75 34 116 34z" fill="currentColor"/>
</a>
</g>
<a style="color:inherit;" xlink:href="textedit://C:/Users/RCJacH/OneDrive/Documents/Coding/music/piano_textures/data/classical/liszt/transcendental_etudes/6_vision/6_vision.ly:307:6:7">
<path transform="translate(44.8245, 58.8975) scale(0.0040, -0.0040)" d="M216 -312c0 -10 -8 -19 -18 -19s-19 9 -19 19v145l-83 -31v-158c0 -10 -9 -19 -19 -19s-18 9 -18 19v145l-32 -12c-2 -1 -5 -1 -7 -1c-11 0 -20 9 -20 20v60c0 8 5 16 13 19l46 16v160l-32 -11c-2 -1 -5 -1 -7 -1c-11 0 -20 9 -20 20v60c0 8 5 15 13 18l46 17v158
c0 10 8 19 18 19s19 -9 19 -19v-145l83 31v158c0 10 9 19 19 19s18 -9 18 -19v-145l32 12c2 1 5 1 7 1c11 0 20 -9 20 -20v-60c0 -8 -5 -16 -13 -19l-46 -16v-160l32 11c2 1 5 1 7 1c11 0 20 -9 20 -20v-60c0 -8 -5 -15 -13 -18l-46 -17v-158zM96 65v-160l83 30v160z" fill="currentColor"/>
</a>
<path transform="translate(41.3245, 61.8975) scale(0.0040, -0.0040)" d="M376 262c4 0 9 1 13 1c155 0 256 -128 256 -261c0 -76 -33 -154 -107 -210c-22 -17 -47 -28 -73 -36c3 -35 5 -70 5 -105c0 -19 -1 -39 -2 -58c-7 -120 -90 -228 -208 -228c-108 0 -195 88 -195 197c0 58 53 103 112 103c54 0 95 -47 95 -103c0 -52 -43 -95 -95 -95
c-11 0 -21 2 -31 6c26 -39 68 -65 117 -65c96 0 157 92 163 191c1 18 2 37 2 55c0 31 -1 61 -4 92c-29 -5 -58 -8 -89 -8c-188 0 -333 172 -333 374c0 177 131 306 248 441c-19 62 -37 125 -45 190c-6 52 -7 104 -7 156c0 115 55 224 149 292c3 2 7 3 10 3c4 0 7 0 10 -3
c71 -84 133 -245 133 -358c0 -143 -86 -255 -180 -364c21 -68 39 -138 56 -207zM461 -203c68 24 113 95 113 164c0 90 -66 179 -173 190c24 -116 46 -231 60 -354zM74 28c0 -135 129 -247 264 -247c28 0 55 2 82 6c-14 127 -37 245 -63 364c-79 -8 -124 -61 -124 -119
c0 -44 25 -91 81 -123c5 -5 7 -10 7 -15c0 -11 -10 -22 -22 -22c-3 0 -6 1 -9 2c-80 43 -117 115 -117 185c0 88 58 174 160 197c-14 58 -29 117 -46 175c-107 -121 -213 -243 -213 -403zM408 1045c-99 -48 -162 -149 -162 -259c0 -74 18 -133 36 -194
c80 97 146 198 146 324c0 55 -4 79 -20 129z" fill="currentColor"/>
<g color="rgb(73.3333%, 44.3137%, 91.3725%)">
<a style="color:inherit;" xlink:href="textedit://C:/Users/RCJacH/OneDrive/Documents/Coding/music/piano_textures/data/classical/liszt/transcendental_etudes/6_vision/6_vision.ly:315:35:36">
<path transform="translate(48.4245, 63.3975) scale(0.0040, -0.0040)" d="M218 136c55 0 108 -28 108 -89c0 -71 -55 -121 -102 -149c-35 -21 -75 -34 -116 -34c-55 0 -108 28 -108 89c0 71 55 121 102 149c35 21 75 34 116 34z" fill="currentColor"/>
</a>
</g>
<g color="rgb(96.8627%, 34.1176%, 50.9804%)">
<a style="color:inherit;" xlink:href="textedit://C:/Users/RCJacH/OneDrive/Documents/Coding/music/piano_textures/data/classical/liszt/transcendental_etudes/6_vision/6_vision.ly:309:29:30">
<path transform="translate(48.4245, 59.8975) scale(0.0040, -0.0040)" d="M218 136c55 0 108 -28 108 -89c0 -71 -55 -121 -102 -149c-35 -21 -75 -34 -116 -34c-55 0 -108 28 -108 89c0 71 55 121 102 149c35 21 75 34 116 34z" fill="currentColor"/>
</a>
</g>
<g color="rgb(96.8627%, 34.1176%, 50.9804%)">
<a style="color:inherit;" xlink:href="textedit://C:/Users/RCJacH/OneDrive/Documents/Coding/music/piano_textures/data/classical/liszt/transcendental_etudes/6_vision/6_vision.ly:309:26:27">
<path transform="translate(48.4245, 63.3975) scale(0.0040, -0.0040)" d="M218 136c55 0 108 -28 108 -89c0 -71 -55 -121 -102 -149c-35 -21 -75 -34 -116 -34c-55 0 -108 28 -108 89c0 71 55 121 102 149c35 21 75 34 116 34z" fill="currentColor"/>
</a>
</g>
<g color="rgb(24.7059%, 80.0000%, 78.0392%)">
<a style="color:inherit;" xlink:href="textedit://C:/Users/RCJacH/OneDrive/Documents/Coding/music/piano_textures/data/classical/liszt/transcendental_etudes/6_vision/6_vision.ly:320:43:44">
<path transform="translate(48.4245, 70.1840) scale(0.0040, -0.0040)" d="M218 136c55 0 108 -28 108 -89c0 -71 -55 -121 -102 -149c-35 -21 -75 -34 -116 -34c-55 0 -108 28 -108 89c0 71 55 121 102 149c35 21 75 34 116 34z" fill="currentColor"/>
</a>
</g>
<rect transform="translate(40.4645, 66.7908)" x="0.0000" y="-7.9433" width="0.1600" height="15.8866" ry="0.0500" fill="currentColor"/>
<path transform="translate(40.1645, 66.7908) scale(0.0040, -0.0040)" d="M-16 -596c0 -320 -120 -628 -120 -932c0 -164 36 -312 148 -436c4 -4 4 -8 4 -12c0 -8 -8 -16 -16 -16c-4 0 -8 0 -12 4c-148 164 -200 376 -200 596c0 324 128 644 128 952c0 160 -36 308 -148 432c0 4 -4 4 -4 8s4 4 4 8c112 124 148 272 148 432
c0 308 -128 628 -128 952c0 220 52 432 200 596c4 4 8 4 12 4c8 0 16 -8 16 -16c0 -4 0 -8 -4 -12c-112 -124 -148 -272 -148 -436c0 -304 120 -612 120 -932c0 -220 -48 -432 -192 -596c144 -164 192 -376 192 -596z" fill="currentColor"/>
<text transform="translate(12.8154, 67.3200)" font-family="serif" font-size="2.2001" text-anchor="start" fill="currentColor">
<tspan>Melody + a1 + Chord + Bass </tspan>
</text>
<rect transform="translate(48.4895, 60.8975)" x="-0.0650" y="2.6861" width="0.1300" height="2.8036" ry="0.0400" fill="currentColor"/>
<rect transform="translate(49.6638, 72.6840)" x="-0.0650" y="-5.0000" width="0.1300" height="5.8139" ry="0.0400" fill="currentColor"/>
<rect transform="translate(59.5064, 60.8975)" x="-0.0650" y="-2.3139" width="0.1300" height="6.0508" ry="0.0400" fill="currentColor"/>
<rect transform="translate(49.6638, 60.8975)" x="-0.0650" y="-4.0000" width="0.1300" height="6.3139" ry="0.0400" fill="currentColor"/>
<text transform="translate(38.7491, 57.8133)" font-family="serif" font-size="1.7461" text-anchor="start" fill="currentColor">
<tspan>32</tspan>
</text>
<a style="color:inherit;" xlink:href="textedit://C:/Users/RCJacH/OneDrive/Documents/Coding/music/piano_textures/data/classical/liszt/transcendental_etudes/6_vision/6_vision.ly:307:6:7">
<path transform="translate(44.8245, 71.6840) scale(0.0040, -0.0040)" d="M216 -312c0 -10 -8 -19 -18 -19s-19 9 -19 19v145l-83 -31v-158c0 -10 -9 -19 -19 -19s-18 9 -18 19v145l-32 -12c-2 -1 -5 -1 -7 -1c-11 0 -20 9 -20 20v60c0 8 5 16 13 19l46 16v160l-32 -11c-2 -1 -5 -1 -7 -1c-11 0 -20 9 -20 20v60c0 8 5 15 13 18l46 17v158
c0 10 8 19 18 19s19 -9 19 -19v-145l83 31v158c0 10 9 19 19 19s18 -9 18 -19v-145l32 12c2 1 5 1 7 1c11 0 20 -9 20 -20v-60c0 -8 -5 -16 -13 -19l-46 -16v-160l32 11c2 1 5 1 7 1c11 0 20 -9 20 -20v-60c0 -8 -5 -15 -13 -18l-46 -17v-158zM96 65v-160l83 30v160z" fill="currentColor"/>
</a>
<path transform="translate(41.3245, 71.6840) scale(0.0040, -0.0040)" d="M557 -125c0 28 23 51 51 51s51 -23 51 -51s-23 -51 -51 -51s-51 23 -51 51zM557 125c0 28 23 51 51 51s51 -23 51 -51s-23 -51 -51 -51s-51 23 -51 51zM232 263c172 0 293 -88 293 -251c0 -263 -263 -414 -516 -521c-3 -3 -6 -4 -9 -4c-7 0 -13 6 -13 13c0 3 1 6 4 9
c202 118 412 265 412 493c0 120 -63 235 -171 235c-74 0 -129 -54 -154 -126c11 5 22 8 34 8c55 0 100 -45 100 -100c0 -58 -44 -106 -100 -106c-60 0 -112 47 -112 106c0 133 102 244 232 244z" fill="currentColor"/>
<path transform="translate(64.8298, 81.1440) scale(0.0040, -0.0040)" d="M0 0h-16v250h16c97 59 224 148 224 259c0 57 -15 112 -40 163c-3 16 10 27 23 27c7 0 15 -3 20 -11c25 -56 40 -117 40 -179c0 -203 -267 -306 -267 -509z" fill="currentColor"/>
<rect transform="translate(68.1932, 60.8975)" x="-0.0650" y="-6.7657" width="0.1300" height="4.0795" ry="0.0400" fill="currentColor"/>
<g color="rgb(85.4902%, 36.8627%, 10.1961%)">
<a style="color:inherit;" xlink:href="textedit://C:/Users/RCJacH/OneDrive/Documents/Coding/music/piano_textures/data/classical/liszt/transcendental_etudes/6_vision/6_vision.ly:311:65:66">
<path transform="translate(66.9540, 58.3975) scale(0.0040, -0.0040)" d="M218 136c55 0 108 -28 108 -89c0 -71 -55 -121 -102 -149c-35 -21 -75 -34 -116 -34c-55 0 -108 28 -108 89c0 71 55 121 102 149c35 21 75 34 116 34z" fill="currentColor"/>
</a>
</g>
<rect transform="translate(64.7648, 72.6840)" x="-0.0650" y="2.1861" width="0.1300" height="6.3139" ry="0.0400" fill="currentColor"/>
<g color="rgb(85.4902%, 36.8627%, 10.1961%)">
<a style="color:inherit;" xlink:href="textedit://C:/Users/RCJacH/OneDrive/Documents/Coding/music/piano_textures/data/classical/liszt/transcendental_etudes/6_vision/6_vision.ly:311:72:73">
<path transform="translate(73.7167, 61.8975) scale(0.0040, -0.0040)" d="M218 136c55 0 108 -28 108 -89c0 -71 -55 -121 -102 -149c-35 -21 -75 -34 -116 -34c-55 0 -108 28 -108 89c0 71 55 121 102 149c35 21 75 34 116 34z" fill="currentColor"/>
</a>
</g>
<rect transform="translate(74.9559, 60.8975)" x="-0.0650" y="-4.6243" width="0.1300" height="5.4382" ry="0.0400" fill="currentColor"/>
<g color="rgb(85.4902%, 36.8627%, 10.1961%)">
<a style="color:inherit;" xlink:href="textedit://C:/Users/RCJacH/OneDrive/Documents/Coding/music/piano_textures/data/classical/liszt/transcendental_etudes/6_vision/6_vision.ly:311:68:69">
<path transform="translate(69.2082, 59.8975) scale(0.0040, -0.0040)" d="M218 136c55 0 108 -28 108 -89c0 -71 -55 -121 -102 -149c-35 -21 -75 -34 -116 -34c-55 0 -108 28 -108 89c0 71 55 121 102 149c35 21 75 34 116 34z" fill="currentColor"/>
</a>
</g>
<rect transform="translate(70.4475, 60.8975)" x="-0.0650" y="-6.0519" width="0.1300" height="4.8658" ry="0.0400" fill="currentColor"/>
<rect transform="translate(72.7017, 60.8975)" x="-0.0650" y="-5.3381" width="0.1300" height="5.1520" ry="0.0400" fill="currentColor"/>
<g color="rgb(85.4902%, 36.8627%, 10.1961%)">
<a style="color:inherit;" xlink:href="textedit://C:/Users/RCJacH/OneDrive/Documents/Coding/music/piano_textures/data/classical/liszt/transcendental_etudes/6_vision/6_vision.ly:311:70:71">
<path transform="translate(71.4625, 60.8975) scale(0.0040, -0.0040)" d="M218 136c55 0 108 -28 108 -89c0 -71 -55 -121 -102 -149c-35 -21 -75 -34 -116 -34c-55 0 -108 28 -108 89c0 71 55 121 102 149c35 21 75 34 116 34z" fill="currentColor"/>
</a>
</g>
<g color="rgb(73.3333%, 44.3137%, 91.3725%)">
<a style="color:inherit;" xlink:href="textedit://C:/Users/RCJacH/OneDrive/Documents/Coding/music/piano_textures/data/classical/liszt/transcendental_etudes/6_vision/6_vision.ly:315:53:54">
<path transform="translate(64.6998, 59.8975) scale(0.0040, -0.0040)" d="M218 136c55 0 108 -28 108 -89c0 -71 -55 -121 -102 -149c-35 -21 -75 -34 -116 -34c-55 0 -108 28 -108 89c0 71 55 121 102 149c35 21 75 34 116 34z" fill="currentColor"/>
</a>
</g>
<rect transform="translate(77.2101, 60.8975)" x="-0.0650" y="-3.9106" width="0.1300" height="6.2245" ry="0.0400" fill="currentColor"/>
<g color="rgb(73.3333%, 44.3137%, 91.3725%)">
<a style="color:inherit;" xlink:href="textedit://C:/Users/RCJacH/OneDrive/Documents/Coding/music/piano_textures/data/classical/liszt/transcendental_etudes/6_vision/6_vision.ly:315:48:49">
<path transform="translate(62.1956, 57.3975) scale(0.0040, -0.0040)" d="M218 136c55 0 108 -28 108 -89c0 -71 -55 -121 -102 -149c-35 -21 -75 -34 -116 -34c-55 0 -108 28 -108 89c0 71 55 121 102 149c35 21 75 34 116 34z" fill="currentColor"/>
</a>
</g>
<rect transform="translate(62.2606, 60.8975)" x="-0.0650" y="-3.3139" width="0.1300" height="6.6126" ry="0.0400" fill="currentColor"/>
<g color="rgb(85.4902%, 36.8627%, 10.1961%)">
<a style="color:inherit;" xlink:href="textedit://C:/Users/RCJacH/OneDrive/Documents/Coding/music/piano_textures/data/classical/liszt/transcendental_etudes/6_vision/6_vision.ly:311:74:75">
<path transform="translate(75.9709, 63.3975) scale(0.0040, -0.0040)" d="M218 136c55 0 108 -28 108 -89c0 -71 -55 -121 -102 -149c-35 -21 -75 -34 -116 -34c-55 0 -108 28 -108 89c0 71 55 121 102 149c35 21 75 34 116 34z" fill="currentColor"/>
</a>
</g>
<g color="rgb(85.4902%, 36.8627%, 10.1961%)">
<a style="color:inherit;" xlink:href="textedit://C:/Users/RCJacH/OneDrive/Documents/Coding/music/piano_textures/data/classical/liszt/transcendental_etudes/6_vision/6_vision.ly:311:61:62">
<path transform="translate(64.6998, 56.3975) scale(0.0040, -0.0040)" d="M218 136c55 0 108 -28 108 -89c0 -71 -55 -121 -102 -149c-35 -21 -75 -34 -116 -34c-55 0 -108 28 -108 89c0 71 55 121 102 149c35 21 75 34 116 34z" fill="currentColor"/>
</a>
</g>
<g color="rgb(73.3333%, 44.3137%, 91.3725%)">
<a style="color:inherit;" xlink:href="textedit://C:/Users/RCJacH/OneDrive/Documents/Coding/music/piano_textures/data/classical/liszt/transcendental_etudes/6_vision/6_vision.ly:315:58:59">
<path transform="translate(64.6998, 57.3975) scale(0.0040, -0.0040)" d="M218 136c55 0 108 -28 108 -89c0 -71 -55 -121 -102 -149c-35 -21 -75 -34 -116 -34c-55 0 -108 28 -108 89c0 71 55 121 102 149c35 21 75 34 116 34z" fill="currentColor"/>
</a>
</g>
<g color="rgb(44.3137%, 61.1765%, 96.0784%)">
<a style="color:inherit;" xlink:href="textedit://C:/Users/RCJacH/OneDrive/Documents/Coding/music/piano_textures/data/classical/liszt/transcendental_etudes/6_vision/6_vision.ly:321:39:40">
<path transform="translate(64.6998, 78.1840) scale(0.0040, -0.0040)" d="M218 136c55 0 108 -28 108 -89c0 -71 -55 -121 -102 -149c-35 -21 -75 -34 -116 -34c-55 0 -108 28 -108 89c0 71 55 121 102 149c35 21 75 34 116 34z" fill="currentColor"/>
</a>
</g>
<g color="rgb(44.3137%, 61.1765%, 96.0784%)">
<a style="color:inherit;" xlink:href="textedit://C:/Users/RCJacH/OneDrive/Documents/Coding/music/piano_textures/data/classical/liszt/transcendental_etudes/6_vision/6_vision.ly:321:43:44">
<path transform="translate(64.6998, 77.1840) scale(0.0040, -0.0040)" d="M218 136c55 0 108 -28 108 -89c0 -71 -55 -121 -102 -149c-35 -21 -75 -34 -116 -34c-55 0 -108 28 -108 89c0 71 55 121 102 149c35 21 75 34 116 34z" fill="currentColor"/>
</a>
</g>
<g color="rgb(44.3137%, 61.1765%, 96.0784%)">
<a style="color:inherit;" xlink:href="textedit://C:/Users/RCJacH/OneDrive/Documents/Coding/music/piano_textures/data/classical/liszt/transcendental_etudes/6_vision/6_vision.ly:321:47:48">
<path transform="translate(64.6998, 76.1840) scale(0.0040, -0.0040)" d="M218 136c55 0 108 -28 108 -89c0 -71 -55 -121 -102 -149c-35 -21 -75 -34 -116 -34c-55 0 -108 28 -108 89c0 71 55 121 102 149c35 21 75 34 116 34z" fill="currentColor"/>
</a>
</g>
<g color="rgb(44.3137%, 61.1765%, 96.0784%)">
<a style="color:inherit;" xlink:href="textedit://C:/Users/RCJacH/OneDrive/Documents/Coding/music/piano_textures/data/classical/liszt/transcendental_etudes/6_vision/6_vision.ly:321:50:51">
<path transform="translate(64.6998, 74.6840) scale(0.0040, -0.0040)" d="M218 136c55 0 108 -28 108 -89c0 -71 -55 -121 -102 -149c-35 -21 -75 -34 -116 -34c-55 0 -108 28 -108 89c0 71 55 121 102 149c35 21 75 34 116 34z" fill="currentColor"/>
</a>
</g>
<rect transform="translate(64.7648, 60.8975)" x="-0.0650" y="-3.3139" width="0.1300" height="6.2142" ry="0.0400" fill="currentColor"/>
<rect transform="translate(65.9390, 60.8975)" x="-0.0650" y="-7.4794" width="0.1300" height="2.7933" ry="0.0400" fill="currentColor"/>
</svg>
